<mxfile host="app.diagrams.net" agent="Mozilla/5.0 (Macintosh; Intel Mac OS X 10_15_7) AppleWebKit/605.1.15 (KHTML, like Gecko) Version/17.1 Safari/605.1.15" version="24.8.3" pages="2">
  <diagram name="PÃ¡gina-1" id="iRDrJiIiprnjs7fd0Q7W">
    <mxGraphModel dx="1193" dy="809" grid="1" gridSize="10" guides="1" tooltips="1" connect="1" arrows="0" fold="1" page="1" pageScale="1" pageWidth="1169" pageHeight="827" math="0" shadow="0">
      <root>
        <mxCell id="0" />
        <mxCell id="1" parent="0" />
        <mxCell id="1gPnykWYMlendHl-3gnx-233" value="" style="endArrow=none;html=1;strokeWidth=1.5;rounded=0;strokeColor=default;align=center;verticalAlign=middle;fontFamily=Helvetica;fontSize=11;fontColor=default;labelBackgroundColor=default;edgeStyle=orthogonalEdgeStyle;" edge="1" parent="1">
          <mxGeometry width="100" relative="1" as="geometry">
            <mxPoint x="390" y="388" as="sourcePoint" />
            <mxPoint x="470" y="388" as="targetPoint" />
          </mxGeometry>
        </mxCell>
        <mxCell id="c5eu0mcJMc6bDwEQeXFq-1561" value="&lt;span style=&quot;caret-color: rgb(0, 0, 0); color: rgb(0, 0, 0); font-family: Verdana; font-style: normal; font-variant-caps: normal; font-weight: 400; letter-spacing: normal; text-indent: 0px; text-transform: none; white-space: normal; word-spacing: 0px; -webkit-text-stroke-width: 0px; text-decoration: none; float: none; display: inline !important;&quot;&gt;&lt;font style=&quot;font-size: 6px;&quot;&gt;A4&lt;/font&gt;&lt;/span&gt;" style="text;whiteSpace=wrap;html=1;fontFamily=Helvetica;fontSize=11;fontColor=default;labelBackgroundColor=none;align=center;container=0;" vertex="1" parent="1">
          <mxGeometry x="649.5" y="423" width="40" height="34" as="geometry" />
        </mxCell>
        <mxCell id="c5eu0mcJMc6bDwEQeXFq-1562" value="&lt;span style=&quot;caret-color: rgb(0, 0, 0); color: rgb(0, 0, 0); font-family: Verdana; font-style: normal; font-variant-caps: normal; font-weight: 400; letter-spacing: normal; text-indent: 0px; text-transform: none; white-space: normal; word-spacing: 0px; -webkit-text-stroke-width: 0px; text-decoration: none; float: none; display: inline !important;&quot;&gt;&lt;font style=&quot;font-size: 6px;&quot;&gt;A3&lt;/font&gt;&lt;/span&gt;" style="text;whiteSpace=wrap;html=1;fontFamily=Helvetica;fontSize=11;fontColor=default;labelBackgroundColor=none;align=center;container=0;" vertex="1" parent="1">
          <mxGeometry x="649.5" y="433" width="40" height="40" as="geometry" />
        </mxCell>
        <mxCell id="c5eu0mcJMc6bDwEQeXFq-1563" value="&lt;span style=&quot;caret-color: rgb(0, 0, 0); color: rgb(0, 0, 0); font-family: Verdana; font-style: normal; font-variant-caps: normal; font-weight: 400; letter-spacing: normal; text-indent: 0px; text-transform: none; white-space: normal; word-spacing: 0px; -webkit-text-stroke-width: 0px; text-decoration: none; float: none; display: inline !important;&quot;&gt;&lt;font style=&quot;font-size: 6px;&quot;&gt;A2&lt;/font&gt;&lt;/span&gt;" style="text;whiteSpace=wrap;html=1;fontFamily=Helvetica;fontSize=11;fontColor=default;labelBackgroundColor=none;align=center;container=0;" vertex="1" parent="1">
          <mxGeometry x="649.5" y="443" width="40" height="37" as="geometry" />
        </mxCell>
        <mxCell id="c5eu0mcJMc6bDwEQeXFq-1564" value="&lt;span style=&quot;caret-color: rgb(0, 0, 0); color: rgb(0, 0, 0); font-family: Verdana; font-style: normal; font-variant-caps: normal; font-weight: 400; letter-spacing: normal; text-indent: 0px; text-transform: none; white-space: normal; word-spacing: 0px; -webkit-text-stroke-width: 0px; text-decoration: none; float: none; display: inline !important;&quot;&gt;&lt;font style=&quot;font-size: 6px;&quot;&gt;A1&lt;/font&gt;&lt;/span&gt;" style="text;whiteSpace=wrap;html=1;fontFamily=Helvetica;fontSize=11;fontColor=default;labelBackgroundColor=none;align=center;container=0;" vertex="1" parent="1">
          <mxGeometry x="649.5" y="453" width="40" height="40" as="geometry" />
        </mxCell>
        <mxCell id="c5eu0mcJMc6bDwEQeXFq-1565" value="&lt;div style=&quot;&quot;&gt;&lt;span style=&quot;font-family: Verdana;&quot;&gt;&lt;font style=&quot;font-size: 6px;&quot;&gt;A5&lt;/font&gt;&lt;/span&gt;&lt;/div&gt;&lt;div style=&quot;font-size: 10px;&quot;&gt;&lt;span style=&quot;caret-color: rgb(0, 0, 0); color: rgb(0, 0, 0); font-family: Verdana; font-style: normal; font-variant-caps: normal; font-weight: 400; letter-spacing: normal; text-indent: 0px; text-transform: none; white-space: normal; word-spacing: 0px; -webkit-text-stroke-width: 0px; text-decoration: none; float: none; display: inline !important;&quot;&gt;&lt;br&gt;&lt;/span&gt;&lt;/div&gt;" style="text;whiteSpace=wrap;html=1;fontFamily=Helvetica;fontSize=11;fontColor=default;labelBackgroundColor=none;align=center;container=0;" vertex="1" parent="1">
          <mxGeometry x="649.5" y="413" width="40" height="40" as="geometry" />
        </mxCell>
        <mxCell id="c5eu0mcJMc6bDwEQeXFq-1566" value="&lt;span style=&quot;caret-color: rgb(0, 0, 0); color: rgb(0, 0, 0); font-family: Verdana; font-size: 6px; font-style: normal; font-variant-caps: normal; font-weight: 400; letter-spacing: normal; text-indent: 0px; text-transform: none; white-space: normal; word-spacing: 0px; -webkit-text-stroke-width: 0px; text-decoration: none; float: none; display: inline !important;&quot;&gt;A9&lt;/span&gt;" style="text;whiteSpace=wrap;html=1;fontFamily=Helvetica;fontSize=11;fontColor=default;labelBackgroundColor=none;align=center;container=0;" vertex="1" parent="1">
          <mxGeometry x="649.5" y="374" width="40" height="40" as="geometry" />
        </mxCell>
        <mxCell id="c5eu0mcJMc6bDwEQeXFq-1567" value="&lt;span style=&quot;caret-color: rgb(0, 0, 0); color: rgb(0, 0, 0); font-family: Verdana; font-style: normal; font-variant-caps: normal; font-weight: 400; letter-spacing: normal; text-indent: 0px; text-transform: none; white-space: normal; word-spacing: 0px; -webkit-text-stroke-width: 0px; text-decoration: none; float: none; display: inline !important;&quot;&gt;&lt;font style=&quot;font-size: 6px;&quot;&gt;A8&lt;/font&gt;&lt;/span&gt;" style="text;whiteSpace=wrap;html=1;fontFamily=Helvetica;fontSize=11;fontColor=default;labelBackgroundColor=none;align=center;container=0;" vertex="1" parent="1">
          <mxGeometry x="649.5" y="383" width="40" height="40" as="geometry" />
        </mxCell>
        <mxCell id="c5eu0mcJMc6bDwEQeXFq-1568" value="&lt;span style=&quot;caret-color: rgb(0, 0, 0); color: rgb(0, 0, 0); font-family: Verdana; font-style: normal; font-variant-caps: normal; font-weight: 400; letter-spacing: normal; text-indent: 0px; text-transform: none; white-space: normal; word-spacing: 0px; -webkit-text-stroke-width: 0px; text-decoration: none; float: none; display: inline !important;&quot;&gt;&lt;font style=&quot;font-size: 6px;&quot;&gt;A7&lt;/font&gt;&lt;/span&gt;" style="text;whiteSpace=wrap;html=1;fontFamily=Helvetica;fontSize=11;fontColor=default;labelBackgroundColor=none;align=center;container=0;" vertex="1" parent="1">
          <mxGeometry x="649.5" y="393" width="40" height="40" as="geometry" />
        </mxCell>
        <mxCell id="c5eu0mcJMc6bDwEQeXFq-1569" value="&lt;span style=&quot;caret-color: rgb(0, 0, 0); color: rgb(0, 0, 0); font-family: Verdana; font-size: 6px; font-style: normal; font-variant-caps: normal; font-weight: 400; letter-spacing: normal; text-indent: 0px; text-transform: none; white-space: normal; word-spacing: 0px; -webkit-text-stroke-width: 0px; text-decoration: none; float: none; display: inline !important;&quot;&gt;A6&lt;/span&gt;" style="text;whiteSpace=wrap;html=1;fontFamily=Helvetica;fontSize=11;fontColor=default;labelBackgroundColor=none;align=center;container=0;" vertex="1" parent="1">
          <mxGeometry x="649.5" y="404" width="40" height="40" as="geometry" />
        </mxCell>
        <mxCell id="c5eu0mcJMc6bDwEQeXFq-1570" value="&lt;font style=&quot;font-size: 6px;&quot;&gt;A0&lt;/font&gt;" style="text;html=1;align=center;verticalAlign=middle;whiteSpace=wrap;rounded=0;fontFamily=Helvetica;fontSize=11;fontColor=default;labelBackgroundColor=none;container=0;" vertex="1" parent="1">
          <mxGeometry x="649.5" y="458" width="40" height="40" as="geometry" />
        </mxCell>
        <mxCell id="c5eu0mcJMc6bDwEQeXFq-1571" value="&lt;span style=&quot;caret-color: rgb(0, 0, 0); color: rgb(0, 0, 0); font-family: Verdana; font-style: normal; font-variant-caps: normal; font-weight: 400; letter-spacing: normal; text-indent: 0px; text-transform: none; white-space: normal; word-spacing: 0px; -webkit-text-stroke-width: 0px; text-decoration: none; float: none; display: inline !important;&quot;&gt;&lt;font style=&quot;font-size: 6px;&quot;&gt;A17&lt;/font&gt;&lt;/span&gt;" style="text;whiteSpace=wrap;html=1;fontFamily=Helvetica;fontSize=11;fontColor=default;labelBackgroundColor=none;align=center;container=0;" vertex="1" parent="1">
          <mxGeometry x="648.5" y="493" width="40" height="40" as="geometry" />
        </mxCell>
        <mxCell id="c5eu0mcJMc6bDwEQeXFq-1572" value="&lt;span style=&quot;caret-color: rgb(0, 0, 0); color: rgb(0, 0, 0); font-family: Verdana; font-style: normal; font-variant-caps: normal; font-weight: 400; letter-spacing: normal; text-indent: 0px; text-transform: none; white-space: normal; word-spacing: 0px; -webkit-text-stroke-width: 0px; text-decoration: none; float: none; display: inline !important;&quot;&gt;&lt;font style=&quot;font-size: 6px;&quot;&gt;A16&lt;/font&gt;&lt;/span&gt;" style="text;whiteSpace=wrap;html=1;fontFamily=Helvetica;fontSize=11;fontColor=default;labelBackgroundColor=none;align=center;container=0;" vertex="1" parent="1">
          <mxGeometry x="648.5" y="503" width="40" height="40" as="geometry" />
        </mxCell>
        <mxCell id="c5eu0mcJMc6bDwEQeXFq-1573" value="&lt;span style=&quot;caret-color: rgb(0, 0, 0); color: rgb(0, 0, 0); font-family: Verdana; font-style: normal; font-variant-caps: normal; font-weight: 400; letter-spacing: normal; text-indent: 0px; text-transform: none; white-space: normal; word-spacing: 0px; -webkit-text-stroke-width: 0px; text-decoration: none; float: none; display: inline !important;&quot;&gt;&lt;font style=&quot;font-size: 6px;&quot;&gt;A15&lt;/font&gt;&lt;/span&gt;" style="text;whiteSpace=wrap;html=1;fontFamily=Helvetica;fontSize=11;fontColor=default;labelBackgroundColor=none;align=center;container=0;" vertex="1" parent="1">
          <mxGeometry x="648.5" y="513" width="40" height="40" as="geometry" />
        </mxCell>
        <mxCell id="c5eu0mcJMc6bDwEQeXFq-1574" value="&lt;span style=&quot;caret-color: rgb(0, 0, 0); color: rgb(0, 0, 0); font-family: Verdana; font-style: normal; font-variant-caps: normal; font-weight: 400; letter-spacing: normal; text-indent: 0px; text-transform: none; white-space: normal; word-spacing: 0px; -webkit-text-stroke-width: 0px; text-decoration: none; float: none; display: inline !important;&quot;&gt;&lt;font style=&quot;font-size: 6px;&quot;&gt;A14&lt;/font&gt;&lt;/span&gt;&lt;div&gt;&lt;span style=&quot;caret-color: rgb(0, 0, 0); color: rgb(0, 0, 0); font-family: Verdana; font-style: normal; font-variant-caps: normal; font-weight: 400; letter-spacing: normal; text-indent: 0px; text-transform: none; white-space: normal; word-spacing: 0px; -webkit-text-stroke-width: 0px; text-decoration: none; float: none; display: inline !important;&quot;&gt;&lt;font style=&quot;font-size: 6px;&quot;&gt;&lt;br&gt;&lt;/font&gt;&lt;/span&gt;&lt;/div&gt;" style="text;whiteSpace=wrap;html=1;fontFamily=Helvetica;fontSize=11;fontColor=default;labelBackgroundColor=none;align=center;container=0;" vertex="1" parent="1">
          <mxGeometry x="648.5" y="523" width="40" height="40" as="geometry" />
        </mxCell>
        <mxCell id="c5eu0mcJMc6bDwEQeXFq-1575" value="&lt;span style=&quot;caret-color: rgb(0, 0, 0); color: rgb(0, 0, 0); font-family: Verdana; font-style: normal; font-variant-caps: normal; font-weight: 400; letter-spacing: normal; text-indent: 0px; text-transform: none; white-space: normal; word-spacing: 0px; -webkit-text-stroke-width: 0px; text-decoration: none; float: none; display: inline !important;&quot;&gt;&lt;font style=&quot;font-size: 6px;&quot;&gt;A13&lt;/font&gt;&lt;/span&gt;" style="text;whiteSpace=wrap;html=1;fontFamily=Helvetica;fontSize=11;fontColor=default;labelBackgroundColor=none;align=center;container=0;" vertex="1" parent="1">
          <mxGeometry x="624.5" y="523" width="40" height="40" as="geometry" />
        </mxCell>
        <mxCell id="c5eu0mcJMc6bDwEQeXFq-1576" value="&lt;span style=&quot;caret-color: rgb(0, 0, 0); color: rgb(0, 0, 0); font-family: Verdana; font-style: normal; font-variant-caps: normal; font-weight: 400; letter-spacing: normal; text-indent: 0px; text-transform: none; white-space: normal; word-spacing: 0px; -webkit-text-stroke-width: 0px; text-decoration: none; float: none; display: inline !important;&quot;&gt;&lt;font style=&quot;font-size: 6px;&quot;&gt;A12&lt;/font&gt;&lt;/span&gt;" style="text;whiteSpace=wrap;html=1;fontFamily=Helvetica;fontSize=11;fontColor=default;labelBackgroundColor=none;align=center;container=0;" vertex="1" parent="1">
          <mxGeometry x="624.5" y="513" width="40" height="40" as="geometry" />
        </mxCell>
        <mxCell id="c5eu0mcJMc6bDwEQeXFq-1577" value="&lt;span style=&quot;caret-color: rgb(0, 0, 0); color: rgb(0, 0, 0); font-family: Verdana; font-style: normal; font-variant-caps: normal; font-weight: 400; letter-spacing: normal; text-indent: 0px; text-transform: none; white-space: normal; word-spacing: 0px; -webkit-text-stroke-width: 0px; text-decoration: none; float: none; display: inline !important;&quot;&gt;&lt;font style=&quot;font-size: 6px;&quot;&gt;A11&lt;/font&gt;&lt;/span&gt;" style="text;whiteSpace=wrap;html=1;fontFamily=Helvetica;fontSize=11;fontColor=default;labelBackgroundColor=none;align=center;container=0;" vertex="1" parent="1">
          <mxGeometry x="624.5" y="503" width="40" height="40" as="geometry" />
        </mxCell>
        <mxCell id="c5eu0mcJMc6bDwEQeXFq-1578" value="&lt;span style=&quot;caret-color: rgb(0, 0, 0); color: rgb(0, 0, 0); font-family: Verdana; font-style: normal; font-variant-caps: normal; font-weight: 400; letter-spacing: normal; text-indent: 0px; text-transform: none; white-space: normal; word-spacing: 0px; -webkit-text-stroke-width: 0px; text-decoration: none; float: none; display: inline !important;&quot;&gt;&lt;font style=&quot;font-size: 6px;&quot;&gt;A10&lt;/font&gt;&lt;/span&gt;" style="text;whiteSpace=wrap;html=1;fontFamily=Helvetica;fontSize=11;fontColor=default;labelBackgroundColor=none;align=center;container=0;" vertex="1" parent="1">
          <mxGeometry x="624.5" y="493" width="40" height="40" as="geometry" />
        </mxCell>
        <mxCell id="c5eu0mcJMc6bDwEQeXFq-1579" value="&lt;span style=&quot;caret-color: rgb(0, 0, 0); color: rgb(0, 0, 0); font-family: Verdana; font-style: normal; font-variant-caps: normal; font-weight: 400; letter-spacing: normal; text-indent: 0px; text-transform: none; white-space: normal; word-spacing: 0px; -webkit-text-stroke-width: 0px; text-decoration: none; float: none; display: inline !important;&quot;&gt;&lt;font style=&quot;font-size: 6px;&quot;&gt;TX1&lt;/font&gt;&lt;/span&gt;" style="text;whiteSpace=wrap;html=1;fontFamily=Helvetica;fontSize=11;fontColor=default;labelBackgroundColor=none;align=center;container=0;" vertex="1" parent="1">
          <mxGeometry x="624.5" y="365" width="40" height="40" as="geometry" />
        </mxCell>
        <mxCell id="c5eu0mcJMc6bDwEQeXFq-1580" value="&lt;span style=&quot;caret-color: rgb(0, 0, 0); color: rgb(0, 0, 0); font-family: Verdana; font-style: normal; font-variant-caps: normal; font-weight: 400; letter-spacing: normal; text-indent: 0px; text-transform: none; white-space: normal; word-spacing: 0px; -webkit-text-stroke-width: 0px; text-decoration: none; float: none; display: inline !important;&quot;&gt;&lt;font style=&quot;font-size: 6px;&quot;&gt;RX1&lt;/font&gt;&lt;/span&gt;" style="text;whiteSpace=wrap;html=1;fontFamily=Helvetica;fontSize=11;fontColor=default;labelBackgroundColor=none;align=center;container=0;" vertex="1" parent="1">
          <mxGeometry x="624.5" y="354" width="40" height="40" as="geometry" />
        </mxCell>
        <mxCell id="c5eu0mcJMc6bDwEQeXFq-1409" value="" style="rounded=0;whiteSpace=wrap;html=1;rotation=90;fillColor=none;strokeColor=#0042aa;fontFamily=Helvetica;fontSize=11;fontColor=default;labelBackgroundColor=none;container=0;" vertex="1" parent="1">
          <mxGeometry x="500" y="464.5" width="251" height="20" as="geometry" />
        </mxCell>
        <mxCell id="c5eu0mcJMc6bDwEQeXFq-1410" value="" style="ellipse;whiteSpace=wrap;html=1;aspect=fixed;fillColor=none;strokeColor=#0042aa;fontFamily=Helvetica;fontSize=11;fontColor=default;labelBackgroundColor=none;container=0;" vertex="1" parent="1">
          <mxGeometry x="622.5" y="366.75" width="6" height="6" as="geometry" />
        </mxCell>
        <mxCell id="c5eu0mcJMc6bDwEQeXFq-1411" value="" style="whiteSpace=wrap;html=1;aspect=fixed;fillColor=none;strokeColor=#0042aa;fontFamily=Helvetica;fontSize=11;fontColor=default;labelBackgroundColor=none;container=0;" vertex="1" parent="1">
          <mxGeometry x="623" y="356.75" width="5" height="5" as="geometry" />
        </mxCell>
        <mxCell id="c5eu0mcJMc6bDwEQeXFq-1412" value="" style="ellipse;whiteSpace=wrap;html=1;aspect=fixed;fillColor=none;strokeColor=#0042aa;fontFamily=Helvetica;fontSize=11;fontColor=default;labelBackgroundColor=none;container=0;" vertex="1" parent="1">
          <mxGeometry x="622.5" y="377.75" width="6" height="6" as="geometry" />
        </mxCell>
        <mxCell id="c5eu0mcJMc6bDwEQeXFq-1413" value="" style="ellipse;whiteSpace=wrap;html=1;aspect=fixed;fillColor=none;strokeColor=#0042aa;fontFamily=Helvetica;fontSize=11;fontColor=default;labelBackgroundColor=none;container=0;" vertex="1" parent="1">
          <mxGeometry x="622.5" y="387.75" width="6" height="6" as="geometry" />
        </mxCell>
        <mxCell id="c5eu0mcJMc6bDwEQeXFq-1414" value="" style="ellipse;whiteSpace=wrap;html=1;aspect=fixed;fillColor=none;strokeColor=#0042aa;fontFamily=Helvetica;fontSize=11;fontColor=default;labelBackgroundColor=none;container=0;" vertex="1" parent="1">
          <mxGeometry x="622.5" y="397.75" width="6" height="6" as="geometry" />
        </mxCell>
        <mxCell id="c5eu0mcJMc6bDwEQeXFq-1415" value="" style="ellipse;whiteSpace=wrap;html=1;aspect=fixed;fillColor=none;strokeColor=#0042aa;fontFamily=Helvetica;fontSize=11;fontColor=default;labelBackgroundColor=none;container=0;" vertex="1" parent="1">
          <mxGeometry x="622.5" y="407.75" width="6" height="6" as="geometry" />
        </mxCell>
        <mxCell id="c5eu0mcJMc6bDwEQeXFq-1416" value="" style="ellipse;whiteSpace=wrap;html=1;aspect=fixed;fillColor=none;strokeColor=#0042aa;fontFamily=Helvetica;fontSize=11;fontColor=default;labelBackgroundColor=none;container=0;" vertex="1" parent="1">
          <mxGeometry x="622.5" y="417.75" width="6" height="6" as="geometry" />
        </mxCell>
        <mxCell id="c5eu0mcJMc6bDwEQeXFq-1417" value="" style="ellipse;whiteSpace=wrap;html=1;aspect=fixed;fillColor=none;strokeColor=#0042aa;fontFamily=Helvetica;fontSize=11;fontColor=default;labelBackgroundColor=none;container=0;" vertex="1" parent="1">
          <mxGeometry x="622.5" y="426.75" width="6" height="6" as="geometry" />
        </mxCell>
        <mxCell id="c5eu0mcJMc6bDwEQeXFq-1418" value="" style="ellipse;whiteSpace=wrap;html=1;aspect=fixed;fillColor=none;strokeColor=#0042aa;fontFamily=Helvetica;fontSize=11;fontColor=default;labelBackgroundColor=none;container=0;" vertex="1" parent="1">
          <mxGeometry x="622.5" y="436.75" width="6" height="6" as="geometry" />
        </mxCell>
        <mxCell id="c5eu0mcJMc6bDwEQeXFq-1419" value="" style="ellipse;whiteSpace=wrap;html=1;aspect=fixed;fillColor=none;strokeColor=#0042aa;fontFamily=Helvetica;fontSize=11;fontColor=default;labelBackgroundColor=none;container=0;" vertex="1" parent="1">
          <mxGeometry x="622.5" y="446.75" width="6" height="6" as="geometry" />
        </mxCell>
        <mxCell id="c5eu0mcJMc6bDwEQeXFq-1420" value="" style="ellipse;whiteSpace=wrap;html=1;aspect=fixed;fillColor=none;strokeColor=#0042aa;fontFamily=Helvetica;fontSize=11;fontColor=default;labelBackgroundColor=none;container=0;" vertex="1" parent="1">
          <mxGeometry x="622.5" y="456.75" width="6" height="6" as="geometry" />
        </mxCell>
        <mxCell id="c5eu0mcJMc6bDwEQeXFq-1421" value="" style="ellipse;whiteSpace=wrap;html=1;aspect=fixed;fillColor=none;strokeColor=#0042aa;fontFamily=Helvetica;fontSize=11;fontColor=default;labelBackgroundColor=none;container=0;" vertex="1" parent="1">
          <mxGeometry x="622.5" y="466.75" width="6" height="6" as="geometry" />
        </mxCell>
        <mxCell id="c5eu0mcJMc6bDwEQeXFq-1422" value="" style="ellipse;whiteSpace=wrap;html=1;aspect=fixed;fillColor=none;strokeColor=#0042aa;fontFamily=Helvetica;fontSize=11;fontColor=default;labelBackgroundColor=none;container=0;" vertex="1" parent="1">
          <mxGeometry x="622.5" y="476.75" width="6" height="6" as="geometry" />
        </mxCell>
        <mxCell id="c5eu0mcJMc6bDwEQeXFq-1423" value="" style="ellipse;whiteSpace=wrap;html=1;aspect=fixed;fillColor=none;strokeColor=#0042aa;fontFamily=Helvetica;fontSize=11;fontColor=default;labelBackgroundColor=none;container=0;" vertex="1" parent="1">
          <mxGeometry x="622.5" y="486.75" width="6" height="6" as="geometry" />
        </mxCell>
        <mxCell id="c5eu0mcJMc6bDwEQeXFq-1424" value="" style="ellipse;whiteSpace=wrap;html=1;aspect=fixed;fillColor=none;strokeColor=#0042aa;fontFamily=Helvetica;fontSize=11;fontColor=default;labelBackgroundColor=none;container=0;" vertex="1" parent="1">
          <mxGeometry x="622.5" y="496.75" width="6" height="6" as="geometry" />
        </mxCell>
        <mxCell id="c5eu0mcJMc6bDwEQeXFq-1425" value="" style="ellipse;whiteSpace=wrap;html=1;aspect=fixed;fillColor=none;strokeColor=#0042aa;fontFamily=Helvetica;fontSize=11;fontColor=default;labelBackgroundColor=none;container=0;" vertex="1" parent="1">
          <mxGeometry x="622.5" y="506.75" width="6" height="6" as="geometry" />
        </mxCell>
        <mxCell id="c5eu0mcJMc6bDwEQeXFq-1426" value="" style="ellipse;whiteSpace=wrap;html=1;aspect=fixed;fillColor=none;strokeColor=#0042aa;fontFamily=Helvetica;fontSize=11;fontColor=default;labelBackgroundColor=none;container=0;" vertex="1" parent="1">
          <mxGeometry x="622.5" y="516.75" width="6" height="6" as="geometry" />
        </mxCell>
        <mxCell id="c5eu0mcJMc6bDwEQeXFq-1427" value="" style="ellipse;whiteSpace=wrap;html=1;aspect=fixed;fillColor=none;strokeColor=#0042aa;fontFamily=Helvetica;fontSize=11;fontColor=default;labelBackgroundColor=none;container=0;" vertex="1" parent="1">
          <mxGeometry x="622.5" y="526.75" width="6" height="6" as="geometry" />
        </mxCell>
        <mxCell id="c5eu0mcJMc6bDwEQeXFq-1428" value="" style="ellipse;whiteSpace=wrap;html=1;aspect=fixed;fillColor=none;strokeColor=#0042aa;fontFamily=Helvetica;fontSize=11;fontColor=default;labelBackgroundColor=none;container=0;" vertex="1" parent="1">
          <mxGeometry x="622.5" y="536.75" width="6" height="6" as="geometry" />
        </mxCell>
        <mxCell id="c5eu0mcJMc6bDwEQeXFq-1429" value="" style="ellipse;whiteSpace=wrap;html=1;aspect=fixed;fillColor=none;strokeColor=#0042aa;fontFamily=Helvetica;fontSize=11;fontColor=default;labelBackgroundColor=none;container=0;" vertex="1" parent="1">
          <mxGeometry x="622.5" y="546.75" width="6" height="6" as="geometry" />
        </mxCell>
        <mxCell id="c5eu0mcJMc6bDwEQeXFq-1430" value="" style="ellipse;whiteSpace=wrap;html=1;aspect=fixed;fillColor=none;strokeColor=#0042aa;fontFamily=Helvetica;fontSize=11;fontColor=default;labelBackgroundColor=none;container=0;" vertex="1" parent="1">
          <mxGeometry x="622.5" y="556.75" width="6" height="6" as="geometry" />
        </mxCell>
        <mxCell id="c5eu0mcJMc6bDwEQeXFq-1431" value="" style="ellipse;whiteSpace=wrap;html=1;aspect=fixed;fillColor=none;strokeColor=#0042aa;fontFamily=Helvetica;fontSize=11;fontColor=default;labelBackgroundColor=none;container=0;" vertex="1" parent="1">
          <mxGeometry x="622.5" y="566.75" width="6" height="6" as="geometry" />
        </mxCell>
        <mxCell id="c5eu0mcJMc6bDwEQeXFq-1432" value="" style="ellipse;whiteSpace=wrap;html=1;aspect=fixed;fillColor=none;strokeColor=#0042aa;fontFamily=Helvetica;fontSize=11;fontColor=default;labelBackgroundColor=none;container=0;" vertex="1" parent="1">
          <mxGeometry x="622.5" y="576.75" width="6" height="6" as="geometry" />
        </mxCell>
        <mxCell id="c5eu0mcJMc6bDwEQeXFq-1433" value="" style="ellipse;whiteSpace=wrap;html=1;aspect=fixed;fillColor=none;strokeColor=#0042aa;fontFamily=Helvetica;fontSize=11;fontColor=default;labelBackgroundColor=none;container=0;" vertex="1" parent="1">
          <mxGeometry x="622.5" y="586.75" width="6" height="6" as="geometry" />
        </mxCell>
        <mxCell id="c5eu0mcJMc6bDwEQeXFq-1435" value="" style="rounded=0;whiteSpace=wrap;html=1;rotation=90;fillColor=none;strokeColor=#0042aa;fontFamily=Helvetica;fontSize=11;fontColor=default;labelBackgroundColor=none;container=0;" vertex="1" parent="1">
          <mxGeometry x="500" y="464.5" width="251" height="20" as="geometry" />
        </mxCell>
        <mxCell id="c5eu0mcJMc6bDwEQeXFq-1436" style="rounded=0;orthogonalLoop=1;jettySize=auto;html=1;exitX=0;exitY=0.5;exitDx=0;exitDy=0;endArrow=none;endFill=0;strokeColor=default;align=center;verticalAlign=middle;fontFamily=Helvetica;fontSize=11;fontColor=default;labelBackgroundColor=none;edgeStyle=orthogonalEdgeStyle;strokeWidth=1.5;" edge="1" parent="1" source="c5eu0mcJMc6bDwEQeXFq-1437">
          <mxGeometry relative="1" as="geometry">
            <mxPoint x="470" y="389" as="targetPoint" />
          </mxGeometry>
        </mxCell>
        <mxCell id="c5eu0mcJMc6bDwEQeXFq-1437" value="" style="ellipse;whiteSpace=wrap;html=1;aspect=fixed;fillColor=none;strokeColor=#0042aa;fontFamily=Helvetica;fontSize=11;fontColor=default;labelBackgroundColor=none;container=0;" vertex="1" parent="1">
          <mxGeometry x="622.5" y="366.75" width="6" height="6" as="geometry" />
        </mxCell>
        <mxCell id="c5eu0mcJMc6bDwEQeXFq-1438" style="rounded=0;orthogonalLoop=1;jettySize=auto;html=1;exitX=0;exitY=0.5;exitDx=0;exitDy=0;edgeStyle=orthogonalEdgeStyle;strokeColor=default;align=center;verticalAlign=middle;fontFamily=Helvetica;fontSize=11;fontColor=default;labelBackgroundColor=none;endArrow=none;endFill=0;" edge="1" parent="1" source="c5eu0mcJMc6bDwEQeXFq-1440">
          <mxGeometry relative="1" as="geometry">
            <mxPoint x="623.02" y="359.71999999999997" as="targetPoint" />
          </mxGeometry>
        </mxCell>
        <mxCell id="c5eu0mcJMc6bDwEQeXFq-1440" value="" style="whiteSpace=wrap;html=1;aspect=fixed;fillColor=none;strokeColor=#0042aa;fontFamily=Helvetica;fontSize=11;fontColor=default;labelBackgroundColor=none;container=0;" vertex="1" parent="1">
          <mxGeometry x="623" y="356.75" width="5" height="5" as="geometry" />
        </mxCell>
        <mxCell id="c5eu0mcJMc6bDwEQeXFq-1441" style="edgeStyle=orthogonalEdgeStyle;rounded=0;orthogonalLoop=1;jettySize=auto;html=1;exitX=0;exitY=0.5;exitDx=0;exitDy=0;endArrow=none;endFill=0;strokeColor=default;align=center;verticalAlign=middle;fontFamily=Helvetica;fontSize=11;fontColor=default;labelBackgroundColor=none;strokeWidth=1.5;" edge="1" parent="1" source="c5eu0mcJMc6bDwEQeXFq-1442">
          <mxGeometry relative="1" as="geometry">
            <mxPoint x="540" y="381" as="targetPoint" />
          </mxGeometry>
        </mxCell>
        <mxCell id="c5eu0mcJMc6bDwEQeXFq-1442" value="" style="ellipse;whiteSpace=wrap;html=1;aspect=fixed;fillColor=none;strokeColor=#0042aa;fontFamily=Helvetica;fontSize=11;fontColor=default;labelBackgroundColor=none;container=0;" vertex="1" parent="1">
          <mxGeometry x="622.5" y="377.75" width="6" height="6" as="geometry" />
        </mxCell>
        <mxCell id="c5eu0mcJMc6bDwEQeXFq-1444" value="" style="ellipse;whiteSpace=wrap;html=1;aspect=fixed;fillColor=none;strokeColor=#0042aa;fontFamily=Helvetica;fontSize=11;fontColor=default;labelBackgroundColor=none;container=0;" vertex="1" parent="1">
          <mxGeometry x="622.5" y="387.75" width="6" height="6" as="geometry" />
        </mxCell>
        <mxCell id="c5eu0mcJMc6bDwEQeXFq-1446" value="" style="ellipse;whiteSpace=wrap;html=1;aspect=fixed;fillColor=none;strokeColor=#0042aa;fontFamily=Helvetica;fontSize=11;fontColor=default;labelBackgroundColor=none;container=0;" vertex="1" parent="1">
          <mxGeometry x="622.5" y="397.75" width="6" height="6" as="geometry" />
        </mxCell>
        <mxCell id="c5eu0mcJMc6bDwEQeXFq-1448" value="" style="ellipse;whiteSpace=wrap;html=1;aspect=fixed;fillColor=none;strokeColor=#0042aa;fontFamily=Helvetica;fontSize=11;fontColor=default;labelBackgroundColor=none;container=0;" vertex="1" parent="1">
          <mxGeometry x="622.5" y="407.75" width="6" height="6" as="geometry" />
        </mxCell>
        <mxCell id="c5eu0mcJMc6bDwEQeXFq-1450" value="" style="ellipse;whiteSpace=wrap;html=1;aspect=fixed;fillColor=none;strokeColor=#0042aa;fontFamily=Helvetica;fontSize=11;fontColor=default;labelBackgroundColor=none;container=0;" vertex="1" parent="1">
          <mxGeometry x="622.5" y="417.75" width="6" height="6" as="geometry" />
        </mxCell>
        <mxCell id="c5eu0mcJMc6bDwEQeXFq-1452" value="" style="ellipse;whiteSpace=wrap;html=1;aspect=fixed;fillColor=none;strokeColor=#0042aa;fontFamily=Helvetica;fontSize=11;fontColor=default;labelBackgroundColor=none;container=0;" vertex="1" parent="1">
          <mxGeometry x="622.5" y="426.75" width="6" height="6" as="geometry" />
        </mxCell>
        <mxCell id="c5eu0mcJMc6bDwEQeXFq-1454" value="" style="ellipse;whiteSpace=wrap;html=1;aspect=fixed;fillColor=none;strokeColor=#0042aa;fontFamily=Helvetica;fontSize=11;fontColor=default;labelBackgroundColor=none;container=0;" vertex="1" parent="1">
          <mxGeometry x="622.5" y="436.75" width="6" height="6" as="geometry" />
        </mxCell>
        <mxCell id="c5eu0mcJMc6bDwEQeXFq-1456" value="" style="ellipse;whiteSpace=wrap;html=1;aspect=fixed;fillColor=none;strokeColor=#0042aa;fontFamily=Helvetica;fontSize=11;fontColor=default;labelBackgroundColor=none;container=0;" vertex="1" parent="1">
          <mxGeometry x="622.5" y="446.75" width="6" height="6" as="geometry" />
        </mxCell>
        <mxCell id="c5eu0mcJMc6bDwEQeXFq-1458" value="" style="ellipse;whiteSpace=wrap;html=1;aspect=fixed;fillColor=none;strokeColor=#0042aa;fontFamily=Helvetica;fontSize=11;fontColor=default;labelBackgroundColor=none;container=0;" vertex="1" parent="1">
          <mxGeometry x="622.5" y="456.75" width="6" height="6" as="geometry" />
        </mxCell>
        <mxCell id="c5eu0mcJMc6bDwEQeXFq-1460" value="" style="ellipse;whiteSpace=wrap;html=1;aspect=fixed;fillColor=none;strokeColor=#0042aa;fontFamily=Helvetica;fontSize=11;fontColor=default;labelBackgroundColor=none;container=0;" vertex="1" parent="1">
          <mxGeometry x="622.5" y="466.75" width="6" height="6" as="geometry" />
        </mxCell>
        <mxCell id="c5eu0mcJMc6bDwEQeXFq-1462" value="" style="ellipse;whiteSpace=wrap;html=1;aspect=fixed;fillColor=none;strokeColor=#0042aa;fontFamily=Helvetica;fontSize=11;fontColor=default;labelBackgroundColor=none;container=0;" vertex="1" parent="1">
          <mxGeometry x="622.5" y="476.75" width="6" height="6" as="geometry" />
        </mxCell>
        <mxCell id="c5eu0mcJMc6bDwEQeXFq-1464" value="" style="ellipse;whiteSpace=wrap;html=1;aspect=fixed;fillColor=none;strokeColor=#0042aa;fontFamily=Helvetica;fontSize=11;fontColor=default;labelBackgroundColor=none;container=0;" vertex="1" parent="1">
          <mxGeometry x="622.5" y="486.75" width="6" height="6" as="geometry" />
        </mxCell>
        <mxCell id="c5eu0mcJMc6bDwEQeXFq-1466" value="" style="ellipse;whiteSpace=wrap;html=1;aspect=fixed;fillColor=none;strokeColor=#0042aa;fontFamily=Helvetica;fontSize=11;fontColor=default;labelBackgroundColor=none;container=0;" vertex="1" parent="1">
          <mxGeometry x="622.5" y="496.75" width="6" height="6" as="geometry" />
        </mxCell>
        <mxCell id="c5eu0mcJMc6bDwEQeXFq-1468" value="" style="ellipse;whiteSpace=wrap;html=1;aspect=fixed;fillColor=none;strokeColor=#0042aa;fontFamily=Helvetica;fontSize=11;fontColor=default;labelBackgroundColor=none;container=0;" vertex="1" parent="1">
          <mxGeometry x="622.5" y="506.75" width="6" height="6" as="geometry" />
        </mxCell>
        <mxCell id="c5eu0mcJMc6bDwEQeXFq-1470" value="" style="ellipse;whiteSpace=wrap;html=1;aspect=fixed;fillColor=none;strokeColor=#0042aa;fontFamily=Helvetica;fontSize=11;fontColor=default;labelBackgroundColor=none;container=0;" vertex="1" parent="1">
          <mxGeometry x="622.5" y="516.75" width="6" height="6" as="geometry" />
        </mxCell>
        <mxCell id="c5eu0mcJMc6bDwEQeXFq-1472" value="" style="ellipse;whiteSpace=wrap;html=1;aspect=fixed;fillColor=none;strokeColor=#0042aa;fontFamily=Helvetica;fontSize=11;fontColor=default;labelBackgroundColor=none;container=0;" vertex="1" parent="1">
          <mxGeometry x="622.5" y="526.75" width="6" height="6" as="geometry" />
        </mxCell>
        <mxCell id="c5eu0mcJMc6bDwEQeXFq-1474" value="" style="ellipse;whiteSpace=wrap;html=1;aspect=fixed;fillColor=none;strokeColor=#0042aa;fontFamily=Helvetica;fontSize=11;fontColor=default;labelBackgroundColor=none;container=0;" vertex="1" parent="1">
          <mxGeometry x="622.5" y="536.75" width="6" height="6" as="geometry" />
        </mxCell>
        <mxCell id="c5eu0mcJMc6bDwEQeXFq-1476" value="" style="ellipse;whiteSpace=wrap;html=1;aspect=fixed;fillColor=none;strokeColor=#0042aa;fontFamily=Helvetica;fontSize=11;fontColor=default;labelBackgroundColor=none;container=0;" vertex="1" parent="1">
          <mxGeometry x="622.5" y="546.75" width="6" height="6" as="geometry" />
        </mxCell>
        <mxCell id="c5eu0mcJMc6bDwEQeXFq-1478" value="" style="ellipse;whiteSpace=wrap;html=1;aspect=fixed;fillColor=none;strokeColor=#0042aa;fontFamily=Helvetica;fontSize=11;fontColor=default;labelBackgroundColor=none;container=0;" vertex="1" parent="1">
          <mxGeometry x="622.5" y="556.75" width="6" height="6" as="geometry" />
        </mxCell>
        <mxCell id="c5eu0mcJMc6bDwEQeXFq-1480" value="" style="ellipse;whiteSpace=wrap;html=1;aspect=fixed;fillColor=none;strokeColor=#0042aa;fontFamily=Helvetica;fontSize=11;fontColor=default;labelBackgroundColor=none;container=0;" vertex="1" parent="1">
          <mxGeometry x="622.5" y="566.75" width="6" height="6" as="geometry" />
        </mxCell>
        <mxCell id="c5eu0mcJMc6bDwEQeXFq-1482" value="" style="ellipse;whiteSpace=wrap;html=1;aspect=fixed;fillColor=none;strokeColor=#0042aa;fontFamily=Helvetica;fontSize=11;fontColor=default;labelBackgroundColor=none;container=0;" vertex="1" parent="1">
          <mxGeometry x="622.5" y="576.75" width="6" height="6" as="geometry" />
        </mxCell>
        <mxCell id="c5eu0mcJMc6bDwEQeXFq-1484" value="" style="ellipse;whiteSpace=wrap;html=1;aspect=fixed;fillColor=none;strokeColor=#0042aa;fontFamily=Helvetica;fontSize=11;fontColor=default;labelBackgroundColor=none;container=0;" vertex="1" parent="1">
          <mxGeometry x="622.5" y="586.75" width="6" height="6" as="geometry" />
        </mxCell>
        <mxCell id="c5eu0mcJMc6bDwEQeXFq-1487" value="" style="rounded=0;whiteSpace=wrap;html=1;rotation=-90;fillColor=none;strokeColor=#0042aa;fontFamily=Helvetica;fontSize=11;fontColor=default;labelBackgroundColor=none;container=0;" vertex="1" parent="1">
          <mxGeometry x="560.5" y="465" width="251" height="20" as="geometry" />
        </mxCell>
        <mxCell id="c5eu0mcJMc6bDwEQeXFq-1488" value="" style="ellipse;whiteSpace=wrap;html=1;aspect=fixed;fillColor=none;strokeColor=#0042aa;rotation=-180;fontFamily=Helvetica;fontSize=11;fontColor=default;labelBackgroundColor=none;container=0;" vertex="1" parent="1">
          <mxGeometry x="682.5" y="576" width="6" height="6" as="geometry" />
        </mxCell>
        <mxCell id="c5eu0mcJMc6bDwEQeXFq-1489" value="" style="ellipse;whiteSpace=wrap;html=1;aspect=fixed;fillColor=none;strokeColor=#0042aa;rotation=-180;fontFamily=Helvetica;fontSize=11;fontColor=default;labelBackgroundColor=none;container=0;" vertex="1" parent="1">
          <mxGeometry x="682.5" y="565" width="6" height="6" as="geometry" />
        </mxCell>
        <mxCell id="c5eu0mcJMc6bDwEQeXFq-1490" value="" style="ellipse;whiteSpace=wrap;html=1;aspect=fixed;fillColor=none;strokeColor=#0042aa;rotation=-180;fontFamily=Helvetica;fontSize=11;fontColor=default;labelBackgroundColor=none;container=0;" vertex="1" parent="1">
          <mxGeometry x="682.5" y="555" width="6" height="6" as="geometry" />
        </mxCell>
        <mxCell id="c5eu0mcJMc6bDwEQeXFq-1491" value="" style="ellipse;whiteSpace=wrap;html=1;aspect=fixed;fillColor=none;strokeColor=#0042aa;rotation=-180;fontFamily=Helvetica;fontSize=11;fontColor=default;labelBackgroundColor=none;container=0;" vertex="1" parent="1">
          <mxGeometry x="682.5" y="545" width="6" height="6" as="geometry" />
        </mxCell>
        <mxCell id="c5eu0mcJMc6bDwEQeXFq-1492" value="" style="ellipse;whiteSpace=wrap;html=1;aspect=fixed;fillColor=none;strokeColor=#0042aa;rotation=-180;fontFamily=Helvetica;fontSize=11;fontColor=default;labelBackgroundColor=none;container=0;" vertex="1" parent="1">
          <mxGeometry x="682.5" y="535" width="6" height="6" as="geometry" />
        </mxCell>
        <mxCell id="c5eu0mcJMc6bDwEQeXFq-1493" value="" style="ellipse;whiteSpace=wrap;html=1;aspect=fixed;fillColor=none;strokeColor=#0042aa;rotation=-180;fontFamily=Helvetica;fontSize=11;fontColor=default;labelBackgroundColor=none;container=0;" vertex="1" parent="1">
          <mxGeometry x="682.5" y="525" width="6" height="6" as="geometry" />
        </mxCell>
        <mxCell id="c5eu0mcJMc6bDwEQeXFq-1494" value="" style="ellipse;whiteSpace=wrap;html=1;aspect=fixed;fillColor=none;strokeColor=#0042aa;rotation=-180;fontFamily=Helvetica;fontSize=11;fontColor=default;labelBackgroundColor=none;container=0;" vertex="1" parent="1">
          <mxGeometry x="682.5" y="516" width="6" height="6" as="geometry" />
        </mxCell>
        <mxCell id="c5eu0mcJMc6bDwEQeXFq-1495" value="" style="ellipse;whiteSpace=wrap;html=1;aspect=fixed;fillColor=none;strokeColor=#0042aa;rotation=-180;fontFamily=Helvetica;fontSize=11;fontColor=default;labelBackgroundColor=none;container=0;" vertex="1" parent="1">
          <mxGeometry x="682.5" y="506" width="6" height="6" as="geometry" />
        </mxCell>
        <mxCell id="c5eu0mcJMc6bDwEQeXFq-1496" value="" style="ellipse;whiteSpace=wrap;html=1;aspect=fixed;fillColor=none;strokeColor=#0042aa;rotation=-180;fontFamily=Helvetica;fontSize=11;fontColor=default;labelBackgroundColor=none;container=0;" vertex="1" parent="1">
          <mxGeometry x="682.5" y="496" width="6" height="6" as="geometry" />
        </mxCell>
        <mxCell id="c5eu0mcJMc6bDwEQeXFq-1497" value="" style="ellipse;whiteSpace=wrap;html=1;aspect=fixed;fillColor=none;strokeColor=#0042aa;rotation=-180;fontFamily=Helvetica;fontSize=11;fontColor=default;labelBackgroundColor=none;container=0;" vertex="1" parent="1">
          <mxGeometry x="682.5" y="486" width="6" height="6" as="geometry" />
        </mxCell>
        <mxCell id="c5eu0mcJMc6bDwEQeXFq-1498" value="" style="ellipse;whiteSpace=wrap;html=1;aspect=fixed;fillColor=none;strokeColor=#0042aa;rotation=-180;fontFamily=Helvetica;fontSize=11;fontColor=default;labelBackgroundColor=none;container=0;" vertex="1" parent="1">
          <mxGeometry x="682.5" y="476" width="6" height="6" as="geometry" />
        </mxCell>
        <mxCell id="c5eu0mcJMc6bDwEQeXFq-1499" value="" style="ellipse;whiteSpace=wrap;html=1;aspect=fixed;fillColor=none;strokeColor=#0042aa;rotation=-180;fontFamily=Helvetica;fontSize=11;fontColor=default;labelBackgroundColor=none;container=0;" vertex="1" parent="1">
          <mxGeometry x="682.5" y="466" width="6" height="6" as="geometry" />
        </mxCell>
        <mxCell id="c5eu0mcJMc6bDwEQeXFq-1500" value="" style="ellipse;whiteSpace=wrap;html=1;aspect=fixed;fillColor=none;strokeColor=#0042aa;rotation=-180;fontFamily=Helvetica;fontSize=11;fontColor=default;labelBackgroundColor=none;container=0;" vertex="1" parent="1">
          <mxGeometry x="682.5" y="456" width="6" height="6" as="geometry" />
        </mxCell>
        <mxCell id="c5eu0mcJMc6bDwEQeXFq-1501" value="" style="ellipse;whiteSpace=wrap;html=1;aspect=fixed;fillColor=none;strokeColor=#0042aa;rotation=-180;fontFamily=Helvetica;fontSize=11;fontColor=default;labelBackgroundColor=none;container=0;" vertex="1" parent="1">
          <mxGeometry x="682.5" y="446" width="6" height="6" as="geometry" />
        </mxCell>
        <mxCell id="c5eu0mcJMc6bDwEQeXFq-1502" value="" style="ellipse;whiteSpace=wrap;html=1;aspect=fixed;fillColor=none;strokeColor=#0042aa;rotation=-180;fontFamily=Helvetica;fontSize=11;fontColor=default;labelBackgroundColor=none;container=0;" vertex="1" parent="1">
          <mxGeometry x="682.5" y="436" width="6" height="6" as="geometry" />
        </mxCell>
        <mxCell id="c5eu0mcJMc6bDwEQeXFq-1503" value="" style="ellipse;whiteSpace=wrap;html=1;aspect=fixed;fillColor=none;strokeColor=#0042aa;rotation=-180;fontFamily=Helvetica;fontSize=11;fontColor=default;labelBackgroundColor=none;container=0;" vertex="1" parent="1">
          <mxGeometry x="682.5" y="426" width="6" height="6" as="geometry" />
        </mxCell>
        <mxCell id="c5eu0mcJMc6bDwEQeXFq-1504" value="" style="ellipse;whiteSpace=wrap;html=1;aspect=fixed;fillColor=none;strokeColor=#0042aa;rotation=-180;fontFamily=Helvetica;fontSize=11;fontColor=default;labelBackgroundColor=none;container=0;" vertex="1" parent="1">
          <mxGeometry x="682.5" y="416" width="6" height="6" as="geometry" />
        </mxCell>
        <mxCell id="c5eu0mcJMc6bDwEQeXFq-1505" value="" style="ellipse;whiteSpace=wrap;html=1;aspect=fixed;fillColor=none;strokeColor=#0042aa;rotation=-180;fontFamily=Helvetica;fontSize=11;fontColor=default;labelBackgroundColor=none;container=0;" vertex="1" parent="1">
          <mxGeometry x="682.5" y="406" width="6" height="6" as="geometry" />
        </mxCell>
        <mxCell id="c5eu0mcJMc6bDwEQeXFq-1506" value="" style="ellipse;whiteSpace=wrap;html=1;aspect=fixed;fillColor=none;strokeColor=#0042aa;rotation=-180;fontFamily=Helvetica;fontSize=11;fontColor=default;labelBackgroundColor=none;container=0;" vertex="1" parent="1">
          <mxGeometry x="682.5" y="396" width="6" height="6" as="geometry" />
        </mxCell>
        <mxCell id="c5eu0mcJMc6bDwEQeXFq-1507" value="" style="ellipse;whiteSpace=wrap;html=1;aspect=fixed;fillColor=none;strokeColor=#0042aa;rotation=-180;fontFamily=Helvetica;fontSize=11;fontColor=default;labelBackgroundColor=none;container=0;" vertex="1" parent="1">
          <mxGeometry x="682.5" y="386" width="6" height="6" as="geometry" />
        </mxCell>
        <mxCell id="c5eu0mcJMc6bDwEQeXFq-1508" value="" style="ellipse;whiteSpace=wrap;html=1;aspect=fixed;fillColor=none;strokeColor=#0042aa;rotation=-180;fontFamily=Helvetica;fontSize=11;fontColor=default;labelBackgroundColor=none;container=0;" vertex="1" parent="1">
          <mxGeometry x="682.5" y="376" width="6" height="6" as="geometry" />
        </mxCell>
        <mxCell id="c5eu0mcJMc6bDwEQeXFq-1509" value="" style="ellipse;whiteSpace=wrap;html=1;aspect=fixed;fillColor=none;strokeColor=#0042aa;rotation=-180;fontFamily=Helvetica;fontSize=11;fontColor=default;labelBackgroundColor=none;container=0;" vertex="1" parent="1">
          <mxGeometry x="682.5" y="366" width="6" height="6" as="geometry" />
        </mxCell>
        <mxCell id="c5eu0mcJMc6bDwEQeXFq-1511" value="" style="rounded=0;whiteSpace=wrap;html=1;rotation=-90;fillColor=none;strokeColor=#0042aa;fontFamily=Helvetica;fontSize=11;fontColor=default;labelBackgroundColor=none;container=0;" vertex="1" parent="1">
          <mxGeometry x="560.5" y="465" width="251" height="20" as="geometry" />
        </mxCell>
        <mxCell id="c5eu0mcJMc6bDwEQeXFq-1513" value="" style="ellipse;whiteSpace=wrap;html=1;aspect=fixed;fillColor=none;strokeColor=#0042aa;rotation=-180;fontFamily=Helvetica;fontSize=11;fontColor=default;labelBackgroundColor=none;container=0;" vertex="1" parent="1">
          <mxGeometry x="682.5" y="576" width="6" height="6" as="geometry" />
        </mxCell>
        <mxCell id="c5eu0mcJMc6bDwEQeXFq-1515" value="" style="ellipse;whiteSpace=wrap;html=1;aspect=fixed;fillColor=none;strokeColor=#0042aa;rotation=-180;fontFamily=Helvetica;fontSize=11;fontColor=default;labelBackgroundColor=none;container=0;" vertex="1" parent="1">
          <mxGeometry x="682.5" y="565" width="6" height="6" as="geometry" />
        </mxCell>
        <mxCell id="c5eu0mcJMc6bDwEQeXFq-1517" value="" style="ellipse;whiteSpace=wrap;html=1;aspect=fixed;fillColor=none;strokeColor=#0042aa;rotation=-180;fontFamily=Helvetica;fontSize=11;fontColor=default;labelBackgroundColor=none;container=0;" vertex="1" parent="1">
          <mxGeometry x="682.5" y="555" width="6" height="6" as="geometry" />
        </mxCell>
        <mxCell id="c5eu0mcJMc6bDwEQeXFq-1519" value="" style="ellipse;whiteSpace=wrap;html=1;aspect=fixed;fillColor=none;strokeColor=#0042aa;rotation=-180;fontFamily=Helvetica;fontSize=11;fontColor=default;labelBackgroundColor=none;container=0;" vertex="1" parent="1">
          <mxGeometry x="682.5" y="545" width="6" height="6" as="geometry" />
        </mxCell>
        <mxCell id="c5eu0mcJMc6bDwEQeXFq-1521" value="" style="ellipse;whiteSpace=wrap;html=1;aspect=fixed;fillColor=none;strokeColor=#0042aa;rotation=-180;fontFamily=Helvetica;fontSize=11;fontColor=default;labelBackgroundColor=none;container=0;" vertex="1" parent="1">
          <mxGeometry x="682.5" y="535" width="6" height="6" as="geometry" />
        </mxCell>
        <mxCell id="c5eu0mcJMc6bDwEQeXFq-1523" value="" style="ellipse;whiteSpace=wrap;html=1;aspect=fixed;fillColor=none;strokeColor=#0042aa;rotation=-180;fontFamily=Helvetica;fontSize=11;fontColor=default;labelBackgroundColor=none;container=0;" vertex="1" parent="1">
          <mxGeometry x="682.5" y="525" width="6" height="6" as="geometry" />
        </mxCell>
        <mxCell id="c5eu0mcJMc6bDwEQeXFq-1525" value="" style="ellipse;whiteSpace=wrap;html=1;aspect=fixed;fillColor=none;strokeColor=#0042aa;rotation=-180;fontFamily=Helvetica;fontSize=11;fontColor=default;labelBackgroundColor=none;container=0;" vertex="1" parent="1">
          <mxGeometry x="682.5" y="516" width="6" height="6" as="geometry" />
        </mxCell>
        <mxCell id="c5eu0mcJMc6bDwEQeXFq-1527" value="" style="ellipse;whiteSpace=wrap;html=1;aspect=fixed;fillColor=none;strokeColor=#0042aa;rotation=-180;fontFamily=Helvetica;fontSize=11;fontColor=default;labelBackgroundColor=none;container=0;" vertex="1" parent="1">
          <mxGeometry x="682.5" y="506" width="6" height="6" as="geometry" />
        </mxCell>
        <mxCell id="c5eu0mcJMc6bDwEQeXFq-1529" value="" style="ellipse;whiteSpace=wrap;html=1;aspect=fixed;fillColor=none;strokeColor=#0042aa;rotation=-180;fontFamily=Helvetica;fontSize=11;fontColor=default;labelBackgroundColor=none;container=0;" vertex="1" parent="1">
          <mxGeometry x="682.5" y="496" width="6" height="6" as="geometry" />
        </mxCell>
        <mxCell id="c5eu0mcJMc6bDwEQeXFq-1531" value="" style="ellipse;whiteSpace=wrap;html=1;aspect=fixed;fillColor=none;strokeColor=#0042aa;rotation=-180;fontFamily=Helvetica;fontSize=11;fontColor=default;labelBackgroundColor=none;container=0;" vertex="1" parent="1">
          <mxGeometry x="682.5" y="486" width="6" height="6" as="geometry" />
        </mxCell>
        <mxCell id="c5eu0mcJMc6bDwEQeXFq-1533" value="" style="ellipse;whiteSpace=wrap;html=1;aspect=fixed;fillColor=none;strokeColor=#0042aa;rotation=-180;fontFamily=Helvetica;fontSize=11;fontColor=default;labelBackgroundColor=none;container=0;" vertex="1" parent="1">
          <mxGeometry x="682.5" y="476" width="6" height="6" as="geometry" />
        </mxCell>
        <mxCell id="c5eu0mcJMc6bDwEQeXFq-1535" value="" style="ellipse;whiteSpace=wrap;html=1;aspect=fixed;fillColor=none;strokeColor=#0042aa;rotation=-180;fontFamily=Helvetica;fontSize=11;fontColor=default;labelBackgroundColor=none;container=0;" vertex="1" parent="1">
          <mxGeometry x="682.5" y="466" width="6" height="6" as="geometry" />
        </mxCell>
        <mxCell id="c5eu0mcJMc6bDwEQeXFq-1537" value="" style="ellipse;whiteSpace=wrap;html=1;aspect=fixed;fillColor=none;strokeColor=#0042aa;rotation=-180;fontFamily=Helvetica;fontSize=11;fontColor=default;labelBackgroundColor=none;container=0;" vertex="1" parent="1">
          <mxGeometry x="682.5" y="456" width="6" height="6" as="geometry" />
        </mxCell>
        <mxCell id="c5eu0mcJMc6bDwEQeXFq-1539" value="" style="ellipse;whiteSpace=wrap;html=1;aspect=fixed;fillColor=none;strokeColor=#0042aa;rotation=-180;fontFamily=Helvetica;fontSize=11;fontColor=default;labelBackgroundColor=none;container=0;" vertex="1" parent="1">
          <mxGeometry x="682.5" y="446" width="6" height="6" as="geometry" />
        </mxCell>
        <mxCell id="c5eu0mcJMc6bDwEQeXFq-1540" style="rounded=0;orthogonalLoop=1;jettySize=auto;html=1;exitX=0;exitY=0.5;exitDx=0;exitDy=0;endArrow=oval;endFill=1;strokeColor=default;align=center;verticalAlign=middle;fontFamily=Helvetica;fontSize=11;fontColor=default;labelBackgroundColor=none;startSize=4;endSize=3;edgeStyle=orthogonalEdgeStyle;" edge="1" parent="1" source="c5eu0mcJMc6bDwEQeXFq-1541">
          <mxGeometry relative="1" as="geometry">
            <mxPoint x="950" y="166" as="targetPoint" />
            <Array as="points">
              <mxPoint x="950" y="439" />
              <mxPoint x="950" y="169" />
            </Array>
          </mxGeometry>
        </mxCell>
        <mxCell id="c5eu0mcJMc6bDwEQeXFq-1541" value="" style="ellipse;whiteSpace=wrap;html=1;aspect=fixed;fillColor=none;strokeColor=#0042aa;rotation=-180;fontFamily=Helvetica;fontSize=11;fontColor=default;labelBackgroundColor=none;container=0;" vertex="1" parent="1">
          <mxGeometry x="682.5" y="436" width="6" height="6" as="geometry" />
        </mxCell>
        <mxCell id="c5eu0mcJMc6bDwEQeXFq-1543" value="" style="ellipse;whiteSpace=wrap;html=1;aspect=fixed;fillColor=none;strokeColor=#0042aa;rotation=-180;fontFamily=Helvetica;fontSize=11;fontColor=default;labelBackgroundColor=none;container=0;" vertex="1" parent="1">
          <mxGeometry x="682.5" y="426" width="6" height="6" as="geometry" />
        </mxCell>
        <mxCell id="c5eu0mcJMc6bDwEQeXFq-1545" value="" style="ellipse;whiteSpace=wrap;html=1;aspect=fixed;fillColor=none;strokeColor=#0042aa;rotation=-180;fontFamily=Helvetica;fontSize=11;fontColor=default;labelBackgroundColor=none;container=0;" vertex="1" parent="1">
          <mxGeometry x="682.5" y="416" width="6" height="6" as="geometry" />
        </mxCell>
        <mxCell id="c5eu0mcJMc6bDwEQeXFq-1547" value="" style="ellipse;whiteSpace=wrap;html=1;aspect=fixed;fillColor=none;strokeColor=#0042aa;rotation=-180;fontFamily=Helvetica;fontSize=11;fontColor=default;labelBackgroundColor=none;container=0;" vertex="1" parent="1">
          <mxGeometry x="682.5" y="406" width="6" height="6" as="geometry" />
        </mxCell>
        <mxCell id="c5eu0mcJMc6bDwEQeXFq-1549" value="" style="ellipse;whiteSpace=wrap;html=1;aspect=fixed;fillColor=none;strokeColor=#0042aa;rotation=-180;fontFamily=Helvetica;fontSize=11;fontColor=default;labelBackgroundColor=none;container=0;" vertex="1" parent="1">
          <mxGeometry x="682.5" y="396" width="6" height="6" as="geometry" />
        </mxCell>
        <mxCell id="c5eu0mcJMc6bDwEQeXFq-1551" value="" style="ellipse;whiteSpace=wrap;html=1;aspect=fixed;fillColor=none;strokeColor=#0042aa;rotation=-180;fontFamily=Helvetica;fontSize=11;fontColor=default;labelBackgroundColor=none;container=0;" vertex="1" parent="1">
          <mxGeometry x="682.5" y="386" width="6" height="6" as="geometry" />
        </mxCell>
        <mxCell id="c5eu0mcJMc6bDwEQeXFq-1553" value="" style="ellipse;whiteSpace=wrap;html=1;aspect=fixed;fillColor=none;strokeColor=#0042aa;rotation=-180;fontFamily=Helvetica;fontSize=11;fontColor=default;labelBackgroundColor=none;container=0;" vertex="1" parent="1">
          <mxGeometry x="682.5" y="376" width="6" height="6" as="geometry" />
        </mxCell>
        <mxCell id="c5eu0mcJMc6bDwEQeXFq-1554" style="edgeStyle=orthogonalEdgeStyle;rounded=0;orthogonalLoop=1;jettySize=auto;html=1;exitX=0;exitY=0.5;exitDx=0;exitDy=0;endArrow=none;endFill=0;strokeColor=default;align=center;verticalAlign=middle;fontFamily=Helvetica;fontSize=11;fontColor=default;labelBackgroundColor=none;" edge="1" parent="1" source="c5eu0mcJMc6bDwEQeXFq-1555">
          <mxGeometry relative="1" as="geometry">
            <mxPoint x="780" y="249" as="targetPoint" />
          </mxGeometry>
        </mxCell>
        <mxCell id="c5eu0mcJMc6bDwEQeXFq-1555" value="" style="ellipse;whiteSpace=wrap;html=1;aspect=fixed;fillColor=none;strokeColor=#0042aa;rotation=-180;fontFamily=Helvetica;fontSize=11;fontColor=default;labelBackgroundColor=none;container=0;" vertex="1" parent="1">
          <mxGeometry x="682.5" y="366" width="6" height="6" as="geometry" />
        </mxCell>
        <mxCell id="c5eu0mcJMc6bDwEQeXFq-1556" style="edgeStyle=orthogonalEdgeStyle;rounded=0;orthogonalLoop=1;jettySize=auto;html=1;exitX=1;exitY=0.5;exitDx=0;exitDy=0;endArrow=none;endFill=0;strokeColor=default;align=center;verticalAlign=middle;fontFamily=Helvetica;fontSize=11;fontColor=default;labelBackgroundColor=none;" edge="1" parent="1" source="c5eu0mcJMc6bDwEQeXFq-1557">
          <mxGeometry relative="1" as="geometry">
            <mxPoint x="720" y="289" as="targetPoint" />
          </mxGeometry>
        </mxCell>
        <mxCell id="c5eu0mcJMc6bDwEQeXFq-1557" value="" style="whiteSpace=wrap;html=1;aspect=fixed;fillColor=none;strokeColor=#0042aa;fontFamily=Helvetica;fontSize=11;fontColor=default;labelBackgroundColor=none;container=0;" vertex="1" parent="1">
          <mxGeometry x="682.5" y="356" width="5" height="5" as="geometry" />
        </mxCell>
        <mxCell id="c5eu0mcJMc6bDwEQeXFq-1559" value="" style="ellipse;whiteSpace=wrap;html=1;aspect=fixed;fillColor=none;strokeColor=#0042aa;rotation=-180;fontFamily=Helvetica;fontSize=11;fontColor=default;labelBackgroundColor=none;container=0;" vertex="1" parent="1">
          <mxGeometry x="682.5" y="586" width="6" height="6" as="geometry" />
        </mxCell>
        <mxCell id="1gPnykWYMlendHl-3gnx-38" value="" style="group;" vertex="1" connectable="0" parent="1">
          <mxGeometry x="912" y="163" width="99.08464824694764" height="20" as="geometry" />
        </mxCell>
        <mxCell id="1gPnykWYMlendHl-3gnx-35" value="" style="pointerEvents=1;verticalLabelPosition=bottom;shadow=0;dashed=0;align=center;html=1;verticalAlign=top;shape=mxgraph.electrical.resistors.resistor_2;fontFamily=Helvetica;fontSize=11;fontColor=default;labelBackgroundColor=default;aspect=fixed;" vertex="1" parent="1gPnykWYMlendHl-3gnx-38">
          <mxGeometry width="27.1967213114754" height="5.439344262295082" as="geometry" />
        </mxCell>
        <mxCell id="1gPnykWYMlendHl-3gnx-36" value="" style="pointerEvents=1;verticalLabelPosition=bottom;shadow=0;dashed=0;align=center;html=1;verticalAlign=top;shape=mxgraph.electrical.resistors.resistor_2;fontFamily=Helvetica;fontSize=11;fontColor=default;labelBackgroundColor=default;aspect=fixed;" vertex="1" parent="1gPnykWYMlendHl-3gnx-38">
          <mxGeometry x="51.80327868852459" width="27.1967213114754" height="5.439344262295082" as="geometry" />
        </mxCell>
        <mxCell id="1gPnykWYMlendHl-3gnx-37" style="edgeStyle=orthogonalEdgeStyle;shape=connector;rounded=0;orthogonalLoop=1;jettySize=auto;html=1;exitX=1;exitY=0.5;exitDx=0;exitDy=0;exitPerimeter=0;entryX=0;entryY=0.5;entryDx=0;entryDy=0;entryPerimeter=0;strokeColor=default;align=center;verticalAlign=middle;fontFamily=Helvetica;fontSize=11;fontColor=default;labelBackgroundColor=default;endArrow=none;endFill=0;" edge="1" parent="1gPnykWYMlendHl-3gnx-38" source="1gPnykWYMlendHl-3gnx-35" target="1gPnykWYMlendHl-3gnx-36">
          <mxGeometry relative="1" as="geometry" />
        </mxCell>
        <mxCell id="1gPnykWYMlendHl-3gnx-144" value="" style="shape=connector;rounded=0;orthogonalLoop=1;jettySize=auto;html=1;exitX=1;exitY=0.5;exitDx=0;exitDy=0;exitPerimeter=0;strokeColor=default;align=center;verticalAlign=middle;fontFamily=Helvetica;fontSize=11;fontColor=default;labelBackgroundColor=default;endArrow=none;endFill=0;" edge="1" parent="1gPnykWYMlendHl-3gnx-38" source="1gPnykWYMlendHl-3gnx-36">
          <mxGeometry relative="1" as="geometry">
            <mxPoint x="90.4142719420247" y="2.8286423360832487" as="targetPoint" />
            <mxPoint x="1029" y="669" as="sourcePoint" />
          </mxGeometry>
        </mxCell>
        <mxCell id="1gPnykWYMlendHl-3gnx-193" value="" style="group;aspect=fixed;" vertex="1" connectable="0" parent="1">
          <mxGeometry x="100" y="150" width="812" height="112.89" as="geometry" />
        </mxCell>
        <mxCell id="1gPnykWYMlendHl-3gnx-192" value="" style="group;aspect=fixed;" vertex="1" connectable="0" parent="1gPnykWYMlendHl-3gnx-193">
          <mxGeometry x="533.5624747270523" y="8.497538181818152" width="278.43752527294777" height="67.72139102304895" as="geometry" />
        </mxCell>
        <mxCell id="1gPnykWYMlendHl-3gnx-169" value="" style="pointerEvents=1;fillColor=strokeColor;verticalLabelPosition=bottom;shadow=0;dashed=0;align=center;html=1;verticalAlign=top;shape=mxgraph.electrical.diodes.zener_diode_3;fontFamily=Helvetica;fontSize=11;fontColor=default;labelBackgroundColor=default;rotation=-90;aspect=fixed;" vertex="1" parent="1gPnykWYMlendHl-3gnx-192">
          <mxGeometry x="113.25634473940174" y="30.09839601024399" width="14.29673810486589" height="14.29673810486589" as="geometry" />
        </mxCell>
        <mxCell id="1gPnykWYMlendHl-3gnx-170" value="" style="pointerEvents=1;verticalLabelPosition=bottom;shadow=0;dashed=0;align=center;html=1;verticalAlign=top;shape=mxgraph.electrical.waveforms.sine_wave;fontFamily=Helvetica;fontSize=11;fontColor=default;labelBackgroundColor=default;strokeWidth=2;" vertex="1" parent="1gPnykWYMlendHl-3gnx-192">
          <mxGeometry x="51.92483579414434" width="22.57601556267145" height="15.049198005121996" as="geometry" />
        </mxCell>
        <mxCell id="1gPnykWYMlendHl-3gnx-171" value="" style="endArrow=circle;html=1;rounded=0;strokeColor=default;align=center;verticalAlign=middle;fontFamily=Helvetica;fontSize=11;fontColor=default;labelBackgroundColor=default;endFill=0;endSize=3;targetPerimeterSpacing=0;edgeStyle=orthogonalEdgeStyle;" edge="1" parent="1gPnykWYMlendHl-3gnx-192">
          <mxGeometry width="50" height="50" relative="1" as="geometry">
            <mxPoint y="7.524599002560998" as="sourcePoint" />
            <mxPoint x="52.677369646233366" y="7.524599002560998" as="targetPoint" />
          </mxGeometry>
        </mxCell>
        <mxCell id="1gPnykWYMlendHl-3gnx-172" value="" style="endArrow=circle;html=1;rounded=0;strokeColor=default;align=center;verticalAlign=middle;fontFamily=Helvetica;fontSize=11;fontColor=default;labelBackgroundColor=default;endFill=0;endSize=3;targetPerimeterSpacing=0;edgeStyle=orthogonalEdgeStyle;" edge="1" parent="1gPnykWYMlendHl-3gnx-192">
          <mxGeometry width="50" height="50" relative="1" as="geometry">
            <mxPoint x="120.40541633424762" y="30.09839601024399" as="sourcePoint" />
            <mxPoint x="73.7483175047268" y="7.223615042458548" as="targetPoint" />
            <Array as="points">
              <mxPoint x="120.40541633424762" y="7.524599002560998" />
            </Array>
          </mxGeometry>
        </mxCell>
        <mxCell id="1gPnykWYMlendHl-3gnx-173" value="" style="pointerEvents=1;verticalLabelPosition=bottom;shadow=0;dashed=0;align=center;html=1;verticalAlign=top;shape=mxgraph.electrical.signal_sources.signal_ground;fontFamily=Helvetica;fontSize=11;fontColor=default;labelBackgroundColor=default;" vertex="1" parent="1gPnykWYMlendHl-3gnx-192">
          <mxGeometry x="112.12754396126815" y="52.67219301792696" width="16.555744745959082" height="15.049198005121996" as="geometry" />
        </mxCell>
        <mxCell id="1gPnykWYMlendHl-3gnx-174" style="edgeStyle=orthogonalEdgeStyle;shape=connector;rounded=0;orthogonalLoop=1;jettySize=auto;html=1;exitX=0.5;exitY=0;exitDx=0;exitDy=0;exitPerimeter=0;entryX=0;entryY=0.5;entryDx=0;entryDy=0;entryPerimeter=0;strokeColor=default;align=center;verticalAlign=middle;fontFamily=Helvetica;fontSize=11;fontColor=default;labelBackgroundColor=default;endArrow=none;endFill=0;" edge="1" source="1gPnykWYMlendHl-3gnx-173" target="1gPnykWYMlendHl-3gnx-169" parent="1gPnykWYMlendHl-3gnx-192">
          <mxGeometry relative="1" as="geometry" />
        </mxCell>
        <mxCell id="1gPnykWYMlendHl-3gnx-175" value="" style="endArrow=none;html=1;rounded=0;strokeColor=default;align=center;verticalAlign=middle;fontFamily=Helvetica;fontSize=11;fontColor=default;labelBackgroundColor=default;startArrow=oval;startFill=1;endSize=3;startSize=4;edgeStyle=orthogonalEdgeStyle;" edge="1" parent="1gPnykWYMlendHl-3gnx-192">
          <mxGeometry width="50" height="50" relative="1" as="geometry">
            <mxPoint x="120.40541633424762" y="7.223615042458548" as="sourcePoint" />
            <mxPoint x="158.03210893870022" y="7.524599002560998" as="targetPoint" />
          </mxGeometry>
        </mxCell>
        <mxCell id="1gPnykWYMlendHl-3gnx-176" value="" style="endArrow=oval;html=1;rounded=0;strokeColor=default;align=center;verticalAlign=middle;fontFamily=Helvetica;fontSize=11;fontColor=default;labelBackgroundColor=default;endFill=1;startSize=4;endSize=4;edgeStyle=orthogonalEdgeStyle;" edge="1" parent="1gPnykWYMlendHl-3gnx-192">
          <mxGeometry width="50" height="50" relative="1" as="geometry">
            <mxPoint x="158.03210893870022" y="30.09839601024399" as="sourcePoint" />
            <mxPoint x="158.03210893870022" y="7.524599002560998" as="targetPoint" />
          </mxGeometry>
        </mxCell>
        <mxCell id="1gPnykWYMlendHl-3gnx-177" value="" style="pointerEvents=1;verticalLabelPosition=bottom;shadow=0;dashed=0;align=center;html=1;verticalAlign=top;shape=mxgraph.electrical.capacitors.capacitor_1;fontFamily=Helvetica;fontSize=11;fontColor=default;labelBackgroundColor=default;rotation=90;" vertex="1" parent="1gPnykWYMlendHl-3gnx-192">
          <mxGeometry x="142.9814318969193" y="30.09839601024399" width="30.101354083561905" height="15.049198005121996" as="geometry" />
        </mxCell>
        <mxCell id="1gPnykWYMlendHl-3gnx-178" value="" style="pointerEvents=1;verticalLabelPosition=bottom;shadow=0;dashed=0;align=center;html=1;verticalAlign=top;shape=mxgraph.electrical.signal_sources.signal_ground;fontFamily=Helvetica;fontSize=11;fontColor=default;labelBackgroundColor=default;" vertex="1" parent="1gPnykWYMlendHl-3gnx-192">
          <mxGeometry x="149.75423656572067" y="52.67219301792696" width="16.555744745959082" height="15.049198005121996" as="geometry" />
        </mxCell>
        <mxCell id="1gPnykWYMlendHl-3gnx-179" value="" style="endArrow=oval;html=1;rounded=0;strokeColor=default;align=center;verticalAlign=middle;fontFamily=Helvetica;fontSize=11;fontColor=default;labelBackgroundColor=default;endFill=1;startSize=3;endSize=4;edgeStyle=orthogonalEdgeStyle;" edge="1" parent="1gPnykWYMlendHl-3gnx-192">
          <mxGeometry width="50" height="50" relative="1" as="geometry">
            <mxPoint x="158.03210893870022" y="7.524599002560998" as="sourcePoint" />
            <mxPoint x="195.65880154315252" y="7.524599002560998" as="targetPoint" />
          </mxGeometry>
        </mxCell>
        <mxCell id="1gPnykWYMlendHl-3gnx-180" style="edgeStyle=orthogonalEdgeStyle;shape=connector;rounded=0;orthogonalLoop=1;jettySize=auto;html=1;exitX=0;exitY=0.5;exitDx=0;exitDy=0;exitPerimeter=0;strokeColor=default;align=center;verticalAlign=middle;fontFamily=Helvetica;fontSize=11;fontColor=default;labelBackgroundColor=default;endArrow=none;endFill=0;" edge="1" source="1gPnykWYMlendHl-3gnx-181" parent="1gPnykWYMlendHl-3gnx-192">
          <mxGeometry relative="1" as="geometry">
            <mxPoint x="195.2072812318992" y="7.524599002560998" as="targetPoint" />
          </mxGeometry>
        </mxCell>
        <mxCell id="1gPnykWYMlendHl-3gnx-181" value="" style="pointerEvents=1;verticalLabelPosition=bottom;shadow=0;dashed=0;align=center;html=1;verticalAlign=top;shape=mxgraph.electrical.resistors.resistor_2;fontFamily=Helvetica;fontSize=11;fontColor=default;labelBackgroundColor=default;rotation=90;aspect=fixed;" vertex="1" parent="1gPnykWYMlendHl-3gnx-192">
          <mxGeometry x="186.62839531808396" y="30.09839601024399" width="17.306577705890277" height="3.4613155411780565" as="geometry" />
        </mxCell>
        <mxCell id="1gPnykWYMlendHl-3gnx-182" value="" style="pointerEvents=1;verticalLabelPosition=bottom;shadow=0;dashed=0;align=center;html=1;verticalAlign=top;shape=mxgraph.electrical.signal_sources.signal_ground;fontFamily=Helvetica;fontSize=11;fontColor=default;labelBackgroundColor=default;" vertex="1" parent="1gPnykWYMlendHl-3gnx-192">
          <mxGeometry x="187.00466224412844" y="52.67219301792696" width="16.555744745959082" height="15.049198005121996" as="geometry" />
        </mxCell>
        <mxCell id="1gPnykWYMlendHl-3gnx-183" style="edgeStyle=orthogonalEdgeStyle;shape=connector;rounded=0;orthogonalLoop=1;jettySize=auto;html=1;exitX=1;exitY=0.5;exitDx=0;exitDy=0;exitPerimeter=0;entryX=0.5;entryY=0;entryDx=0;entryDy=0;entryPerimeter=0;strokeColor=default;align=center;verticalAlign=middle;fontFamily=Helvetica;fontSize=11;fontColor=default;labelBackgroundColor=default;endArrow=none;endFill=0;" edge="1" source="1gPnykWYMlendHl-3gnx-181" target="1gPnykWYMlendHl-3gnx-182" parent="1gPnykWYMlendHl-3gnx-192">
          <mxGeometry relative="1" as="geometry" />
        </mxCell>
        <mxCell id="1gPnykWYMlendHl-3gnx-184" value="" style="endArrow=none;html=1;rounded=0;strokeColor=default;align=center;verticalAlign=middle;fontFamily=Helvetica;fontSize=11;fontColor=default;labelBackgroundColor=default;edgeStyle=orthogonalEdgeStyle;" edge="1" parent="1gPnykWYMlendHl-3gnx-192">
          <mxGeometry width="50" height="50" relative="1" as="geometry">
            <mxPoint x="195.65880154315252" y="7.524599002560998" as="sourcePoint" />
            <mxPoint x="203.18414006404305" y="7.524599002560998" as="targetPoint" />
          </mxGeometry>
        </mxCell>
        <mxCell id="1gPnykWYMlendHl-3gnx-185" style="edgeStyle=orthogonalEdgeStyle;shape=connector;rounded=0;orthogonalLoop=1;jettySize=auto;html=1;exitX=0;exitY=0.5;exitDx=0;exitDy=0;exitPerimeter=0;strokeColor=default;align=center;verticalAlign=middle;fontFamily=Helvetica;fontSize=11;fontColor=default;labelBackgroundColor=default;endArrow=none;endFill=0;" edge="1" source="1gPnykWYMlendHl-3gnx-187" parent="1gPnykWYMlendHl-3gnx-192">
          <mxGeometry relative="1" as="geometry">
            <mxPoint x="203.18414006404305" y="7.825582962663416" as="targetPoint" />
          </mxGeometry>
        </mxCell>
        <mxCell id="1gPnykWYMlendHl-3gnx-186" style="edgeStyle=orthogonalEdgeStyle;shape=connector;rounded=0;orthogonalLoop=1;jettySize=auto;html=1;exitX=1;exitY=0.5;exitDx=0;exitDy=0;exitPerimeter=0;strokeColor=default;align=center;verticalAlign=middle;fontFamily=Helvetica;fontSize=11;fontColor=default;labelBackgroundColor=default;endArrow=none;endFill=0;" edge="1" source="1gPnykWYMlendHl-3gnx-187" parent="1gPnykWYMlendHl-3gnx-192">
          <mxGeometry relative="1" as="geometry">
            <mxPoint x="240.81083266849524" y="7.825582962663416" as="targetPoint" />
          </mxGeometry>
        </mxCell>
        <mxCell id="1gPnykWYMlendHl-3gnx-187" value="" style="pointerEvents=1;verticalLabelPosition=bottom;shadow=0;dashed=0;align=center;html=1;verticalAlign=top;shape=mxgraph.electrical.resistors.resistor_2;fontFamily=Helvetica;fontSize=11;fontColor=default;labelBackgroundColor=default;rotation=0;aspect=fixed;" vertex="1" parent="1gPnykWYMlendHl-3gnx-192">
          <mxGeometry x="210.70947858493346" y="5.793941231971958" width="17.306577705890277" height="3.4613155411780565" as="geometry" />
        </mxCell>
        <mxCell id="1gPnykWYMlendHl-3gnx-188" value="" style="pointerEvents=1;verticalLabelPosition=bottom;shadow=0;dashed=0;align=center;html=1;verticalAlign=top;shape=mxgraph.electrical.capacitors.capacitor_1;fontFamily=Helvetica;fontSize=11;fontColor=default;labelBackgroundColor=default;rotation=90;" vertex="1" parent="1gPnykWYMlendHl-3gnx-192">
          <mxGeometry x="225.76015562671455" y="24.304454778272017" width="30.101354083561905" height="15.049198005121996" as="geometry" />
        </mxCell>
        <mxCell id="1gPnykWYMlendHl-3gnx-189" value="" style="endArrow=oval;html=1;rounded=0;strokeColor=default;align=center;verticalAlign=middle;fontFamily=Helvetica;fontSize=11;fontColor=default;labelBackgroundColor=default;endFill=1;endSize=4;edgeStyle=orthogonalEdgeStyle;" edge="1" parent="1gPnykWYMlendHl-3gnx-192">
          <mxGeometry width="50" height="50" relative="1" as="geometry">
            <mxPoint x="240.81083266849524" y="25.583636608707376" as="sourcePoint" />
            <mxPoint x="240.81083266849524" y="7.524599002560998" as="targetPoint" />
          </mxGeometry>
        </mxCell>
        <mxCell id="1gPnykWYMlendHl-3gnx-190" value="" style="pointerEvents=1;verticalLabelPosition=bottom;shadow=0;dashed=0;align=center;html=1;verticalAlign=top;shape=mxgraph.electrical.signal_sources.signal_ground;fontFamily=Helvetica;fontSize=11;fontColor=default;labelBackgroundColor=default;" vertex="1" parent="1gPnykWYMlendHl-3gnx-192">
          <mxGeometry x="232.53296029551606" y="45.147594015365975" width="16.555744745959082" height="15.049198005121996" as="geometry" />
        </mxCell>
        <mxCell id="1gPnykWYMlendHl-3gnx-191" value="" style="endArrow=none;html=1;rounded=0;strokeColor=default;align=center;verticalAlign=middle;fontFamily=Helvetica;fontSize=11;fontColor=default;labelBackgroundColor=default;edgeStyle=orthogonalEdgeStyle;" edge="1" parent="1gPnykWYMlendHl-3gnx-192">
          <mxGeometry width="50" height="50" relative="1" as="geometry">
            <mxPoint x="240.81083266849524" y="7.524599002560998" as="sourcePoint" />
            <mxPoint x="278.43752527294777" y="7.524599002560998" as="targetPoint" />
          </mxGeometry>
        </mxCell>
        <mxCell id="1gPnykWYMlendHl-3gnx-264" value="&lt;span style=&quot;font-family: Verdana;&quot;&gt;C5&lt;/span&gt;" style="text;html=1;align=center;verticalAlign=middle;resizable=0;points=[];autosize=1;strokeColor=none;fillColor=none;fontFamily=Helvetica;fontSize=11;fontColor=default;labelBackgroundColor=none;" vertex="1" parent="1gPnykWYMlendHl-3gnx-192">
          <mxGeometry x="203.55752527294771" y="18.862461818181856" width="40" height="30" as="geometry" />
        </mxCell>
        <mxCell id="1gPnykWYMlendHl-3gnx-2" value="" style="group;aspect=fixed;labelBackgroundColor=none;" vertex="1" connectable="0" parent="1gPnykWYMlendHl-3gnx-193">
          <mxGeometry x="174.4338859684594" width="238.05095026283865" height="72.94414678528105" as="geometry" />
        </mxCell>
        <mxCell id="c5eu0mcJMc6bDwEQeXFq-1603" value="&lt;font style=&quot;font-size: 8px;&quot; face=&quot;Verdana&quot;&gt;L1&lt;/font&gt;" style="text;html=1;align=center;verticalAlign=middle;resizable=0;points=[];autosize=1;strokeColor=none;fillColor=none;fontFamily=Helvetica;fontSize=11;fontColor=default;labelBackgroundColor=none;container=0;" vertex="1" parent="1gPnykWYMlendHl-3gnx-2">
          <mxGeometry x="23.441899466677025" y="-10.383946623534172" width="30" height="30" as="geometry" />
        </mxCell>
        <mxCell id="c5eu0mcJMc6bDwEQeXFq-1583" style="shape=connector;rounded=0;orthogonalLoop=1;jettySize=auto;html=1;strokeColor=default;align=center;verticalAlign=middle;fontFamily=Helvetica;fontSize=11;fontColor=default;labelBackgroundColor=none;endArrow=none;endFill=0;" edge="1" parent="1gPnykWYMlendHl-3gnx-2">
          <mxGeometry relative="1" as="geometry">
            <mxPoint x="225.84320922371793" y="21.635975741396923" as="targetPoint" />
            <mxPoint x="170.32955923978977" y="21.54771532551557" as="sourcePoint" />
          </mxGeometry>
        </mxCell>
        <mxCell id="c5eu0mcJMc6bDwEQeXFq-1584" style="shape=connector;rounded=0;orthogonalLoop=1;jettySize=auto;html=1;strokeColor=default;align=center;verticalAlign=middle;fontFamily=Helvetica;fontSize=11;fontColor=default;labelBackgroundColor=none;endArrow=oval;endFill=1;exitX=0.5;exitY=0.25;exitDx=0;exitDy=0;exitPerimeter=0;edgeStyle=orthogonalEdgeStyle;" edge="1" parent="1gPnykWYMlendHl-3gnx-2" source="c5eu0mcJMc6bDwEQeXFq-1590">
          <mxGeometry relative="1" as="geometry">
            <mxPoint x="134.2851514303187" y="72.94414678528105" as="targetPoint" />
          </mxGeometry>
        </mxCell>
        <mxCell id="c5eu0mcJMc6bDwEQeXFq-1585" value="&lt;div class=&quot;page&quot; title=&quot;Page 180&quot; style=&quot;text-align: start;&quot;&gt;&lt;div class=&quot;layoutArea&quot;&gt;&lt;div class=&quot;column&quot;&gt;&lt;p&gt;&lt;font style=&quot;font-size: 9px;&quot; face=&quot;Times New Roman&quot;&gt;TSR 0.5 â 2.5W&lt;/font&gt;&lt;br&gt;&lt;/p&gt;&lt;/div&gt;&lt;/div&gt;&lt;/div&gt;" style="rounded=0;whiteSpace=wrap;html=1;fontFamily=Helvetica;fontSize=11;fontColor=default;labelBackgroundColor=none;fillColor=#FFFFCC;container=0;" vertex="1" parent="1gPnykWYMlendHl-3gnx-2">
          <mxGeometry x="97.6619283129596" y="11.127073238432706" width="73.24644623471973" height="49.453658837478784" as="geometry" />
        </mxCell>
        <mxCell id="c5eu0mcJMc6bDwEQeXFq-1586" style="edgeStyle=orthogonalEdgeStyle;shape=connector;rounded=0;orthogonalLoop=1;jettySize=auto;html=1;strokeColor=default;align=center;verticalAlign=middle;fontFamily=Helvetica;fontSize=11;fontColor=default;labelBackgroundColor=none;endArrow=oval;endFill=1;strokeWidth=1;" edge="1" parent="1gPnykWYMlendHl-3gnx-2" source="c5eu0mcJMc6bDwEQeXFq-1587">
          <mxGeometry relative="1" as="geometry">
            <mxPoint x="67.14257571515934" y="20.399634270459913" as="targetPoint" />
          </mxGeometry>
        </mxCell>
        <mxCell id="c5eu0mcJMc6bDwEQeXFq-1587" value="&lt;font style=&quot;font-size: 7px;&quot;&gt;+Vin&lt;/font&gt;" style="text;html=1;align=center;verticalAlign=middle;whiteSpace=wrap;rounded=0;fontFamily=Helvetica;fontSize=11;fontColor=default;labelBackgroundColor=none;container=0;" vertex="1" parent="1gPnykWYMlendHl-3gnx-2">
          <mxGeometry x="91.55805779339927" y="11.127073238432706" width="36.62322311735986" height="18.54512206405449" as="geometry" />
        </mxCell>
        <mxCell id="c5eu0mcJMc6bDwEQeXFq-1589" value="&lt;span style=&quot;caret-color: rgb(0, 0, 0); color: rgb(0, 0, 0); font-family: Helvetica; font-style: normal; font-variant-caps: normal; font-weight: 400; letter-spacing: normal; text-indent: 0px; text-transform: none; white-space: normal; word-spacing: 0px; -webkit-text-stroke-width: 0px; text-decoration: none; float: none; display: inline !important;&quot;&gt;&lt;font style=&quot;font-size: 7px;&quot;&gt;+Vout&lt;/font&gt;&lt;/span&gt;" style="text;whiteSpace=wrap;html=1;fontFamily=Helvetica;fontSize=11;fontColor=default;labelBackgroundColor=none;align=center;container=0;" vertex="1" parent="1gPnykWYMlendHl-3gnx-2">
          <mxGeometry x="140.99940900183566" y="8.659259836745349" width="36.62322311735986" height="18.54512206405449" as="geometry" />
        </mxCell>
        <mxCell id="c5eu0mcJMc6bDwEQeXFq-1590" value="&lt;span style=&quot;caret-color: rgb(0, 0, 0); color: rgb(0, 0, 0); font-family: Helvetica; font-style: normal; font-variant-caps: normal; font-weight: 400; letter-spacing: normal; text-indent: 0px; text-transform: none; white-space: normal; word-spacing: 0px; -webkit-text-stroke-width: 0px; text-decoration: none; float: none; display: inline !important;&quot;&gt;&lt;font style=&quot;font-size: 7px;&quot;&gt;GND&lt;/font&gt;&lt;/span&gt;" style="text;whiteSpace=wrap;html=1;fontFamily=Helvetica;fontSize=11;fontColor=default;labelBackgroundColor=none;align=center;container=0;" vertex="1" parent="1gPnykWYMlendHl-3gnx-2">
          <mxGeometry x="115.97353987163947" y="41.043267286696334" width="36.62322311735986" height="24.726829418739392" as="geometry" />
        </mxCell>
        <mxCell id="c5eu0mcJMc6bDwEQeXFq-1591" style="edgeStyle=orthogonalEdgeStyle;shape=connector;rounded=0;orthogonalLoop=1;jettySize=auto;html=1;exitX=0;exitY=0.5;exitDx=0;exitDy=0;entryX=0.167;entryY=0.507;entryDx=0;entryDy=0;entryPerimeter=0;strokeColor=default;align=center;verticalAlign=middle;fontFamily=Helvetica;fontSize=11;fontColor=default;labelBackgroundColor=none;endArrow=none;endFill=0;" edge="1" parent="1gPnykWYMlendHl-3gnx-2" source="c5eu0mcJMc6bDwEQeXFq-1587" target="c5eu0mcJMc6bDwEQeXFq-1587">
          <mxGeometry relative="1" as="geometry" />
        </mxCell>
        <mxCell id="c5eu0mcJMc6bDwEQeXFq-1592" value="" style="endArrow=none;html=1;rounded=0;strokeColor=default;align=center;verticalAlign=middle;fontFamily=Helvetica;fontSize=11;fontColor=default;labelBackgroundColor=none;edgeStyle=elbowEdgeStyle;exitX=0.988;exitY=0.849;exitDx=0;exitDy=0;exitPerimeter=0;" edge="1" parent="1gPnykWYMlendHl-3gnx-2" source="c5eu0mcJMc6bDwEQeXFq-1606">
          <mxGeometry width="50" height="50" relative="1" as="geometry">
            <mxPoint y="72.94414678528105" as="sourcePoint" />
            <mxPoint x="225.84320922371793" y="72.94414678528105" as="targetPoint" />
          </mxGeometry>
        </mxCell>
        <mxCell id="c5eu0mcJMc6bDwEQeXFq-1593" style="edgeStyle=orthogonalEdgeStyle;shape=connector;rounded=0;orthogonalLoop=1;jettySize=auto;html=1;exitX=1;exitY=1;exitDx=0;exitDy=0;exitPerimeter=0;strokeColor=default;align=center;verticalAlign=middle;fontFamily=Helvetica;fontSize=11;fontColor=default;labelBackgroundColor=none;endArrow=none;endFill=0;entryX=0.158;entryY=0.507;entryDx=0;entryDy=0;entryPerimeter=0;jumpSize=6;startSize=6;endSize=6;" edge="1" parent="1gPnykWYMlendHl-3gnx-2" target="c5eu0mcJMc6bDwEQeXFq-1597">
          <mxGeometry relative="1" as="geometry">
            <mxPoint x="67.14257571515934" y="22.501414771052833" as="targetPoint" />
            <mxPoint x="61.0387051955996" y="20.399634270459913" as="sourcePoint" />
            <Array as="points">
              <mxPoint x="66.5321886632039" y="20.399634270459913" />
            </Array>
          </mxGeometry>
        </mxCell>
        <mxCell id="c5eu0mcJMc6bDwEQeXFq-1594" style="edgeStyle=orthogonalEdgeStyle;shape=connector;rounded=0;orthogonalLoop=1;jettySize=auto;html=1;exitX=1;exitY=1;exitDx=0;exitDy=0;exitPerimeter=0;strokeColor=default;align=center;verticalAlign=middle;fontFamily=Helvetica;fontSize=11;fontColor=default;labelBackgroundColor=none;endArrow=none;endFill=0;" edge="1" parent="1gPnykWYMlendHl-3gnx-2">
          <mxGeometry relative="1" as="geometry">
            <mxPoint x="61.0387051955996" y="20.523268417553638" as="targetPoint" />
            <mxPoint x="61.0387051955996" y="20.399634270459913" as="sourcePoint" />
          </mxGeometry>
        </mxCell>
        <mxCell id="c5eu0mcJMc6bDwEQeXFq-1595" style="shape=connector;rounded=0;orthogonalLoop=1;jettySize=auto;html=1;strokeColor=default;align=center;verticalAlign=middle;fontFamily=Helvetica;fontSize=11;fontColor=default;labelBackgroundColor=none;endArrow=none;endFill=0;edgeStyle=orthogonalEdgeStyle;" edge="1" parent="1gPnykWYMlendHl-3gnx-2">
          <mxGeometry relative="1" as="geometry">
            <mxPoint x="12.207741039119973" y="20.399634270459913" as="targetPoint" />
            <mxPoint x="12.207741039119973" y="20.399634270459913" as="sourcePoint" />
          </mxGeometry>
        </mxCell>
        <mxCell id="c5eu0mcJMc6bDwEQeXFq-1596" style="edgeStyle=orthogonalEdgeStyle;shape=connector;rounded=0;orthogonalLoop=1;jettySize=auto;html=1;exitX=1;exitY=0.5;exitDx=0;exitDy=0;exitPerimeter=0;strokeColor=default;align=center;verticalAlign=middle;fontFamily=Helvetica;fontSize=11;fontColor=default;labelBackgroundColor=none;endArrow=oval;endFill=1;shadow=1;" edge="1" parent="1gPnykWYMlendHl-3gnx-2" source="c5eu0mcJMc6bDwEQeXFq-1597">
          <mxGeometry relative="1" as="geometry">
            <mxPoint x="66.5321886632039" y="72.94414678528105" as="targetPoint" />
          </mxGeometry>
        </mxCell>
        <mxCell id="c5eu0mcJMc6bDwEQeXFq-1597" value="" style="pointerEvents=1;verticalLabelPosition=bottom;shadow=0;dashed=0;align=center;html=1;verticalAlign=top;shape=mxgraph.electrical.capacitors.capacitor_1;fontFamily=Helvetica;fontSize=9;fontColor=default;labelBackgroundColor=none;rotation=90;aspect=fixed;container=0;" vertex="1" parent="1gPnykWYMlendHl-3gnx-2">
          <mxGeometry x="54.93483467603983" y="38.32658559904593" width="23.261610232995164" height="13.969113194749017" as="geometry" />
        </mxCell>
        <mxCell id="c5eu0mcJMc6bDwEQeXFq-1598" style="edgeStyle=orthogonalEdgeStyle;shape=connector;rounded=0;orthogonalLoop=1;jettySize=auto;html=1;exitX=1;exitY=0.5;exitDx=0;exitDy=0;exitPerimeter=0;strokeColor=default;align=center;verticalAlign=middle;fontFamily=Helvetica;fontSize=11;fontColor=default;labelBackgroundColor=none;endArrow=oval;endFill=1;" edge="1" parent="1gPnykWYMlendHl-3gnx-2" source="c5eu0mcJMc6bDwEQeXFq-1600">
          <mxGeometry relative="1" as="geometry">
            <mxPoint x="11.597353987163945" y="72.94414678528105" as="targetPoint" />
          </mxGeometry>
        </mxCell>
        <mxCell id="c5eu0mcJMc6bDwEQeXFq-1599" style="edgeStyle=orthogonalEdgeStyle;shape=connector;rounded=0;orthogonalLoop=1;jettySize=auto;html=1;exitX=0;exitY=0.5;exitDx=0;exitDy=0;exitPerimeter=0;strokeColor=default;align=center;verticalAlign=middle;fontFamily=Helvetica;fontSize=11;fontColor=default;labelBackgroundColor=none;endArrow=oval;endFill=1;" edge="1" parent="1gPnykWYMlendHl-3gnx-2" source="c5eu0mcJMc6bDwEQeXFq-1600">
          <mxGeometry relative="1" as="geometry">
            <mxPoint x="11.841508807946319" y="20.399634270459913" as="targetPoint" />
          </mxGeometry>
        </mxCell>
        <mxCell id="c5eu0mcJMc6bDwEQeXFq-1600" value="" style="pointerEvents=1;verticalLabelPosition=bottom;shadow=0;dashed=0;align=center;html=1;verticalAlign=top;shape=mxgraph.electrical.capacitors.capacitor_1;fontFamily=Helvetica;fontSize=9;fontColor=default;labelBackgroundColor=none;rotation=90;aspect=fixed;container=0;" vertex="1" parent="1gPnykWYMlendHl-3gnx-2">
          <mxGeometry y="38.32658559904593" width="23.261610232995164" height="13.969113194749017" as="geometry" />
        </mxCell>
        <mxCell id="c5eu0mcJMc6bDwEQeXFq-1601" style="edgeStyle=orthogonalEdgeStyle;shape=connector;rounded=0;orthogonalLoop=1;jettySize=auto;html=1;exitX=0;exitY=1;exitDx=0;exitDy=0;exitPerimeter=0;strokeColor=default;align=center;verticalAlign=middle;fontFamily=Helvetica;fontSize=11;fontColor=default;labelBackgroundColor=none;endArrow=none;endFill=0;" edge="1" parent="1gPnykWYMlendHl-3gnx-2" source="c5eu0mcJMc6bDwEQeXFq-1602">
          <mxGeometry relative="1" as="geometry">
            <mxPoint x="-21.54771532551557" y="20.521633643348167" as="targetPoint" />
          </mxGeometry>
        </mxCell>
        <mxCell id="c5eu0mcJMc6bDwEQeXFq-1602" value="" style="pointerEvents=1;verticalLabelPosition=bottom;shadow=0;dashed=0;align=center;html=1;verticalAlign=top;shape=mxgraph.electrical.inductors.inductor_3;fontFamily=Helvetica;fontSize=11;fontColor=default;labelBackgroundColor=none;container=0;" vertex="1" parent="1gPnykWYMlendHl-3gnx-2">
          <mxGeometry x="18.311611558679914" y="15.454268386712053" width="42.72709363691968" height="4.945365883747861" as="geometry" />
        </mxCell>
        <mxCell id="c5eu0mcJMc6bDwEQeXFq-1604" value="&lt;font style=&quot;font-size: 8px;&quot; face=&quot;Verdana&quot;&gt;C1&lt;/font&gt;" style="text;html=1;align=center;verticalAlign=middle;resizable=0;points=[];autosize=1;strokeColor=none;fillColor=none;fontFamily=Helvetica;fontSize=11;fontColor=default;labelBackgroundColor=none;container=0;" vertex="1" parent="1gPnykWYMlendHl-3gnx-2">
          <mxGeometry x="10.262921604611837" y="29.676890930524262" width="30" height="30" as="geometry" />
        </mxCell>
        <mxCell id="c5eu0mcJMc6bDwEQeXFq-1605" value="&lt;font style=&quot;font-size: 8px;&quot; face=&quot;Verdana&quot;&gt;C2&lt;/font&gt;" style="text;html=1;align=center;verticalAlign=middle;resizable=0;points=[];autosize=1;strokeColor=none;fillColor=none;fontFamily=Helvetica;fontSize=11;fontColor=default;labelBackgroundColor=none;container=0;" vertex="1" parent="1gPnykWYMlendHl-3gnx-2">
          <mxGeometry x="66.16753501923357" y="30.909449812209253" width="30" height="30" as="geometry" />
        </mxCell>
        <mxCell id="1gPnykWYMlendHl-3gnx-201" value="" style="endArrow=oval;html=1;rounded=0;strokeColor=default;align=center;verticalAlign=middle;fontFamily=Helvetica;fontSize=11;fontColor=default;labelBackgroundColor=default;startArrow=none;startFill=0;endFill=1;endSize=3;entryX=-0.002;entryY=0.612;entryDx=0;entryDy=0;entryPerimeter=0;" edge="1" parent="1gPnykWYMlendHl-3gnx-2" target="c5eu0mcJMc6bDwEQeXFq-1404">
          <mxGeometry width="50" height="50" relative="1" as="geometry">
            <mxPoint x="205.56611403154056" y="99" as="sourcePoint" />
            <mxPoint x="185.56611403154056" y="69" as="targetPoint" />
          </mxGeometry>
        </mxCell>
        <mxCell id="1gPnykWYMlendHl-3gnx-11" style="edgeStyle=orthogonalEdgeStyle;shape=connector;rounded=0;orthogonalLoop=1;jettySize=auto;html=1;exitX=1;exitY=0.25;exitDx=0;exitDy=0;strokeColor=default;align=center;verticalAlign=middle;fontFamily=Helvetica;fontSize=11;fontColor=default;labelBackgroundColor=default;endArrow=none;endFill=0;" edge="1" parent="1gPnykWYMlendHl-3gnx-193" source="c5eu0mcJMc6bDwEQeXFq-1606">
          <mxGeometry relative="1" as="geometry">
            <mxPoint x="148.2386242001856" y="26.743459893048065" as="targetPoint" />
          </mxGeometry>
        </mxCell>
        <mxCell id="c5eu0mcJMc6bDwEQeXFq-1606" value="&lt;div style=&quot;text-align: start;&quot; title=&quot;Page 161&quot; class=&quot;page&quot;&gt;&lt;div class=&quot;layoutArea&quot;&gt;&lt;div class=&quot;column&quot;&gt;&lt;p&gt;&lt;font style=&quot;font-size: 12px;&quot; face=&quot;Times New Roman&quot;&gt;Melasta 24V 10 Ah LiFePO4&lt;/font&gt;&lt;/p&gt;&lt;/div&gt;&lt;/div&gt;&lt;/div&gt;" style="rounded=0;whiteSpace=wrap;html=1;fontFamily=Helvetica;fontSize=11;fontColor=default;labelBackgroundColor=none;fillColor=#FFFFCC;container=0;" vertex="1" parent="1gPnykWYMlendHl-3gnx-193">
          <mxGeometry y="7.760751554969792" width="158.06777653946207" height="76.97045454545454" as="geometry" />
        </mxCell>
        <mxCell id="1gPnykWYMlendHl-3gnx-10" value="" style="group;labelBackgroundColor=none;" vertex="1" connectable="0" parent="1gPnykWYMlendHl-3gnx-193">
          <mxGeometry x="379.65000920508675" width="360.34999079491325" height="100" as="geometry" />
        </mxCell>
        <mxCell id="c5eu0mcJMc6bDwEQeXFq-1402" value="&lt;div class=&quot;page&quot; title=&quot;Page 4&quot; style=&quot;&quot;&gt;&lt;div class=&quot;layoutArea&quot;&gt;&lt;div class=&quot;column&quot;&gt;&lt;p style=&quot;text-align: left;&quot;&gt;&lt;font style=&quot;font-size: 14px;&quot; face=&quot;Times New Roman&quot;&gt;LEM DHAB S/157&lt;/font&gt;&lt;br&gt;&lt;/p&gt;&lt;/div&gt;&lt;/div&gt;&lt;/div&gt;" style="rounded=0;whiteSpace=wrap;html=1;fontFamily=Helvetica;fontSize=11;labelBackgroundColor=none;rotation=0;fillColor=#FFFFCC;direction=west;fontColor=default;" vertex="1" parent="1gPnykWYMlendHl-3gnx-10">
          <mxGeometry x="10.265332709303816" width="153.97999063955692" height="82.09731307495306" as="geometry" />
        </mxCell>
        <mxCell id="c5eu0mcJMc6bDwEQeXFq-1403" value="&lt;font face=&quot;Verdana&quot;&gt;Uc&lt;/font&gt;" style="text;html=1;align=center;verticalAlign=middle;resizable=0;points=[];autosize=1;strokeColor=none;fillColor=none;fontFamily=Helvetica;fontSize=11;fontColor=default;labelBackgroundColor=none;" vertex="1" parent="1gPnykWYMlendHl-3gnx-10">
          <mxGeometry y="7.4397202605303985" width="40" height="30" as="geometry" />
        </mxCell>
        <mxCell id="c5eu0mcJMc6bDwEQeXFq-1404" value="GND" style="text;html=1;align=center;verticalAlign=middle;resizable=0;points=[];autosize=1;strokeColor=none;fillColor=none;fontFamily=Helvetica;fontSize=11;fontColor=default;labelBackgroundColor=none;" vertex="1" parent="1gPnykWYMlendHl-3gnx-10">
          <mxGeometry y="53.937971888845446" width="50" height="30" as="geometry" />
        </mxCell>
        <mxCell id="c5eu0mcJMc6bDwEQeXFq-1405" value="&lt;font face=&quot;Verdana&quot;&gt;Vout*&lt;/font&gt;" style="text;html=1;align=center;verticalAlign=middle;resizable=0;points=[];autosize=1;strokeColor=none;fillColor=none;fontFamily=Helvetica;fontSize=11;fontColor=default;labelBackgroundColor=none;" vertex="1" parent="1gPnykWYMlendHl-3gnx-10">
          <mxGeometry x="112.87345431642814" y="3.4632919484470457" width="60" height="30" as="geometry" />
        </mxCell>
        <mxCell id="1gPnykWYMlendHl-3gnx-260" value="&lt;span style=&quot;font-family: Verdana;&quot;&gt;D3&lt;/span&gt;" style="text;html=1;align=center;verticalAlign=middle;resizable=0;points=[];autosize=1;strokeColor=none;fillColor=none;fontFamily=Helvetica;fontSize=11;fontColor=default;labelBackgroundColor=default;" vertex="1" parent="1gPnykWYMlendHl-3gnx-10">
          <mxGeometry x="240.34999079491325" y="23.939999999999998" width="40" height="30" as="geometry" />
        </mxCell>
        <mxCell id="1gPnykWYMlendHl-3gnx-261" value="&lt;span style=&quot;font-family: Verdana;&quot;&gt;C4&lt;/span&gt;" style="text;html=1;align=center;verticalAlign=middle;resizable=0;points=[];autosize=1;strokeColor=none;fillColor=none;fontFamily=Helvetica;fontSize=11;fontColor=default;labelBackgroundColor=none;" vertex="1" parent="1gPnykWYMlendHl-3gnx-10">
          <mxGeometry x="280.34999079491325" y="23.939999999999998" width="40" height="30" as="geometry" />
        </mxCell>
        <mxCell id="1gPnykWYMlendHl-3gnx-262" value="&lt;span style=&quot;font-family: Verdana;&quot;&gt;R6&lt;/span&gt;" style="text;html=1;align=center;verticalAlign=middle;resizable=0;points=[];autosize=1;strokeColor=none;fillColor=none;fontFamily=Helvetica;fontSize=11;fontColor=default;labelBackgroundColor=default;" vertex="1" parent="1gPnykWYMlendHl-3gnx-10">
          <mxGeometry x="317" y="23.939999999999998" width="40" height="30" as="geometry" />
        </mxCell>
        <mxCell id="1gPnykWYMlendHl-3gnx-32" value="" style="endArrow=oval;html=1;rounded=0;strokeColor=default;align=center;verticalAlign=middle;fontFamily=Helvetica;fontSize=11;fontColor=default;labelBackgroundColor=default;edgeStyle=orthogonalEdgeStyle;startArrow=none;startFill=0;endFill=1;endSize=3;" edge="1" parent="1gPnykWYMlendHl-3gnx-193">
          <mxGeometry width="50" height="50" relative="1" as="geometry">
            <mxPoint x="619" y="138" as="sourcePoint" />
            <mxPoint x="360" y="21" as="targetPoint" />
          </mxGeometry>
        </mxCell>
        <mxCell id="1gPnykWYMlendHl-3gnx-197" value="" style="endArrow=none;html=1;rounded=0;strokeColor=default;align=center;verticalAlign=middle;fontFamily=Helvetica;fontSize=11;fontColor=default;labelBackgroundColor=default;" edge="1" parent="1gPnykWYMlendHl-3gnx-193">
          <mxGeometry width="50" height="50" relative="1" as="geometry">
            <mxPoint x="380" y="99" as="sourcePoint" />
            <mxPoint x="680" y="99" as="targetPoint" />
          </mxGeometry>
        </mxCell>
        <mxCell id="1gPnykWYMlendHl-3gnx-220" value="24V" style="text;html=1;align=center;verticalAlign=middle;whiteSpace=wrap;rounded=0;fontFamily=Helvetica;fontSize=11;fontColor=default;labelBackgroundColor=none;" vertex="1" parent="1gPnykWYMlendHl-3gnx-193">
          <mxGeometry x="114.43" y="8.5" width="60" height="30" as="geometry" />
        </mxCell>
        <mxCell id="1gPnykWYMlendHl-3gnx-221" value="GND" style="text;html=1;align=center;verticalAlign=middle;whiteSpace=wrap;rounded=0;fontFamily=Helvetica;fontSize=11;fontColor=default;labelBackgroundColor=none;" vertex="1" parent="1gPnykWYMlendHl-3gnx-193">
          <mxGeometry x="110" y="54.73000000000002" width="60" height="30" as="geometry" />
        </mxCell>
        <mxCell id="1gPnykWYMlendHl-3gnx-263" value="&lt;span style=&quot;font-family: Verdana;&quot;&gt;R30&lt;/span&gt;" style="text;html=1;align=center;verticalAlign=middle;resizable=0;points=[];autosize=1;strokeColor=none;fillColor=none;fontFamily=Helvetica;fontSize=11;fontColor=default;labelBackgroundColor=default;" vertex="1" parent="1gPnykWYMlendHl-3gnx-193">
          <mxGeometry x="727" y="-10" width="50" height="30" as="geometry" />
        </mxCell>
        <mxCell id="1gPnykWYMlendHl-3gnx-195" value="" style="pointerEvents=1;verticalLabelPosition=bottom;shadow=0;dashed=0;align=center;html=1;verticalAlign=top;shape=mxgraph.electrical.signal_sources.signal_ground;fontFamily=Helvetica;fontSize=11;fontColor=default;labelBackgroundColor=default;direction=north;" vertex="1" parent="1">
          <mxGeometry x="999.998708392987" y="157.5" width="15.049198005121996" height="16.555744745959082" as="geometry" />
        </mxCell>
        <mxCell id="1gPnykWYMlendHl-3gnx-210" value="&lt;span style=&quot;caret-color: rgb(0, 0, 0); color: rgb(0, 0, 0); font-family: Verdana; font-size: 6px; font-style: normal; font-variant-caps: normal; font-weight: 400; letter-spacing: normal; text-indent: 0px; text-transform: none; white-space: normal; word-spacing: 0px; -webkit-text-stroke-width: 0px; text-decoration: none; float: none; display: inline !important;&quot;&gt;3.3V&lt;/span&gt;" style="text;whiteSpace=wrap;html=1;fontFamily=Helvetica;fontSize=11;fontColor=default;labelBackgroundColor=none;align=center;container=0;" vertex="1" parent="1">
          <mxGeometry x="647.5" y="363.75" width="40" height="40" as="geometry" />
        </mxCell>
        <mxCell id="1gPnykWYMlendHl-3gnx-211" value="&lt;span style=&quot;caret-color: rgb(0, 0, 0); color: rgb(0, 0, 0); font-family: Verdana; font-size: 6px; font-style: normal; font-variant-caps: normal; font-weight: 400; letter-spacing: normal; text-indent: 0px; text-transform: none; white-space: normal; word-spacing: 0px; -webkit-text-stroke-width: 0px; text-decoration: none; float: none; display: inline !important;&quot;&gt;Vin&lt;/span&gt;" style="text;whiteSpace=wrap;html=1;fontFamily=Helvetica;fontSize=11;fontColor=default;labelBackgroundColor=none;align=center;container=0;" vertex="1" parent="1">
          <mxGeometry x="648.5" y="343.75" width="40" height="40" as="geometry" />
        </mxCell>
        <mxCell id="1gPnykWYMlendHl-3gnx-213" value="&lt;span style=&quot;caret-color: rgb(0, 0, 0); color: rgb(0, 0, 0); font-family: Verdana; font-size: 6px; font-style: normal; font-variant-caps: normal; font-weight: 400; letter-spacing: normal; text-indent: 0px; text-transform: none; white-space: normal; word-spacing: 0px; -webkit-text-stroke-width: 0px; text-decoration: none; float: none; display: inline !important;&quot;&gt;GND&lt;/span&gt;" style="text;whiteSpace=wrap;html=1;fontFamily=Helvetica;fontSize=11;fontColor=default;labelBackgroundColor=none;align=center;container=0;" vertex="1" parent="1">
          <mxGeometry x="647.5" y="354" width="40" height="40" as="geometry" />
        </mxCell>
        <mxCell id="1gPnykWYMlendHl-3gnx-219" value="" style="rounded=0;whiteSpace=wrap;html=1;fontFamily=Helvetica;fontSize=11;fontColor=default;labelBackgroundColor=default;fillColor=#67AB9F;" vertex="1" parent="1">
          <mxGeometry x="320" y="361.75" width="110" height="117" as="geometry" />
        </mxCell>
        <mxCell id="1gPnykWYMlendHl-3gnx-223" value="&lt;font face=&quot;Verdana&quot;&gt;CANH&lt;/font&gt;" style="text;html=1;align=center;verticalAlign=middle;whiteSpace=wrap;rounded=0;fontFamily=Helvetica;fontSize=11;fontColor=default;labelBackgroundColor=none;" vertex="1" parent="1">
          <mxGeometry x="310" y="374" width="60" height="30" as="geometry" />
        </mxCell>
        <mxCell id="1gPnykWYMlendHl-3gnx-224" value="&lt;font face=&quot;Verdana&quot;&gt;CANL&lt;/font&gt;" style="text;html=1;align=center;verticalAlign=middle;whiteSpace=wrap;rounded=0;fontFamily=Helvetica;fontSize=11;fontColor=default;labelBackgroundColor=none;" vertex="1" parent="1">
          <mxGeometry x="310" y="388" width="60" height="30" as="geometry" />
        </mxCell>
        <mxCell id="1gPnykWYMlendHl-3gnx-225" value="&lt;font face=&quot;Verdana&quot;&gt;R&lt;/font&gt;" style="text;html=1;align=center;verticalAlign=middle;whiteSpace=wrap;rounded=0;fontFamily=Helvetica;fontSize=11;fontColor=default;labelBackgroundColor=none;" vertex="1" parent="1">
          <mxGeometry x="390" y="372" width="60" height="30" as="geometry" />
        </mxCell>
        <mxCell id="1gPnykWYMlendHl-3gnx-226" value="&lt;font face=&quot;Verdana&quot;&gt;RS&lt;/font&gt;" style="text;html=1;align=center;verticalAlign=middle;whiteSpace=wrap;rounded=0;fontFamily=Helvetica;fontSize=11;fontColor=default;labelBackgroundColor=none;" vertex="1" parent="1">
          <mxGeometry x="390" y="398" width="60" height="30" as="geometry" />
        </mxCell>
        <mxCell id="1gPnykWYMlendHl-3gnx-227" value="&lt;font face=&quot;Verdana&quot;&gt;D&lt;/font&gt;" style="text;html=1;align=center;verticalAlign=middle;whiteSpace=wrap;rounded=0;fontFamily=Helvetica;fontSize=11;fontColor=default;labelBackgroundColor=none;" vertex="1" parent="1">
          <mxGeometry x="390" y="417.75" width="60" height="30" as="geometry" />
        </mxCell>
        <mxCell id="1gPnykWYMlendHl-3gnx-228" value="&lt;font face=&quot;Verdana&quot;&gt;VCC&lt;/font&gt;" style="text;html=1;align=center;verticalAlign=middle;whiteSpace=wrap;rounded=0;fontFamily=Helvetica;fontSize=11;fontColor=default;labelBackgroundColor=none;" vertex="1" parent="1">
          <mxGeometry x="386" y="446.75" width="60" height="30" as="geometry" />
        </mxCell>
        <mxCell id="1gPnykWYMlendHl-3gnx-229" value="&lt;font face=&quot;Verdana&quot;&gt;VREF&lt;/font&gt;" style="text;html=1;align=center;verticalAlign=middle;whiteSpace=wrap;rounded=0;fontFamily=Helvetica;fontSize=11;fontColor=default;labelBackgroundColor=none;" vertex="1" parent="1">
          <mxGeometry x="310" y="413" width="60" height="30" as="geometry" />
        </mxCell>
        <mxCell id="1gPnykWYMlendHl-3gnx-230" value="&lt;font face=&quot;Verdana&quot;&gt;GND&lt;/font&gt;" style="text;html=1;align=center;verticalAlign=middle;whiteSpace=wrap;rounded=0;fontFamily=Helvetica;fontSize=11;fontColor=default;labelBackgroundColor=none;" vertex="1" parent="1">
          <mxGeometry x="310" y="446.75" width="60" height="30" as="geometry" />
        </mxCell>
        <mxCell id="1gPnykWYMlendHl-3gnx-231" value="" style="verticalLabelPosition=bottom;shadow=0;dashed=0;align=center;html=1;verticalAlign=top;shape=mxgraph.electrical.transmission.2_line_bus;fontFamily=Helvetica;fontSize=11;fontColor=default;labelBackgroundColor=default;" vertex="1" parent="1">
          <mxGeometry x="60" y="387" width="260" height="18" as="geometry" />
        </mxCell>
        <mxCell id="1gPnykWYMlendHl-3gnx-235" value="" style="endArrow=none;html=1;rounded=0;strokeColor=default;align=center;verticalAlign=middle;fontFamily=Helvetica;fontSize=11;fontColor=default;labelBackgroundColor=default;edgeStyle=orthogonalEdgeStyle;exitX=1.003;exitY=0.599;exitDx=0;exitDy=0;exitPerimeter=0;strokeWidth=1.5;" edge="1" parent="1" source="1gPnykWYMlendHl-3gnx-219">
          <mxGeometry width="50" height="50" relative="1" as="geometry">
            <mxPoint x="460" y="432" as="sourcePoint" />
            <mxPoint x="540" y="381" as="targetPoint" />
          </mxGeometry>
        </mxCell>
        <mxCell id="1gPnykWYMlendHl-3gnx-238" value="&lt;span style=&quot;caret-color: rgb(0, 0, 0); color: rgb(0, 0, 0); font-family: Verdana; font-style: normal; font-variant-caps: normal; font-weight: 400; letter-spacing: normal; text-indent: 0px; text-transform: none; white-space: normal; word-spacing: 0px; -webkit-text-stroke-width: 0px; text-decoration: none; float: none; display: inline !important;&quot;&gt;&lt;font style=&quot;font-size: 6px;&quot;&gt;3.3V&lt;/font&gt;&lt;/span&gt;" style="text;whiteSpace=wrap;html=1;fontFamily=Helvetica;fontSize=11;fontColor=default;labelBackgroundColor=none;align=center;container=0;" vertex="1" parent="1">
          <mxGeometry x="624.5" y="484.5" width="40" height="40" as="geometry" />
        </mxCell>
        <mxCell id="1gPnykWYMlendHl-3gnx-239" value="" style="endArrow=none;html=1;rounded=0;strokeColor=default;align=center;verticalAlign=middle;fontFamily=Helvetica;fontSize=11;fontColor=default;labelBackgroundColor=default;edgeStyle=orthogonalEdgeStyle;" edge="1" parent="1">
          <mxGeometry width="50" height="50" relative="1" as="geometry">
            <mxPoint x="430" y="463" as="sourcePoint" />
            <mxPoint x="600" y="500" as="targetPoint" />
          </mxGeometry>
        </mxCell>
        <mxCell id="1gPnykWYMlendHl-3gnx-240" value="" style="endArrow=none;html=1;rounded=0;strokeColor=default;align=center;verticalAlign=middle;fontFamily=Helvetica;fontSize=11;fontColor=default;labelBackgroundColor=default;entryX=0.603;entryY=1.02;entryDx=0;entryDy=0;entryPerimeter=0;" edge="1" parent="1" target="c5eu0mcJMc6bDwEQeXFq-1435">
          <mxGeometry width="50" height="50" relative="1" as="geometry">
            <mxPoint x="600" y="500" as="sourcePoint" />
            <mxPoint x="610" y="496.75" as="targetPoint" />
          </mxGeometry>
        </mxCell>
        <mxCell id="1gPnykWYMlendHl-3gnx-241" value="&lt;span style=&quot;caret-color: rgb(0, 0, 0); color: rgb(0, 0, 0); font-family: Verdana; font-style: normal; font-variant-caps: normal; font-weight: 400; letter-spacing: normal; text-indent: 0px; text-transform: none; white-space: normal; word-spacing: 0px; -webkit-text-stroke-width: 0px; text-decoration: none; float: none; display: inline !important;&quot;&gt;&lt;font style=&quot;font-size: 6px;&quot;&gt;GND&lt;/font&gt;&lt;/span&gt;" style="text;whiteSpace=wrap;html=1;fontFamily=Helvetica;fontSize=11;fontColor=default;labelBackgroundColor=none;align=center;container=0;" vertex="1" parent="1">
          <mxGeometry x="624.5" y="343.75" width="40" height="40" as="geometry" />
        </mxCell>
        <mxCell id="1gPnykWYMlendHl-3gnx-243" value="&lt;font color=&quot;#0000cc&quot; style=&quot;font-size: 26px;&quot; face=&quot;Times New Roman&quot;&gt;TEENSY 4.1&lt;/font&gt;" style="text;html=1;align=center;verticalAlign=middle;whiteSpace=wrap;rounded=0;fontFamily=Helvetica;fontSize=11;fontColor=default;labelBackgroundColor=none;" vertex="1" parent="1">
          <mxGeometry x="584" y="610" width="160" height="34" as="geometry" />
        </mxCell>
        <mxCell id="1gPnykWYMlendHl-3gnx-244" value="&lt;font face=&quot;Times New Roman&quot; color=&quot;#0000cc&quot; style=&quot;font-size: 26px;&quot;&gt;CAN TRANSCEIVER&lt;/font&gt;" style="text;html=1;align=center;verticalAlign=middle;whiteSpace=wrap;rounded=0;fontFamily=Helvetica;fontSize=11;fontColor=default;labelBackgroundColor=none;" vertex="1" parent="1">
          <mxGeometry x="295" y="280" width="160" height="74" as="geometry" />
        </mxCell>
        <mxCell id="1gPnykWYMlendHl-3gnx-245" value="" style="endArrow=none;html=1;rounded=0;strokeColor=default;align=center;verticalAlign=middle;fontFamily=Helvetica;fontSize=11;fontColor=default;labelBackgroundColor=default;entryX=0;entryY=0.5;entryDx=0;entryDy=0;edgeStyle=orthogonalEdgeStyle;" edge="1" parent="1" target="1gPnykWYMlendHl-3gnx-230">
          <mxGeometry width="50" height="50" relative="1" as="geometry">
            <mxPoint x="271" y="600" as="sourcePoint" />
            <mxPoint x="280" y="461.53" as="targetPoint" />
            <Array as="points">
              <mxPoint x="271" y="600" />
              <mxPoint x="271" y="462" />
            </Array>
          </mxGeometry>
        </mxCell>
        <mxCell id="1gPnykWYMlendHl-3gnx-246" value="" style="endArrow=none;html=1;rounded=0;strokeColor=default;align=center;verticalAlign=middle;fontFamily=Helvetica;fontSize=11;fontColor=default;labelBackgroundColor=default;" edge="1" parent="1" target="1gPnykWYMlendHl-3gnx-250">
          <mxGeometry width="50" height="50" relative="1" as="geometry">
            <mxPoint x="272" y="546" as="sourcePoint" />
            <mxPoint x="330" y="546" as="targetPoint" />
          </mxGeometry>
        </mxCell>
        <mxCell id="1gPnykWYMlendHl-3gnx-247" value="" style="endArrow=none;html=1;rounded=0;strokeColor=default;align=center;verticalAlign=middle;fontFamily=Helvetica;fontSize=11;fontColor=default;labelBackgroundColor=default;" edge="1" parent="1">
          <mxGeometry width="50" height="50" relative="1" as="geometry">
            <mxPoint x="430" y="416" as="sourcePoint" />
            <mxPoint x="530" y="416" as="targetPoint" />
          </mxGeometry>
        </mxCell>
        <mxCell id="1gPnykWYMlendHl-3gnx-248" value="" style="pointerEvents=1;verticalLabelPosition=bottom;shadow=0;dashed=0;align=center;html=1;verticalAlign=top;shape=mxgraph.electrical.signal_sources.signal_ground;fontFamily=Helvetica;fontSize=11;fontColor=default;labelBackgroundColor=default;direction=north;" vertex="1" parent="1">
          <mxGeometry x="530.0032920587389" y="407.7464578293266" width="15.049198005121996" height="16.555744745959082" as="geometry" />
        </mxCell>
        <mxCell id="1gPnykWYMlendHl-3gnx-249" value="" style="pointerEvents=1;verticalLabelPosition=bottom;shadow=0;dashed=0;align=center;html=1;verticalAlign=top;shape=mxgraph.electrical.signal_sources.signal_ground;fontFamily=Helvetica;fontSize=11;fontColor=default;labelBackgroundColor=default;" vertex="1" parent="1">
          <mxGeometry x="263" y="599.9997311997452" width="16.555744745959082" height="15.049198005121996" as="geometry" />
        </mxCell>
        <mxCell id="1gPnykWYMlendHl-3gnx-250" value="" style="pointerEvents=1;verticalLabelPosition=bottom;shadow=0;dashed=0;align=center;html=1;verticalAlign=top;shape=mxgraph.electrical.capacitors.capacitor_3;fontFamily=Helvetica;fontSize=11;fontColor=default;labelBackgroundColor=default;direction=west;aspect=fixed;" vertex="1" parent="1">
          <mxGeometry x="350" y="529.4" width="56" height="33.6" as="geometry" />
        </mxCell>
        <mxCell id="1gPnykWYMlendHl-3gnx-251" value="" style="endArrow=oval;html=1;rounded=0;strokeColor=default;align=center;verticalAlign=middle;fontFamily=Helvetica;fontSize=11;fontColor=default;labelBackgroundColor=default;edgeStyle=orthogonalEdgeStyle;endFill=1;endSize=3;" edge="1" parent="1">
          <mxGeometry width="50" height="50" relative="1" as="geometry">
            <mxPoint x="404.48" y="546.75" as="sourcePoint" />
            <mxPoint x="480" y="463" as="targetPoint" />
          </mxGeometry>
        </mxCell>
        <mxCell id="1gPnykWYMlendHl-3gnx-252" value="" style="endArrow=none;html=1;rounded=0;strokeColor=default;align=center;verticalAlign=middle;fontFamily=Helvetica;fontSize=11;fontColor=default;labelBackgroundColor=default;entryX=0;entryY=0.5;entryDx=0;entryDy=0;entryPerimeter=0;" edge="1" parent="1" target="1gPnykWYMlendHl-3gnx-253">
          <mxGeometry width="50" height="50" relative="1" as="geometry">
            <mxPoint x="269.52" y="586.75" as="sourcePoint" />
            <mxPoint x="360" y="587" as="targetPoint" />
          </mxGeometry>
        </mxCell>
        <mxCell id="1gPnykWYMlendHl-3gnx-253" value="" style="pointerEvents=1;verticalLabelPosition=bottom;shadow=0;dashed=0;align=center;html=1;verticalAlign=top;shape=mxgraph.electrical.capacitors.capacitor_1;fontFamily=Helvetica;fontSize=11;fontColor=default;labelBackgroundColor=default;aspect=fixed;" vertex="1" parent="1">
          <mxGeometry x="350" y="571" width="56" height="33.6" as="geometry" />
        </mxCell>
        <mxCell id="1gPnykWYMlendHl-3gnx-254" value="" style="endArrow=none;html=1;rounded=0;strokeColor=default;align=center;verticalAlign=middle;fontFamily=Helvetica;fontSize=11;fontColor=default;labelBackgroundColor=default;edgeStyle=orthogonalEdgeStyle;exitX=1;exitY=0.5;exitDx=0;exitDy=0;exitPerimeter=0;" edge="1" parent="1" source="1gPnykWYMlendHl-3gnx-253">
          <mxGeometry width="50" height="50" relative="1" as="geometry">
            <mxPoint x="430" y="586.75" as="sourcePoint" />
            <mxPoint x="480" y="536.75" as="targetPoint" />
          </mxGeometry>
        </mxCell>
        <mxCell id="1gPnykWYMlendHl-3gnx-255" value="&lt;font face=&quot;Verdana&quot;&gt;C51&lt;/font&gt;" style="text;html=1;align=center;verticalAlign=middle;resizable=0;points=[];autosize=1;strokeColor=none;fillColor=none;fontFamily=Helvetica;fontSize=11;fontColor=default;labelBackgroundColor=default;" vertex="1" parent="1">
          <mxGeometry x="325" y="518" width="50" height="30" as="geometry" />
        </mxCell>
        <mxCell id="1gPnykWYMlendHl-3gnx-256" value="&lt;font face=&quot;Verdana&quot;&gt;C50&lt;/font&gt;" style="text;html=1;align=center;verticalAlign=middle;resizable=0;points=[];autosize=1;strokeColor=none;fillColor=none;fontFamily=Helvetica;fontSize=11;fontColor=default;labelBackgroundColor=default;" vertex="1" parent="1">
          <mxGeometry x="325" y="561" width="50" height="30" as="geometry" />
        </mxCell>
        <mxCell id="1gPnykWYMlendHl-3gnx-257" value="&lt;span style=&quot;font-family: Verdana;&quot;&gt;F2&lt;/span&gt;" style="text;html=1;align=center;verticalAlign=middle;resizable=0;points=[];autosize=1;strokeColor=none;fillColor=none;fontFamily=Helvetica;fontSize=11;fontColor=default;labelBackgroundColor=default;" vertex="1" parent="1">
          <mxGeometry x="675" y="134" width="40" height="30" as="geometry" />
        </mxCell>
        <mxCell id="1gPnykWYMlendHl-3gnx-258" value="&lt;font color=&quot;#009900&quot; style=&quot;font-size: 18px;&quot; face=&quot;Times New Roman&quot;&gt;CAN BUS&lt;/font&gt;" style="text;html=1;align=center;verticalAlign=middle;whiteSpace=wrap;rounded=0;fontFamily=Helvetica;fontSize=11;fontColor=default;labelBackgroundColor=none;" vertex="1" parent="1">
          <mxGeometry x="20" y="359" width="160" height="74" as="geometry" />
        </mxCell>
        <mxCell id="1gPnykWYMlendHl-3gnx-265" value="&lt;span style=&quot;font-family: Verdana;&quot;&gt;4.7 k&lt;/span&gt;&lt;span style=&quot;white-space: normal; caret-color: rgb(31, 31, 31); color: rgb(31, 31, 31); font-family: &amp;quot;Google Sans&amp;quot;, Arial, sans-serif; text-align: left;&quot;&gt;&amp;nbsp;&lt;/span&gt;&lt;span style=&quot;white-space: normal; caret-color: rgb(31, 31, 31); color: rgb(31, 31, 31); font-family: &amp;quot;Google Sans&amp;quot;, Arial, sans-serif; text-align: left;&quot;&gt;&lt;font style=&quot;font-size: 11px;&quot;&gt;Î©&lt;/font&gt;&lt;/span&gt;" style="text;html=1;align=center;verticalAlign=middle;resizable=0;points=[];autosize=1;strokeColor=none;fillColor=none;fontFamily=Helvetica;fontSize=11;fontColor=default;labelBackgroundColor=none;" vertex="1" parent="1">
          <mxGeometry x="890" y="133" width="60" height="30" as="geometry" />
        </mxCell>
        <mxCell id="1gPnykWYMlendHl-3gnx-267" value="&lt;span style=&quot;font-family: Verdana;&quot;&gt;78 k&lt;/span&gt;&lt;span style=&quot;white-space: normal; caret-color: rgb(31, 31, 31); color: rgb(31, 31, 31); font-family: &amp;quot;Google Sans&amp;quot;, Arial, sans-serif; text-align: left;&quot;&gt;&amp;nbsp;&lt;/span&gt;&lt;span style=&quot;white-space: normal; caret-color: rgb(31, 31, 31); color: rgb(31, 31, 31); font-family: &amp;quot;Google Sans&amp;quot;, Arial, sans-serif; text-align: left;&quot;&gt;&lt;font style=&quot;font-size: 11px;&quot;&gt;Î©&lt;/font&gt;&lt;/span&gt;" style="text;html=1;align=center;verticalAlign=middle;resizable=0;points=[];autosize=1;strokeColor=none;fillColor=none;fontFamily=Helvetica;fontSize=11;fontColor=default;labelBackgroundColor=none;" vertex="1" parent="1">
          <mxGeometry x="951.08" y="133" width="60" height="30" as="geometry" />
        </mxCell>
        <mxCell id="1gPnykWYMlendHl-3gnx-282" value="" style="shape=image;verticalLabelPosition=bottom;labelBackgroundColor=default;verticalAlign=top;aspect=fixed;imageAspect=0;image=data:image/png,iVBORw0KGgoAAAANSUhEUgAABrcAAACeCAYAAACYeFEiAAAMP2lDQ1BJQ0MgUHJvZmlsZQAASImVVwdYU8kWnluSkEASIICAlNCbICIlgJQQWgDpRbARkgChxBgIKnZ0UcG1iwjY0FURxQ6IHbGzKPa+WFBQ1sWCXXmTArruK9873zf3/vefM/85c+7cMgDQT/AkkhxUE4Bccb40NiSAOSY5hUnqAgigAS3gDeg8fp6EHR0dAaANnP9u725Ab2hXHeVa/+z/r6YlEObxAUCiIU4T5PFzIT4AAF7Fl0jzASDKeYsp+RI5hg3oSGGCEC+U4wwlrpLjNCXeo/CJj+VA3AKAmgaPJ80AgHYZ8swCfgbUoPVC7CwWiMQA0JkQ++bmThJAnAqxLfSRQCzXZ6X9oJPxN820QU0eL2MQK+eiMLVAUZ4khzft/yzH/7bcHNlADGvYNDKlobHyOcO63cqeFC7HGhD3iNMioyDWhviDSKDwhxilZMpCE5T+qBE/jwNrBvQgdhbwAsMhNoI4WJwTGaHi09JFwVyI4QpBp4ryufEQ60O8UJgXFKfy2SidFKuKhdanSzlsFX+OJ1XElcd6IMtOYKv0X2cKuSp9jFaYGZ8EMQViywJRYiTENIid8rLjwlU+owozOZEDPlJZrDx/S4hjheKQAKU+VpAuDY5V+Zfk5g3MF9uYKeJGqvC+/Mz4UGV9sBY+T5E/nAt2WShmJwzoCPPGRAzMRSAMDFLOHesSihPiVDofJPkBscqxOEWSE63yx82FOSFy3hxi17yCONVYPDEfLkilPp4uyY+OV+aJF2bxwqKV+eDLQATggEDABDLY0sAkkAVEbT0NPfBK2RMMeEAKMoAQOKqYgRFJih4xPMaBQvAnREKQNzguQNErBAWQ/zrIKo+OIF3RW6AYkQ2eQpwLwkEOvJYpRokHoyWCJ5AR/SM6DzY+zDcHNnn/v+cH2O8MGzIRKkY2EJFJH/AkBhEDiaHEYKIdboj74t54BDz6w+aCs3DPgXl89yc8JbQTHhGuEzoItyeKiqQ/ZTkadED9YFUt0n6sBW4NNd3wANwHqkNlXA83BI64K4zDxv1gZDfIclR5y6vC/En7bzP44W6o/MjOZJQ8hOxPtv15JM2e5jaoIq/1j/VR5po2WG/OYM/P8Tk/VF8Az+E/e2ILsf3YWewkdh47gjUAJnYca8RasaNyPLi6nihW10C0WEU+2VBH9I94A3dWXsk851rnbucvyr584VT5OxpwJkmmSUUZmflMNvwiCJlcMd9pGNPF2cUVAPn3Rfn6ehOj+G4geq3fuXl/AOBzvL+///B3Luw4AHs94ON/6Dtny4KfDnUAzh3iy6QFSg6XHwjwLUGHT5oBMAEWwBbOxwW4w++YPwgCYSAKxINkMAFmnwnXuRRMATPAXFAMSsEysBpUgA1gM9gOdoF9oAEcASfBGXARXAbXwV24ejrBC9AL3oHPCIKQECrCQAwQU8QKcUBcEBbiiwQhEUgskoykIhmIGJEhM5B5SCmyAqlANiE1yF7kEHISOY+0I7eRh0g38hr5hGKoBqqDGqPW6HCUhbLRcDQeHY9moJPRQnQ+ugQtR6vRnWg9ehK9iF5HO9AXaB8GMHVMDzPDHDEWxsGisBQsHZNis7ASrAyrxuqwJnifr2IdWA/2ESfiDJyJO8IVHIon4Hx8Mj4LX4xX4NvxerwFv4o/xHvxbwQqwYjgQPAicAljCBmEKYRiQhlhK+Eg4TR8ljoJ74hEoh7RhugBn8VkYhZxOnExcR1xN/EEsZ34mNhHIpEMSA4kH1IUiUfKJxWT1pJ2ko6TrpA6SR/U1NVM1VzUgtVS1MRqRWplajvUjqldUXum9pmsSbYie5GjyALyNPJS8hZyE/kSuZP8maJFsaH4UOIpWZS5lHJKHeU05R7ljbq6urm6p3qMukh9jnq5+h71c+oP1T9qaGvYa3A0xmnINJZobNM4oXFb4w2VSrWm+lNTqPnUJdQa6inqA+oHGoPmROPSBLTZtEpaPe0K7SWdTLeis+kT6IX0Mvp++iV6jyZZ01qTo8nTnKVZqXlI86ZmnxZDa4RWlFau1mKtHVrntbq0SdrW2kHaAu352pu1T2k/ZmAMCwaHwWfMY2xhnGZ06hB1bHS4Olk6pTq7dNp0enW1dV11E3Wn6lbqHtXt0MP0rPW4ejl6S/X26d3Q+zTEeAh7iHDIoiF1Q64Mea8/VN9fX6hfor9b/7r+JwOmQZBBtsFygwaD+4a4ob1hjOEUw/WGpw17huoM9R7KH1oydN/QO0aokb1RrNF0o81GrUZ9xibGIcYS47XGp4x7TPRM/E2yTFaZHDPpNmWY+pqKTFeZHjd9ztRlspk5zHJmC7PXzMgs1ExmtsmszeyzuY15gnmR+W7z+xYUC5ZFusUqi2aLXktTy9GWMyxrLe9Yka1YVplWa6zOWr23trFOsl5g3WDdZaNvw7UptKm1uWdLtfWznWxbbXvNjmjHssu2W2d32R61d7PPtK+0v+SAOrg7iBzWObQPIwzzHCYeVj3spqOGI9uxwLHW8aGTnlOEU5FTg9PL4ZbDU4YvH352+DdnN+cc5y3Od0dojwgbUTSiacRrF3sXvkuly7WR1JHBI2ePbBz5ytXBVei63vWWG8NttNsCt2a3r+4e7lL3OvduD0uPVI8qj5ssHVY0azHrnCfBM8BztucRz49e7l75Xvu8/vJ29M723uHdNcpmlHDUllGPfcx9eD6bfDp8mb6pvht9O/zM/Hh+1X6P/C38Bf5b/Z+x7dhZ7J3slwHOAdKAgwHvOV6cmZwTgVhgSGBJYFuQdlBCUEXQg2Dz4Izg2uDeELeQ6SEnQgmh4aHLQ29yjbl8bg23N8wjbGZYS7hGeFx4RfijCPsIaUTTaHR02OiVo+9FWkWKIxuiQBQ3amXU/Wib6MnRh2OIMdExlTFPY0fEzog9G8eImxi3I+5dfED80vi7CbYJsoTmRHriuMSaxPdJgUkrkjrGDB8zc8zFZMNkUXJjCiklMWVrSt/YoLGrx3aOcxtXPO7GeJvxU8efn2A4IWfC0Yn0ibyJ+1MJqUmpO1K/8KJ41by+NG5aVVovn8Nfw38h8BesEnQLfYQrhM/SfdJXpHdl+GSszOjO9Mssy+wRcUQVoldZoVkbst5nR2Vvy+7PScrZnauWm5p7SKwtzha3TDKZNHVSu8RBUizpmOw1efXkXmm4dGsekjc+rzFfB/7It8psZb/IHhb4FlQWfJiSOGX/VK2p4qmt0+ynLZr2rDC48Lfp+HT+9OYZZjPmzng4kz1z0yxkVtqs5tkWs+fP7pwTMmf7XMrc7Lm/FzkXrSh6Oy9pXtN84/lz5j/+JeSX2mJasbT45gLvBRsW4gtFC9sWjVy0dtG3EkHJhVLn0rLSL4v5iy/8OuLX8l/7l6QvaVvqvnT9MuIy8bIby/2Wb1+htaJwxeOVo1fWr2KuKln1dvXE1efLXMs2rKGska3pKI8ob1xruXbZ2i8VmRXXKwMqd1cZVS2qer9OsO7Kev/1dRuMN5Ru+LRRtPHWppBN9dXW1WWbiZsLNj/dkrjl7G+s32q2Gm4t3fp1m3hbx/bY7S01HjU1O4x2LK1Fa2W13TvH7by8K3BXY51j3abdertL94A9sj3P96buvbEvfF/zftb+ugNWB6oOMg6W1CP10+p7GzIbOhqTG9sPhR1qbvJuOnjY6fC2I2ZHKo/qHl16jHJs/rH+44XH+05ITvSczDj5uHli891TY05da4lpaTsdfvrcmeAzp86yzx4/53PuyHmv84cusC40XHS/WN/q1nrwd7ffD7a5t9Vf8rjUeNnzclP7qPZjV/yunLwaePXMNe61i9cjr7ffSLhx6+a4mx23BLe6bufcfnWn4M7nu3PuEe6V3Ne8X/bA6EH1H3Z/7O5w7zj6MPBh66O4R3cf8x+/eJL35Evn/KfUp2XPTJ/VdLl0HekO7r78fOzzzheSF597iv/U+rPqpe3LA3/5/9XaO6a385X0Vf/rxW8M3mx76/q2uS+678G73Hef35d8MPiw/SPr49lPSZ+efZ7yhfSl/Kvd16Zv4d/u9ef290t4Up7iVwCDDU1PB+D1NgCoyQAw4P6MMla5/1MYotyzKhD4T1i5R1SYOwB18P89pgf+3dwEYM8WuP2C+vRxAERTAYj3BOjIkYNtYK+m2FfKjQj3ARuDvqblpoF/Y8o95w95/3wGclVX8PP5XwGqfGvLvfjDAAAAlmVYSWZNTQAqAAAACAAFARIAAwAAAAEAAQAAARoABQAAAAEAAABKARsABQAAAAEAAABSASgAAwAAAAEAAgAAh2kABAAAAAEAAABaAAAAAAAAAJAAAAABAAAAkAAAAAEAA5KGAAcAAAASAAAAhKACAAQAAAABAAAGt6ADAAQAAAABAAAAngAAAABBU0NJSQAAAFNjcmVlbnNob3SECvuDAAAACXBIWXMAABYlAAAWJQFJUiTwAAAC3WlUWHRYTUw6Y29tLmFkb2JlLnhtcAAAAAAAPHg6eG1wbWV0YSB4bWxuczp4PSJhZG9iZTpuczptZXRhLyIgeDp4bXB0az0iWE1QIENvcmUgNi4wLjAiPgogICA8cmRmOlJERiB4bWxuczpyZGY9Imh0dHA6Ly93d3cudzMub3JnLzE5OTkvMDIvMjItcmRmLXN5bnRheC1ucyMiPgogICAgICA8cmRmOkRlc2NyaXB0aW9uIHJkZjphYm91dD0iIgogICAgICAgICAgICB4bWxuczpleGlmPSJodHRwOi8vbnMuYWRvYmUuY29tL2V4aWYvMS4wLyIKICAgICAgICAgICAgeG1sbnM6dGlmZj0iaHR0cDovL25zLmFkb2JlLmNvbS90aWZmLzEuMC8iPgogICAgICAgICA8ZXhpZjpVc2VyQ29tbWVudD5TY3JlZW5zaG90PC9leGlmOlVzZXJDb21tZW50PgogICAgICAgICA8ZXhpZjpQaXhlbFhEaW1lbnNpb24+Mjg4MDwvZXhpZjpQaXhlbFhEaW1lbnNpb24+CiAgICAgICAgIDxleGlmOlBpeGVsWURpbWVuc2lvbj4xODAwPC9leGlmOlBpeGVsWURpbWVuc2lvbj4KICAgICAgICAgPHRpZmY6UmVzb2x1dGlvblVuaXQ+MjwvdGlmZjpSZXNvbHV0aW9uVW5pdD4KICAgICAgICAgPHRpZmY6WFJlc29sdXRpb24+MTQ0LzE8L3RpZmY6WFJlc29sdXRpb24+CiAgICAgICAgIDx0aWZmOllSZXNvbHV0aW9uPjE0NC8xPC90aWZmOllSZXNvbHV0aW9uPgogICAgICAgICA8dGlmZjpPcmllbnRhdGlvbj4xPC90aWZmOk9yaWVudGF0aW9uPgogICAgICA8L3JkZjpEZXNjcmlwdGlvbj4KICAgPC9yZGY6UkRGPgo8L3g6eG1wbWV0YT4Ki8YBaQAAQABJREFUeAHs3QeQnGl6H/Z/59w9oSfnHDHIcbGLxeY7XqJ5dyQlirQsX1Eqlyye6LIpk2VaLhflk6ukKhZd5fKRlCiGEuPd7t6GW2AXOS3SYHLOsadzms7t5xukAXZmdzCIA/z7bhY9Pf193/v+vm/QH97nfZ5XlZUH+KAABShAAQpQgAIUoAAFKEABClCAAhSgAAUoQAEKUIACFKDAFhBQb4E2sokUoAAFKEABClCAAhSgAAUoQAEKUIACFKAABShAAQpQgAIUWBFgcIsXAgUoQAEKUIACFKAABShAAQpQgAIUoAAFKEABClCAAhSgwJYRYHBry5wqNpQCFKAABShAAQpQgAIUoAAFKEABClCAAhSgAAUoQAEKUIDBLV4DFKAABShAAQpQgAIUoAAFKEABClCAAhSgAAUoQAEKUIACW0aAwa0tc6rYUApQgAIUoAAFKEABClCAAhSgAAUoQAEKUIACFKAABShAAQa3eA1QgAIUoAAFKEABClCAAhSgAAUoQAEKUIACFKAABShAAQpsGQEGt7bMqWJDKUABClCAAhSgAAUoQAEKUIACFKAABShAAQpQgAIUoAAFGNziNUABClCAAhSgAAUoQAEKUIACFKAABShAAQpQgAIUoAAFKLBlBBjc2jKnig2lAAUoQAEKUIACFKAABShAAQpQgAIUoAAFKEABClCAAhTQbobgrz/6DL/yr39/M5tyGwpQgAIUoAAFKEABClCAAhSgAAUoQAEKUIACFKAABShAAQpsWoCZW5um44YUoAAFKEABClCAAhSgAAUoQAEKUIACFKAABShAAQpQgAJPWoDBrSctzuNRgAIUoAAFKEABClCAAhSgAAUoQAEKUIACFKAABShAAQpsWoDBrU3TcUMKUIACFKAABShAAQpQgAIUoAAFKEABClCAAhSgAAUoQIEnLbCpNbd02RQcqfCTbiuPRwEKUIACFKAABShAAQpQgAIUoAAFKEABClCAAhSgAAUo8IIKWKwWHDnyKjYV3DJkEihMBVGY74RBb3hBCdltClCAAsByPAaXZwmFhYUwmUyAiioUoAAFKEABClCAAhR4tgW8Hi/S6TScBQU3b195D/tsnzC2jgIUoAAFKEABClBgRSAcCsNkVuN3/un3NhfcUvZiNBrxv/zmb6G9oYWsFKAABV5Ygctd1/C7/+H/xL/64Q+xb/8+CW5xZOCFvRjYcQpQgAIUoAAFKLBFBP7oD/8Q7iU3fu/3/zdoNBq5heU97BY5dWwmBShAAQpQgAIUeKEFPvrgQ7z/3ntQq9SbD26p5ea3pKAINeWVLzQmO08BCrzYAtNzMysARcVFqK6p4cDAi305sPcUoAAFKEABClBgSwjY7XZEI1FUV1dDq9XyHnZLnDU2kgIUoAAFKEABClDAWeCEWq1eqZ4l/+WDAhSgAAUoQAEKUIACFKAABShAAQpQgAIUoAAFKEABClCAAltDgMGtrXGe2EoKUIACFKAABShAAQpQgAIUoAAFKEABClCAAhSgAAUoQAERYHCLlwEFKEABClCAAhSgAAUoQAEKUIACFKAABShAAQpQgAIUoMCWEWBwa8ucKjaUAhSgAAUoQAEKUIACFKAABShAAQpQgAIUoAAFKEABClCAwS1eAxSgAAUoQAEKUIACFKAABShAAQpQgAIUoAAFKEABClCAAltGgMGtLXOq2FAKUIACFKAABShAAQpQgAIUoAAFKEABClCAAhSgAAUoQAEGt3gNUIACFKAABShAAQpQgAIUoAAFKEABClCAAhSgAAUoQAEKbBkBBre2zKliQylAAQpQgAIUoAAFKEABClCAAhSgAAUoQAEKUIACFKAABRjc4jVAAQpQgAIUoAAFKEABClCAAhSgAAUoQAEKUIACFKAABSiwZQQY3Noyp4oNpQAFKEABClCAAhSgAAUoQAEKUIACFKAABShAAQpQgAIUYHCL1wAFKEABClCAAhSgAAUoQAEKUIACFKAABShAAQpQgAIUoMCWEWBwa8ucKjaUAhSgAAUoQAEKUIACFKAABShAAQpQgAIUoAAFKEABClCAwS1eAxSgAAUoQAEKUIACFKAABShAAQpQgAIUoAAFKEABClCAAltGgMGtLXOq2FAKUIACFKAABShAAQpQgAIUoAAFKEABClCAAhSgAAUoQAEtCSiwtkAWmWQUydACRlwhBGPJVW/TwWB2IK+kAkUmDUxa1aqfAdl0DJllN8bmvPBH40jd+akeRtnOWVoBp0kNk+be7e687bE8ySC57EfYO4dJXxzL0iit3gJrYSXK7EbY9Y8gzpsMIRLyYGTWi1g6jYzWArWlGPUlNuQYddA8ln5xpxSgAAUoQIGHEZDP+1QCqVgEwWAYkYjyFUVoOYms2gCd0QSLzQqr1Q6bVZ6b9LjvY3+dg6dkv1H4Jibh8kfgT+oAjRPltU448y0wPdZbgMxKnxKREELhCMJhpU8RLCekrxo9dCYLHHYHrHbpk9kAk16DtZuTlXuaBBLRMEIh2Vfo5n6isp+sxgC92QabzQ6HwwarRfajfQT3Euto8mUKUIACFKAABShAgachkJKxpCCCM5NYCCYQSqig1piRX1UFZ44FdoN6nfvINdqazQAJH1zzS1hY8GFZvlXllSHP6URNvhlquSFd+550jX3xJQpQgAIUWBFgcIsXwjoCWSQDk/B0/hV+9PfXcWXCu+p9uShrOoTXfuNf4pfrLKi1r76MZOAo6kJ84kP8+E+P49TALEJ3tpRBrcaD+IUf/Et8q8qMGtuTDPckEZq/jp5P/wT//tQcxjyAvbQVHb/0Q/xgVzn2FpvutHKzTzKBUUx3fozf+/ExTAejSOS1wND6q/i//vFuvFSdB+tmd8ztKEABClCAAo9NIINU1A3fVD+uXrmB3p4e9A6MonPEhaSpFAVVDWjtaMe2jl3Ytb0BTTUFcEh06yv/4Z2VCTLhIVz+kx/hJ+cGcNadi6z1G/gXv/8tfPPtJlRvLEK2uV5nJFgXlUGDgevo7OpBV3cf+nv7MLYkgSpzMfKrW3Ho4EG079qNHY1lqC2yYPWdzN2DJpGMeeEZ7ULn1U5c77yB7r5+jLmSSFnLUVC3Hbv37sP+A9uxrbEC1bkGMLx1V4/PKEABClCAAhSgwNYXkElfc524+v/9CP/l8iJuLOihtzXind/+1/jG4VbsKzNiw/O2sylk3Vdx7q9+ij//y1MYS6WhPfoDvPmNb+H33qmDUaPe+L62Pix7QAEKUOCRCKz9b/lHsmvuZOsLyMzkTAqpVBKJZGJVdwLwRZbQM+fD18r1yMqQ0N1BrjQSsSCWZkbgCgcRkO3uZm7JIFEqhXRWsrtW7e2JPZVZMpm0tCGp9EcmzCRlBk5GgnGPrAGKV1r6KINn0m9l/+qUHPNp9feR9Ys7ogAFKECB505A/nGNTAhzN87i83OX8Nn5Psz5/PAHZGaqZChF43HJflrA0lgY1z2jGL12Budrd6FlzyF87Z29qM0xwPFlWc/JZaQCi5ieCmDJLRM+ElZkE2mk5UPxsd0DKJ/zkRlM3LiEy2fP4ETXFBaW/AgofQoGEYnLZ35sTgJWYZxaGkPn6RM4u+Ml7Dz8Et4+ILNvJctav3JDIy0Um6XBK+i9cBofnOzB5KIHbn8AgaBkact+svEZpOIhnJ3vQ9+VDrTtPYS3fvEoOgoNyDGslwn23F1F7BAFKEABClCAAhR4/gVujSWllHEeZWhMBpRSyj1t9tZgz90BsS+xUMaLkoi656WqgQdzCaWiUBoG+VL2xQcFKEABCmxOgMGtzbm94FslEI0GMT6+AG97DuIwwXhHRD6gIx5MDk0iGJGBrTuv8wkFKEABClCAAs+GgEzEiLgQmryCM8c/wfFT13Gpbx6xrBpaWy6suZVoqDZAk44iGpQJLYvjmJgZx5SU3Z11hxFTG/H1ww1oq8iBba2pqtkEln3zmO/rwsBSEK5YRkocPuaeZyQYJ2VeJq+ewrkTJ3Ds9FVcm5a2pvQwWKQ8cFkjiiRypZFSibGwH7OjEszDOGY9IZmME4PG+A5eaipEVZ4RWhl4SCwNYuDKWfz8w89wqmseQaUEjcUOe0kDavQy8Uf2EfS6sDg2h7kZHzwRKX/srELOa9UwFVlh3NAgx2M24e4pQAEKUIACFKAABZ4JgWxaxsciCxjrHZJ7arkPz9ycCP1MNI6NoAAFKLCFBRjc2sIn78k2XUoQqVTQSpp0Wj6EE7Imx9LgBFyvVsmHcg6MtwetMrIeRXAJgzJIFgknoFarpW6wamUbZVILHxSgAAUoQAEKPGWBdASRxWEMfPxf8dOPB3BtPIiMygCjLQ+F9W2obWrE9hoH9IklLE3I+zp7pRRfEP7QuJTfjeKvPZKdlGtCbr4NTTa5lczKjFPJzE7JzNOszGxNxdyYH+zGtRNnccMrwS0lRfr2fcJj6bpkZCWDiHt6cfHDd/Hzs724NJ+QgJoR5pxSlNTUo/VAO6qlHLJ+eRHe6SGcPt2NpVAUkclr6IkE4dOVwW7ajQJHIayZGAIjl3Dt0mUcuzqDYFaCYqYiFNQ0y352otG+jNj0AEa6u9E56kM4PouFsRv4+L0W7G3JQ4nTAuPjLLv4WAy5UwpQgAIUoAAFKECBRyWgVPXJpKVaUFomeUlFpKQEtoKznTh/rhvDIws3M78e1cG4HwpQgAIvsACDWy/wyX+wrssC7FozKmRtKq+U9/FJVhamJ7Dk3wN/PIMC061Rq1gAEZ8LAzKoFI5pYTaZYLfp4XV7kWAa14OR890UoAAFKECBRy4ggaDgJOYHruDvftqL6aUo0rDB5GjEgV/5Ll4/1IY9NfmwGzVQZyWDKeyCb7oH5//hb/DJFVmLa96PzOQpXO/dhsrqcjS22KFKSAbT5AJmZlxSztCHaVnrqudGDy53j8ElC28/uvK/62GkEPNMYfbcB/isZxa9srYWdDaoS17Ca99+A2++sg3byh0rE3FUsh5XQrLWjh74AD/5iw9xRdYWm/UvYeaTs+jfVoq6GjuaDV7MyBpdczNzCEMj7bei+pXv4Og7b+CXD5TDopGZtr5BTFw7ib/4D3+HTk8YrpAfqaEbmJrbg6WaQhTkrC7ZvF67+ToFKEABClCAAhSgwPMnkEUqtAi/axZD81LS2jeL+dF+9F+7guuDc1jwy/0xJ38/f6edPaIABZ6KAINbT4V9Kx5UB53OgcrKYminphAPRaQ04Shm3H4Z0EmiwWSQTmWRlKwtj2cePVKCKJSxI9dmR0WJBsFAAPEvCW5lU7K/sBeL83OY93rg8vjgC0SQsjhhd+SjMK8QRcVlKM0zw27QylDTGo9MFGEZoFqcm8LkwqIMVsURTsns8vw8FJWUwByJSAnFDaz3lY4hHvVhQfYzPT+LKZcHs8E4dNZC5DtLpT/lqKsshdOkg4kzs9c4EXyJAhSgAAWeTQHlX9FxBGaGMd57A9cXw/DLGpSGomoU734brx/ZhwPNxahwSEnCW2X1snk5cObZYZDJK6n8KeTPAs7yKjTvrUeTUylKnJZdLko5wDM4efwaJlPL8Lrm4JLPznlv7AkEtpQmyFphs2O4/uk1zCz4EUmYYXbWofWNt/Dyy7uwp7UUhabb62DJegepXNh1UjrRHUPuRBhTKEZ5yTbsa5LsLCk5mE36sDgqQb2FsKwTqpMDlKGqtglt7Q2oKpGgmbwCRwbq+BJ21H+C6WRM1k6IIRtdhC+0LJN7Hn84T2kCHxSgAAUoQAEKUIACz6KABLeCM5jvP4OfHB+G3+dBwO2Ca3YB7mhSxsYY2XoWzxrbRAEKbE0BBre25nl7Cq3WQqu3obCiGqqAH9EZN6LZaUxKRtZcII5soR4qWWEr4pcPbNc8pqQGYUqdJyWAclFZnED/iHrtBeSlfFE2GYJ7YUzW8BrAjYFBDM/NSQ3iRSy4A0g4SlHgLENlaTWqa1uwvbkBjWUFKLUbVwJcN9d9l4G1bBz+hWGMDPfgSlc3eicmMLy4DF/CiKKyUlTXtaDMGIDZqyzauV59JLnBkPVF/K4JTI3342pfL/qGB9E/PY9hmdluyKtAaXkDmuvasaN9J3Y3lKOmwAYrA1xP4XrkISlAAQpQ4MEF5PMvG4FnWtbQGhjBQlompWStKCyvR/OrL2NPkwR5ciSwtWrHKo0JeptM6tj/GuJ5AdT69ChvqUGZ0yrZXZKdJGtdIeXH0nAvuk6exg2Zhirxsif7iHngnZvE1auzCASlBIyuCNaiNrx0dDe21RehSAJbdx9SZllrgrWkA3veSCLHr4JHV4rmWrnfsCiTVqS8oUxoicq9TXxZ7i9WVhUthDNXSjbmmVYCWyv3HgYLDA4nyoqMsEzI/gPKvUV8pTRjWpmKq4xZcN2tu+x8RgEKUIACFKAABV4YgawMLcn96XQvzp2+CG8wJkt1MKD1wpx+dpQCFHiiAgxuPVHurX0wlVYPfXEFKmVQLKlNykxlLyaW3JjxhWUgywodYvC5F+Can5cwl4zr6Jyw2vNQWuCRkoZrj/BkZVAs7evD5ZPv490T53FuQRbZVBbWlA/+lY/+yDDc8yMY6Lko63floeXor+BrRw/j+3sr5Ii4OQAnga1sfBrdZ/4e75+5hPdHfDe3lwBbVkaWfP5xDPZfg0GngkknM9YjyrCbkml230PWDMlGxtF7/j389KNjOD4fxXJSWeRTSjjJV9Q7iTHflAwIXscnZ0bxj37tm/jmy+3YbldmdfNBAQpQgAIUeNYFlOBWAF5ZxHph1CP1/5VP2lKUFdThpR3lyDXr7gls3emNWgeVvREtu7JolvWnVOqb63Cu/cl+Z6sn9iQTdMv9xyJ6fGmElT5JlrWpZge21+ag0L7Wre7NAJe94SB2ytuzsjaoWqWWtUWVJkvATmOGrdAEo7JtUF7MauUeRAON9PvOQ+4ZMqkYopK9nkoorspxrDAZ5F5JJ7ldq956Zxs+oQAFKEABClCAAhSgAAUoQAEKUOCRCaz1L/5HtnPu6HkSSEppnmV40iZU2kwoyJNLZzElC2Iuwe2SEoKZAuRn/fAseqScX1AGeWTt+IpS5JRJWUKDD7qbI0b3gsjs8Xh4Cjc++wBnrnbjxpKUA0xqkFe3T2ZQV2N7iQXq6AxG+vvQNzqDmdgSxjtP4LxRjVznL+C1UhPyDBkpkTiPxRsf4tMb/bg0E0Ayo4Y6RzKs6uvQUV2AYn0Us0PdGJycQr9H+rHmjBl5XcoQTV47gQtdXbi4GJOyRlaUte3HNskW21NmQso7iJ7OHlztnZYayZdw8kop9FY7ql6pg1UGsW6tOnZvH/kdBShAAQpQ4FkRkMkjiPkR8Ebg9kr5PSW2pc+Hxe5Ecb4OeqlFuG5MRoI/q2M7d7qkkgketjbs/f5vonj/LyKgBIuUHybcWF7qw0d/dhw9M1Iy+M4Gj/pJRtbQ8iMY9GNRDiyrbUGba4O5UkoJy7phxrXuP241QSUBqy/21witsQKt3/kBfrVjFvvdKSQyuajpKEG+JGjdfn8m7EF4bhI9U5IJF5YML70ZqtwquT+ywmFenSn2qPvL/VGAAhSgAAUoQAEKPNsCahhLd6LtnUL8u+ZfRSIpE6mVydeyBEZ4+DN8du4GPrs+i1RayfzngwIUoAAFHkaAwa2H0Xuhtk3JuhkphNMWWGX9DZWsOYFFLxKLiwi4ZK2sWBKOlJQSXPJhyq0MLRmQXyZlfJwaWBIRWZT+/g9tyYaK+xFeHMD561LKaNIFd1oZGGrAjj1HcGRHM3YXmaFensNIjhm5mhTe75lD1DWEwaFiWHp3YVtuBWySiRXxz6D/88/RJ4vZz4XV0BoKULPtMF7Zsw0v1xegUL+M+TIpqfi5GsFzPZhXlge5/9xJOcJUaBLdnd3oGZ3FQkrKHhZux47dR/DWvnbsLTEg5atEqfzGqGSG+CczLkwN9aGnsBJju6vRaFLDfP8++T0FKEABClDgmRKQz+J4VNbMjCO0vBKCkkiQFXqjBXYp3XdPZtJG2y1BL+ilXHCL8rVqo+VphCZV6P/JeYzJy0pQ6NYRV73pYZ8qe5QyyDHJtF6OICLfSaVF6GQdUEOeDRaN3BPcjkZt+FCSpaVxoKj1AOxVUTSLVUL2qbXkwqK/1YtUCN4puR+5dg09bqUEshp6Zz6cHW2oKLQh1/AlQcINt4NvpAAFKEABClCAAhTYmgIqaG3FKJCvV+tu90CCW8kwfDlSDWh8HCdvzEp579s/458UoAAFKLBZAQa3Niv3Am6XlVJEyYwM2hQWwRZwQtXpRda/iKDHjVlZSL0yLtlVXj/GQsr6WpLRVJKHYpuULJz0yWiTsm7F6ofUIA65EZAaxBdnA5gKp6C25UNX8waOHDiEt9pK4FyZIl6NCmsWNk0IlwYWMZ8IYck9h2tdY5jfVYgScxBh3yxu3JiG1yeLuaucMJibcfjlo3hjew125N4sGVhdKCWGJDjn6x3AJ76UZIitbosMjcUDiC8N4drAAiZkrS61vQLm1texf+cOHG6U/qpkZMsui9JHXLK0yDBOu0YQW5yAd3IE3UuvoLREz+DWvaT8jgIUoAAFnjUBJVUrI2X0ZJaoUklv5SElB9UaWVdTyUp64EDQs9HBTColtxnyJd1THiqtZJnptdBIhzaVVS0BO63RBpvylX9znzf/K4MSmQQSgXEMXf8cp05cwrAEv6JqG5xlFWh7YwdqleDWg0fUVh+EzylAAQpQgAIUoAAFKEABClCAAhTYgMCm/s2/gf3yLc+lgDLqpYNNyhfl5RbAJN9psovwRxYwNu+DZ24KC+EgllYWX69EtdOJUsm6WvuRQSwagMc1C18qKZlUWhilxF9FWz3KcqSkz53aRzIbOqcIhSVV2CEzoXPkis2GQkhOTGNRFnwPhgKI+pcwKAvIh5IyqmXKhbawBQ0lss6G7W7sVmWQLLKSCuzqKIBF1hS59yE5acshhFwTGEvE4M7KgvJGBxrqK1DisMC8Mtin/EcPm6MARSXlsGpkhjsk80xKJY4thRFL3B+8u/cI/I4CFKAABSjw1AWU6JWyfqZEsqTC782Hst6kstalUirlqTdwcw3Q6HTQ6vQrWVorH9lSfjibkjWxHnWfJMs7HRpH98//AT8/fh7HhsJYliihytmOipYD+M6BUhQ5DJsLqG2u69yKAhSgAAUoQAEKUIACFKAABSjwwgrcHf1/YQnY8QcTkGCTwwlHfjGaZGBsNBuEP+rCyOI8ZoKT8IVDiOstkuXUiPKCHBRZvBICWuuRRjK5jIgEw5KS1ZWRUJFOZ0R+nkPK/sgM8lWbqA1mGM12FMpMaIlvyYIaCWQkqBWKpRBbjslXRMoIZrFSYclghDrPiVyzHpbVM6fVRphtuSgpdUKvV1p0e8q6ciApaZSUNbYCXoRl9ncc0h7J0HJd/yl+umDDZevtYJiUUpRAnnt+HMGErFUi+4jEgxh3hxFNWrfsoKAiwAcFKEABCrwAAkoJQYMVFotR1oWSD9SghLMSAcQiAXhDaaRzlODXSnhoi2AobVVDJ2UVzSYpmyzfheSlVGgZyy4/QinJUFPmvTyKLqUC8E33Yej8cXxw7CIu9c3BmzRAld+EXUeO4vXX96Cj0CTlktV31uXaIohsJgUoQAEKUIACFKAABShAAQpQYEsKrI4hbMkOsNFPXkBjzUNOXhHarRosRmMIRiR7aWYcw1Ie0BeMQGUqg6G6ESV5duTLEM/awS0JDWXSSEnW1u2Z4iqZUa6V9THU8uc941AyGKdS31w3Q5l0LlPMpcxhUkoQyUxz2YfypayhtRKukowqGA3QSebX7UnpN4XUspaIFnqDzKiWfd0f3EpLO2LLsu6WzF6XgolIhBcxfeVdTN/ceJ3/qrAsAbr5YBRxaUv23gOusw1fpgAFKEABCjwlASW4pXfIBBUpo1dohCoUBZIu+P2SgT0bQbvFBqtkdd3zGbzSVPmklgWwl+MyGSSjgUkmkCjrc33xfU+jXyrorLlwOPJQJmtijUs0K+zzITI+jdlgh2RxG2CSgNMXHnIvkZa1uuLy4Z3RGGDWa+T+4wvvknsOyWxLReGf60ffpRM49pOf4dNBH1wxWdcrvwblu97CG2+9hNf21aLIwMDWGoJ8iQIUoAAFKEABClCAAhSgAAUo8FgE1vjX/mM5Dnf6PAno7DDLIFJthQwGGYGIDIpNj3bjxvgSloJJGCwWlLRWo8gmM5jXGihasVBBI2t86PUyuLYSsZLSgBKwCi7Lwu1KoGi1VzqBdCIOmVQOSdCSxTQkgCUDUTpZU0OrN8g+THDKywZlG2Vtr3hCBt+UvKrVDwlYJaII+r0SUEut/oE8l/JFMsiVykg2lrIeyYYfcgzZTglspR9ouw0fgG+kAAUoQAEKPEIB+fxU58JZVYKyZlk7cyWaM4f5pVFc7JqDLyoTR9Y6mkwiyUbnMT89g8FRt5QBVj4z13rj03lNlVOIvKJS7M7VwKZknnnnsDzcia7xANwhJdP6i4+srD0WnR/FzNQMRpYkyPWF+4ab22RTy8jIWptdn/wE7/7t+/jbTrnXCcvCnY5aFG77Ov7pD76DN/fVoUpKIa97y/PFw/MVClCAAhSgAAUoQAEKUIACFKAABR5SgJlbDwn4Qm6uMkmJPyfqmkthds8h63chGg/jWjIiZfossBUWoqOqAHnKzO7wekJamEwOOAtKYNZOSRnChJRFCmK6fwzzbbkIFllk3S1lWykpJPtfWpxCVzyDgDKYJsEzTWkpCmQ2ts1mA6TcYI3Mlp6TsaZANIz03CTm/LvgL7TDIa+vPDKyplbAjYkxL+JSzlDqLt18feW/UtJIAmSOnHyYtLIAvfI/ewkKdn4dX28pQXuheVUWWEpKGMbh9yxDb7PClF8CW3EF6mSNDdW6fV11KD6lAAUoQAEKPDUBJfxiRl5FLaqbmlBxbBbzGZk8MjGA4Q/ew7HCbyO1swpNBeY71QmzqRBivkn0HvspPr02g16fGfkNu3Hg8F7saq5EvVMmqTx0f5TP5RDGP3sfVy7fwJmpuASkjCjoOIy2w6/i6432tbOvbh9Xl4fc0irsfKkGF0/PYNHlQ9DbLVlWx5GTPQzjHumvXXernTIxJRmGf/Q8jv/th7g6uQy3uQr1uw/hpQOtaK0ugHPl3kECeKFZLI124uxHH+HU5V50jQaQzFqQ13YYuw+/gleP7MP+2lwUWOTe4eERbveGf1KAAhSgAAUoQAEKUIACFKAABSiwAYHVI/wbeDvfQgFFwCBrYOWgvLoClqteaBYlGyoewaLyI3UOCs0laCu3wyZZXeuP9UhAyZovg1F1aMzphj8g20dlMGr4Iq71W5CrT6HZoYcq6cVcXxeudA9hUmaKR7MGWHKdKG+uRolVnhvtyOQWo602Bz1jPsyFfEh4e3GtbxsKTWrYSq0wqlIIu/owMDSAi1NhhBPKvPTVl760xSxlmkrqUGvvxbwrDI9M886ktJKhVoqy6lIUy7E0MgAYkxKMS645BBYDSGsdsDmK0Fog65foWYpIOf18UIACFKDAsyygfCrrYC6sRUXzDrzU3IWT4z7MBObg7jmNUx9qEFtsw2xdMYpl0oY6I2tXeWexMNaDKydO4vOBOYwt58C4ZENRQwuaGh9VX5WZK8vwjXeh7+wn+KgnIpnUVlQnnVA3HsCbdTYJbn3JsdRW2Iuq0HzkIJrGP4UvNA9XZAbjnx/HKX0YcXcrttUVwS6f1ZpUGMv+OQxc+hQnT1zCwOwywrYFLFnqUddShyaZVJPNJBBdmsJk32V0XjiLY8cvoH8hDHdMJu2YnCgsr0JlmQS1jFEEpkcQXrnZkck0Uv7YKpN2cmxm2G9PrvmSZvNHFKAABShAAQpQgAJbTSAlY0UBLI50occURHpSv1La+u7Yl/LMgpySYhSWyaRvuf9cs/T1Vus220sBClDgGRVYPcL/jDaRzXr2BNSydpUVzpJK5BiHZG61lCa83Uh9Piz2MjQUGWE1JHF/AcDbb1PCXhpLPuwV7Xil5jy8gRC8Sz4kZ0/g1Fk1ooElBGvtUAeH0HnpEi7dGIBfxr5Usv/S0mrs31mLUosRZo0e2bxK7DzQgFPhfoyGJTNruRunzpXBlF2GsaMETnUE09dP4PSVqzjhlpJLX6hPJG0x58FWuR0HKy7C7fbigmcJCxfexceJBbiWWrC3Ig/6pE8qHfWjv/8GPrs+jVT5Yew89CZ+PbcA7VrdykL2d/vHZxSgAAUoQIFnU0CTU4mS5t341teuY/ZnPfANLyESHsD1d8cxeq0Rp+sbsF0mjegTMqFjYgQDXYOYDUsZ3qwWWodkdRnzkJdjQ45VJqE8E13USSZ1JSoPvI2Xr44j5AshOCUZZ4sXceEfBtF/sQoN+7ahxq6BIboAz8wwzl4YRSSrQlZrhdVihjGvAA4JSll1spZn0o/Frk9x4r1j+OBkF8bDacnYko7qJEtb+m7X+uAfu4LzU1dX9V4LtcaBuiNvoaOxAjYJbj0bNquayKcUoAAFKEABClCAAg8pEEcyLhOlTr8Lb7cV54yyXu09N31SBhyV6HjjKA5/PVcKDekhS7vyvvAh1bk5BShAgfUEGNxaT4avf4mACmqjBYaSejSYzmNMJisPKpOu5aEuKYK1tgI1kjUl/5ciQ1/ykJnWRkcdDrz5JhalpKDnYi+GlmNYGj6L07NX0WmQOwBZwD4almyrmCz4njWjvOVl7N9/CN9ozEGu3ETI4lswSQnBmv1fw+HxCIKeEK76lxEdP4FP3Z/j6jG9lFaS9bYiUSzHJdhl0mI5loYsk3XvQ9qik1nb+99+BwGtHoHzN9AbXJJZ2yfhnriE83I3opJF5VNJmcUu64IFkwYU5xSjpLAIZVLqSM96RPd68jsKUIACFHiGBWRySGEjmr79A/yy6u/gOHYRx67OSHZ0ApHFEYwHpLRfjwbqbEr+8R7DcjSDpKxJpcqtQ0nHEXz7V97GodYSFBtvlf59FnqqtUGb04rD3/8VaBw50HxwCuckwBVNhiR7ewh9J2cwJp/VKllrK5WIrQS2MpKJ7qjZhbZXvobvf70d2yqk/KFqWbLRZ9D/87PovjyEaen7ynqfSh+lRGM6MIiesxMY0kkJ43tGMiyyDmglXq/di4qqMmU5T45iPAvXBdtAAQpQgAIUoAAFHqmATIRKR+GXyVKReQ2mv3A7rJQbUCO3NYyo3EQq/+NN4SM9AdwZBShAgXsEGNy6h4PfbFRApTXK4FEpKpwWFFo1GAwq0SID8gsLUFkuC7tL3rXuntkra+xZJWtU6GVh+7oDOHxUMr0KanBjdhazbj/cXr8EqqJIWWSGdEEDKnILUVhYhZaOvdjZXIdqqw63K/6odXaYiyTr6pVlGCSLq2xsEjNuD1zuKHzhOEyyyHxZQzsK9RHoA5LVNRSA906q2a12qWQQT/ZTULMXB4/ImmLOSlwfn8GsR/bj9cEnQbOUOR9WRzkqK4tQXFiJ5rZd6Ggqg1PSzHVfuKFZo798iQIUoAAFKPBMCEh5PoPy2dmCjiPfkKBQJYrqBjE5N4+FJZd8fvqw4I4go7PBIuV3SysLUFBagfL6bWja1oGDuypRkWO88zn8THRJ7ilU0t58CVbtel3uEXLLUN43jumZBVmDyyVZ2W54gzK5RS/rZeaUoVGyq0oqa1HXvgPt2zuwuzoXuTIBRi256FmZWBPx+BAORhGTdO87Cd8yySWbiiDsv/8mQhGwSWKXAxFZ11OqKPNBAQpQgAIUoAAFKPC8CigTn2MyXrVm//TyagyxuNx3yk3knfvINd/LFylAAQpQ4GEFGNx6WMHneHuV1gx9ThUa6+NIm6Mw2EvRkG+BQ8moknUlYChCVXMbtie0iLqVdaxMqGypx87yXFnnSpmrIkEfkyzyXtKM9mYniiMSCKusQKlZg5WkK0nMVqn10Nlr0bo7D+U1TWgZH8LQ9AKmZmX9C28ACUcZCgokoFRaierqBjSU5sAp618ptwt3HrIP6EvQuOso8stl3awRKR04JWttTAfgj+lgq5P91tejXCfrg80ZkTS5MR+QKsgSTKvPNcG2EpmSBsvAmNYupYs68lBSJTPaR4cwMjOLidl5zC16VtqSJ0Gt6rJq1NXUob44BwXSltu/RFmtRQbMytHWvA354RhS9hroK5QMMwni3Wksn1CAAhSgAAWeBQHls9yGguaD2F8s61+2jWNoaARjE+Py+TmPsRkfUoYC5BSWoqq2ClUNbWhpqkJtmUw6kdkrXzV/BfLZrDEVoLy1He3yZ546DzCXo1Q+dw33ZDwpFsre9LAWVaO8oQnbYjOYmMlCp9FCr1VKvXzl0W6BSilAk2RUt9nhlM/x+o5hjI6MYWxsAtPTU5j1JZGUsoKOYpks09CK+vY2NNYUoyJfSi0qtwHKXqT0olor29e3ojFhkcy1jQ5JWKDRlaFa1uG06zfa3lvN5h8UoAAFKEABClCAAs+ogEZKcucgp7odTdESqEoTUlXoy+4PlcytRtTK0hY5MtakXn0fK5OqtTKuVlbTil27zEhK9MtQL/ePeaaV9/EO8hm9BNgsClDgmRZQZeXxoC384Gc/w+/+z7+DP/6DP8QemfHKx3MqkJVF1dNJxFJKGT8pR6SSD2Yp2afTqKFdyVTKSmmfBFJpmbWychVJuUKNDlqtDEbdKtOXzaSQTiURlzqAWVnbQq2WD3O9UipQnt/zyS0zozMZOY6keMufGTneyg2DHHPluGqZZS5fatnonpuDe+jv7iMtx1P2oTRLJcfUSJvVynfSnoTyM3mqWsnWUuofy5pbq2845H1Z6XtG3pdeaYvy/pUNbm6zXltk9k4mnUIsKQuM3jywDBzqYFRKF0m77+nuPe3mN1tZ4PTn5/HP/tf/ET/+T3+CI6++KtcIz/RWPp9sOwVeRAHlM0/5DM7I5/ntzz3lc18J96hWPnvlM1ijfJZKlvOGP8+UfUpZ4JisdansW/kUlEkkeoNyn6B8Jt//yCKdjCO+0I3Fznfxe384AGx7E2/8xj/C91ussDxQwEjaLp/bq/ujPFe6lJW/o5XP/9v90cg9wL33FcqbpAxjLC73N3IfcH8z1/1e+btfBa3BIPdJyuf+um/kDyhAAQo8EwL/9vd/HwvzC/jD/+ePVv79xnvYZ+K0sBEUoMAzJ6CMM8k9sox9JZV7Q+UW+SsfMu6lk3tevUygvmd4QPYlY2xJGTNKpG6m+qtkHXmNTguD3B/f89avPAbfQAEKUODFFfibv/5r/Nl/+s/40f/97+8knby4Guz5+gJKYElrgFTpWechgzh645deRCrJ8Fr5QF9nD3dfVgbQ5AZAvjb/uLsPia+t85AbjHV+cvflWwNfMlv8gVqjBMtkG7OY8UEBClCAAhTYKgLKJBKVMglEMqW++jNyo72SfUpgzGBWZq9+1UP5x30CwZkeDF89iwsnbmAhU4mW4nLUFRskEPVV29//cyWQJkGrNYNo97/3/u+VbTWSeW7GRlp+/9b8ngIUoAAFKEABClDgeRJQxpnkHlkq8jz8fbLsS4JZeuXreSJiXyhAAQo8RQHOK32K+Dw0BShAAQpQgAIUoIAS3IrCO9qN4e5BdLotKOnYgY5ttajJkUkp96Z6k4sCFKAABShAAQpQgAIUoAAFKEABCjyCiQdEpAAFKEABClCAAhSgwKYFlPouCUSWvFhOmGDefgAvHz2CPU2lKDfIDNdN75cbUoACFKAABShAAQpQgAIUoAAFKPC8Cjx8Vu3zKsN+UYACFKAABShAAQo8AQHldjQf9W/+KopfSuB1jQV2hx0Wo46BrSegz0NQgAIUoAAFKEABClCAAhSgAAW2ogCDW1vxrLHNFKAABShAAQpQ4LkRUHKzdDA7S2F+bvrEjlCAAhSgAAUoQAEKUIACFKAABSjwOAW45tbj1OW+KUABClCAAhSgAAUoQAEKUIACFKAABShAAQpQgAIUoAAFHqkAg1uPlJM7owAFKEABClCAAhSgAAUoQAEKUIACFKAABShAAQpQgAIUeJwCDG49Tl3umwIUoAAFKEABClCAAhSgAAUoQAEKUIACFKAABShAAQpQ4JEKMLj1SDm5MwpQgAIUoAAFKEABClCAAhSgAAUoQAEKUIACFKAABShAgccpwODW49TlvilAAQpQgAIUoAAFKEABClCAAhSgAAUoQAEKUIACFKAABR6pAINbj5STO6MABShAAQpQgAIUoAAFKEABClCAAhSgAAUoQAEKUIACFHicAgxuPU5d7psCFKAABShAAQpQgAIUoAAFKEABClCAAhSgAAUoQAEKUOCRCjC49Ug5uTMKUIACFKAABShAAQpQgAIUoAAFKEABClCAAhSgAAUoQIHHKcDg1uPU5b4pQAEKUIACFKAABShAAQpQgAIUoAAFKEABClCAAhSgAAUeqQCDW4+UkzujAAUoQAEKUIACFKAABShAAQpQgAIUoAAFKEABClCAAhR4nALaze48lU7h3NVLmHctbHYX3I4CFKDAlhfoHx1a6cOlixcRDAahkv/xQQEKUIACFKAABShAgWdZYHx8HAG/Hz97/31o1BqoVLyHfZbPF9tGAQpQgAIUoAAFKHBT4EZnJ5LJJLLZLDYd3IonEvjTv/sLaDQaulKAAhR4YQVSqRSy8r+//PO/gFa76b9SX1g/dpwCFKAABShAAQpQ4MkLxGIxZDIZ/B//+7/l1Kwnz88jUoACFKAABShAAQpsUiCRTCA/3/lwwS2jwYjf+c3fQnNtwyabwc0oQAEKbH2Bzr5u/MH/+x/xr374Q+zavWvrd4g9oAAFKEABClCAAhR47gX+5I//GF6PBz/87d9embDKzK3n/pSzgxSgAAUoQAEKUOC5EPj0+Kc4fuwY1FJ5YNNpBhq1Gg3VddjZ2vFcoLATFKAABTYjEAqHVzarq6/Djp07WdJlM4jchgIUoAAFKEABClDgiQoUFBQgnUqv3L8q1QcY3Hqi/DwYBShAAQpQgAIUoMAmBYaHh29WE5TglnqT++BmFKAABShAAQpQgAIUoAAFKEABClCAAhSgAAUoQAEKUIACFHjiAgxuPXFyHpACFKAABShAAQpQgAIUoAAFKEABClCAAhSgAAUoQAEKUGCzAgxubVaO21GAAhSgAAUoQAEKUIACFKAABShAAQpQgAIUoAAFKEABCjxxAQa3njg5D0gBClCAAhSgAAUoQAEKUIACFKAABShAAQpQgAIUoAAFKLBZAQa3NivH7ShAAQpQgAIUoAAFKEABClCAAhSgAAUoQAEKUIACFKAABZ64AINbT5ycB6QABShAAQpQgAIUoAAFKEABClCAAhSgAAUoQAEKUIACFNisAINbm5XjdhSgAAUoQAEKUIACFKAABShAAQpQgAIUoAAFKEABClCAAk9cgMGtJ07OA1KAAhSgAAUoQAEKUIACFKAABShAAQpQgAIUoAAFKEABCmxWgMGtzcpxOwpQgAIUoAAFKEABClCAAhSgAAUoQAEKUIACFKAABShAgScuwODWEyfnASlAAQpQgAIUoAAFKEABClCAAhSgAAUoQAEKUIACFKAABTYroN3shtyOAhSgAAUoQAEKUIACFKAABShAAQpQgAIvjkAWyCYRC/oR9Hng9njh9UexHM8iozXBmpeH3Px85OU6kO8wQqNSYXOzyjNIJ5aRiPjhdnvg9fgRCEURTaqgszhgzZHjyLEK8u2wGHXQq1VP9hRkU0A6iLmBMcy5YvCaytHSXISCHCOM0ue1H2KUjCLmGsXITAi+tBX5dY2oytHDatBgva3W3tf9r2aRCi3As+BC/1gUuXW1KCrOQ5FFh3Wbc/8u1vk+m1qWfc9hdGQOrpgBGWcNtlXlwGHSQbvpRqeBTARLwyOYm3NjIa6FpaIRFSX5KM+9ed2s05yHfFnOQTyEuG8KA+KUNOXBWVWBMoceeo1qg+dAuTajiId8WFqSa9MbQDASx3JKB3NuHnKU6z9f9ms3Qq9Vr3/9ZxJIxsIIepXr2wuPP4xANImswQabPQd5cn3nOfPhMGthkP1smvohxTa6eTYdR2I5gpBf+V0NIRgMIhyMIJrKQqW3wGixI8dug9Uh147dArvFAK383j7r/dpo//k+CjwtAQa3npY8j0sBClCAAhSgAAUoQAEKUIACFKAABSiwRQSyyGaSEhzwYnGkE31XL+PS9Wu43jWNWU8WaXMRqnbtRMfufdizqwP7t1cgR6+B4YEDT3IcGShf9s9gcfg6Ll68hqtXu9E3PIPZkAb2ylZUt+7Ejt27cejANjSU5sIpAYAHPszDqGfiQGwYV//rj/HeZwu4WPrf4Hf/zVt4dXspiiTis/aAfRqp6BJcn/85/svfDOJ6vB4H/8X/hF/bkYcGp3olELi5JknAEUlEpi/j2ief4Ud/uog9//y/w5tv7cPrtfaV/a7dno0cTWmzC8GhD/H3f/QBTrgKkHrln+EPfm0Htlc4Nr9vxS85ha53f4yfvXcOP3dbUPO938Iv/8JhfHdvCUwbDjRtpA+r35NGwj+Bpct/hT8Wp0jlPrz869/Ft1tykWfSbigQuHJteqcwO3gd585+juudfRia8GA24kDlju1o3bMPu/fuw6H2MhRJgMsoffniQ35f4hIEmhtGz6VLcn1fw7XeMfRI0DOTV4f6pm3YuWsXdh06gA4JJJZIoFj3RC/wL7Z4/VeUgHcayYgb7ulRDHX1oHd0BIP9gxgbnpTf2Qw0+VUoqmxEa0M9atu2oa2lDi21RciRAKnSr7WE1j8ef0IBCqwWYHBrtQafU4ACFKAABShAAQpQgAIUoAAFKEABClDgfoFUCMvuEVz/8B9w7MIk+n1a2Bv2YdcvHMIRbQqp5SCWpgYx9MkYBq91oeeb38M39pSjsdgK44bTtySjJxuHu+c4Lpw8g/dODsJnr0Np5Ut4bZdRMoVSiHlmMD9zBaf+8hKu930Tb755EG8eqEOJSSPBlvsb/QJ8r2SRJecx2duP/gEP0tuPoK2tGk3FZqgfNnCQcMM31Y1Tf/cZeibm4dHnw67EMh6SNZtcRnp+GCNzXgz74kinMhIsmsT09mZ4dhajRK6XzWeFfUnjUl745kZw6ZNO+HJfQvW2duyTAKBFyZz7ymtHrk0k4O39BGc+O4OfnRqG21iJ8prDOLpXsrTSUbn+RzF3/qf4q4tX0fet7+Htg03YU5Mj1/+qncv5yiYWMXbhE5z77BzeuxKCvaYKpYfasd0i7UhH4JuZwuTJUVw+3483vvs2XjnQgo4ikwRwn7VAkASik2EkXN04+/GnOHOuG9en4jBW1qK4+iCO7HxNzqO0ORvDcmAJSyPH8em1kzhV2oGGfUfxnXd2oK7AihydZKatIvqSM8gfUYAC9wkwuHUfCL+lAAUoQAEKUIACFKAABShAAQpQgAIUoMBdgSSWPROY7jyNT050YyhZAkvTDhx5ZSeqnSY49Glkl71YGs2VoNRVdI124sy7JajMfQ0OhwmVyqD93Z2t+yybjCAdGML1s+dw5vIURjJV2Lf7IHa3VqK+UEqbadIS3JrARNcVWE5fwKUbZ3ApT8r7lRbgzXoHjFugfNu6nd/UDzJS6jCM8JiY985iwG9D46s7UV/hRIGSzbapfSob3cwGC8+PYLzrc3zaO485fwzpwk3vcNWGkg0WC8E/1o9pdxxBjQ2FRVn4FqaxOL2AmUCTlJuUTLZHmr2l9CeN6MIwxnv7cLwHML/agMaWKlTYbpa1/KrrUwnipIMS3D11FuevzmJCVY09Bw5hp1ybtYVmmLNRuMev4caFq7jwuQR5TtWgOMeKskIbKq3aW4HXlGRsSTnDrlO4eOYqzg8sQ1WzB+0H27CtXoJ6dikjmQzAM96Dwc4unLx4GddPOuQ86pDzRutKANfwSF1WnZZNPM3EPAjODeDasQ/x6eU5jIcly2xXA5paG1FXWYQypw0SNwRSUp7Qt4DF2jL0dfdgYG4I3Z8tyzkGXjvYjO21TjiUANcm2sBNKPCiCzC49aJfAew/BShAAQpQgAIUoAAFKEABClCAAhSgwPoC2WUEZ4cwfOEczo2oUHRUsjJ+8R380s7ClbKDK4kp2QSy26pgl4HsjOsc/vr0GfS93IKa+lKUmzUrZQO/fPBaSrXF/IhOXMKli4PoczvlOL+Ib397J7aVOWC7HbjKNqG+1IEKzQJG/2oAY/3VuNS8Ay9V2WTdJKW83/rdeO5+IubJyBKmPj+HG2MRLBhb8Z2DdahwWmB6mFQYKTOXibtlTbEu3LjchW5Zayud1cl6YiL4sL6SmReXEnZTPf1YDOuhLahGc20UnZ2SGTY7i5HFKFplHTJlHbWH6cK95zojsa0Qlga70HdjBJejdfhOUy1aapywyQXz1deMBOQiHoSG5fo/N4ShSDlK5dr8pe/uQlORrJF1qxRltkVet2mhc8/ib3o7MdRcg6aOWpRJcHcl60qyu+KBKfSf/AQXrkcwYezAO9//Hr7WXoR6CRLrVmxlXbCmajRU5kHv+RO813MZF9VWlLdXw1pmgd64kSyze3v/eL5LIe6dxEyXZLH9w1kMmbejZP/r+P53X0F7iQ35Zt29rkrG2ksvY3fnJzj50XF8cOISjn9ggcFsQq7TjrY84wb+jng8PeFeKbCVBTY/iWEr95ptpwAFKEABClCAAhSgAAUoQAEKUIACFKDARgTSAfgX5zE26MGytQP1zU3Y1SiD76sDECpZs8hYior6GjS05slA9RxcPj88AVlfKbuRQnYpJKMBuEb6MRfQw1jSgMNH2iX7ywqLBK3uxFRURlidpajp2IYqq1oyvfyYnvcjLKXtUhs6zkY6vEXek/RLRt0gPj/Zh8VEDgrad2J/jR35lo2tH7V2L5U1z2KIS+nHaxek3FxnCEUNDSjJscOhlJhbe6ONv5oOIuqR9bbOj8OTKURx+y68dqgZ5Q65Vpam0D3iRiQhGU4PXfxwVZMyEniNjmOocwD9wxEYdx6W9Z9KUZ1vWAk6rXrnOk9jiPhmMHzmLIY9Zpgq23D0Vbk2c8xybd41UemLUFLfigPys0LtEnyueUwshpFKi6lcm5mo9G36Bs5dnMZMpgTFOw7g9Y4ilOYYVpVhVEFtKkR+1TYcfXsPanKllOJMD05cn4MnLCUcn4lrXH6fs1KGdKwX3acku8wt/d75Et545wD2VjpW1i/7QsBQJUE5rQNFHa/h8BtSkvBQAYzTl9Dd1YfLo/5bRuvw82UKUGBdAWZurUvDH1CAAhSgAAUoQAEKUIACFKAABShAAQq88ALqXBS1voIj/20pCsISWJI1ncqVsncS6bgb7FC+kYF+mUaurPUEGGDQSck3rVKX7O671rfUQGeX/e/+Pr5nkvW9ZIC/vM6BXNPN49zdTsnoUUMtAa+s7Fer08Jo1K0EB1YOe/eNaz9TMkj8Ukrt3DVcuCEBiIajeGtfDbZXrl4bSQIR8QASs5fx8WlZRyxkg2P3m/haaz7KHAYoPXr6j5SsgTaNue7ruDRrgqatDtt31a6UrlPWeNqI+Jp9kDWfEoFxdH52Cp0TcYSLduD1g4Xod01jOCx7lbjGpvctB0wH3fDPTuDavJRUrC+TIGU72tuX0F/Qh6vuRUx1jWP+UBksck7tMmr7MMe62T+lDKIEZ/s+R894GHPaCux/tQO1xY6Nl8JLhRH1LmK4cxpB/X6UV9WgpVKCrlJz755rTqWDKb8OVfu+hX9iiUBXUo2KlYxC5ZrNIB6WQNX0KEYCglhdjOqmSpRYZJtbmV93zofsR2+V37nmNtTkDGBiagmjfTNw75VSf5LhJMUL77z1i0+Sco78GPnsOLq63eiNVuPINxuRp5YA8PgwBkYmMB81QGUrlvXCGtHW3oDKAgOsmSBco4MYHR3DqBxvyp2Grc8nslUAAEAASURBVKwGVU0taGquQ32RlAWV7MmVLBEJsGVDEqAbHcW1wQDCFUdR01yP9spcmHX3mdxpoLRZ/n7QGCQIK8dt3bMNzWePYXJkDH09M3B1FMCpVkt24ENcu3eOxScUeHEEGNx6cc41e0oBClCAAhSgAAUoQAEKUIACFKAABSjwoAJSFi2nsh320ibULmegM0jZuPsH5KWUXVZKv4V8Afi8SWQNRcizS1BIsoi+dCz+TlvU0Jry4Gh4CS+XxZFSNpLjGO4P1GSTSERlzSaXG4GkZHjZ7ChxWmU9rlsD73f2t86TbAbZyAzGr53BsQ/GMP1SDWpritBSIcGtVZtkk1EkXT24evokTi0VosS2B/uq7Ci1G1a96yk+TQXgnRpF/+U+TKorsa2uHtubCqTMnjhKgGBzjzQSwXkp33cZZ89PYC7TgNJdO3GoZRnuE0aMKMGth3pIQM67ANfkpATKpHRdSRlqJXBSUpGHNgkujnf6MD0k63x5d6PQZpRyfxtbq+1Lm5RZllKAsxi+eBWjXi0ypS04vLtCMtFM0G/UKRFExOvC0HgQ8apC5JQ4UWKW0o1hDzzLMSzHk4in1VIy0ASTUTK7ynbh5SojjBJ4Ncjvyc2HlPEL+eCeliBVTLIP8wtQKf22KufrC78gkr2lN0v2Yg3K8i3IHQmjb3gGS6F2RNKQbb7sV0reIFlVi70XcfmjfnzsbkLCNC3Xr5zbhTnMz0xgRtY6C2csMHcPYdL7CnbWmFCiXkJ35yhc8p65BRemZgNI9Q1gYGxhZW00tZKplmuCTS9ZlPI7lPbNYn7OhWGfGubDzahU1tiS9cuUYN/tHq99XiSYl1ci2YDNaC05gVmPC/MjkuWZ2L5SetTIGmtrs/FVCqwjwODWOjB8mQIUoAAFKEABClCAAhSgAAUoQAEKUIACKwJSVkwtWRkyfi2D50qZNRngztwuN6iUsltGKjSFqbFpjE3Foc5vQmlxHgpzJM/kKwe8bxsrw+KSwWU2S3aK8pD9ZiTDR45z80jyZyoE36KUiOsZxmLcitz8EjSU597KKvnyYfWVXT7y/0jLxCKTlgyhVEqCcqtKKN5zLOXnaaTTEly7zXbPzx/sm8zyDGaGpSThxXlkG99EXXMtmoskg+v+YOCD7DYTRWBmCAMnP8WpMSMKj3Tg5dd3oMF67c66Ug+yu3vfq3R6GQHXDGbHZuDLlKKtRLIAK4thdFhQ1yJl+sbHZM0tWdNqOoSmfBtKTV8axbl39+t8l014EZZ9Xjw5BLf5MIrat2FPpQU5OjlPG7xcslHJevK5MeSTdeF22GGVa9oga525JscxPT2L6aUg3Ms65BaXo7y6GtU1lSh1qKG7pzZfAlEJbi1NLyIez0G5LQ8leWY5X+tcLxr5vbEUolDW9HLq/UhPzsLjjyGcyKJQfjk21HYJciWiPTj3bh9y6tpQ0rgdh97chW1zNzB4/TpOnLmCnik3+qpUaHREcG6+HLu2t6GjdTsOhEZx4eNT6Dq9hKHRCEzlpXi9pQiWXAlgSdHIhN8Nb2gZXq0dFXWlKMqTTLaNXnsGG4zOcjQ2OHDVG0Vw0QO3RO3K9RpklTKPGzwv65xyvkyBF0qAwa0X6nSzsxSgAAUoQAEKUIACFKAABShAAQpQgAKbF1DWDlqCX0rIDc0GJfCUkgF0P0KuKYx0X8WNoRiC1h34xV97G3uVgIVkemwqGSMbk3JyfswMzcIXljWPUrLeUMyHxbE+DEhg68ZgGOa9X8ehV/fipWorDE9rUFyyejJLneg8lcbyeC7s6w7wy5pgy174eycw5QojY99shCsjpy4J31AnBoYW0JOqQfv+VjRVO+GQY2/KeiV0mEV8sReDV6/g/dNuaNq/he37tmFfhQWG4KMIOEi7E0tYkiDN6HAI6dLdKC0vQJmsW6WVDK3S+gYUF89BPT+DzqE57KlyoNGph+ahIh0JRObHMdl5HRc9BbC3NWH3jio4pbyekrW1sRhKVq7DGGJRCcxltdAmJfvpys/wE1kz7PNhFzzBKJZljbCEZG7p9FKK016GvIoOvPKtt3FoWwWaCqV/Sh+yy4iFgvDMSUYgamCxyBpmtltro63ZEAnsqSXzsdAOe65s7pPfOQkmRWKSIWmRn23kIVmOshOom76D/a8dxBt7pWylVYJTsWrUFdthcM/j2MJ1DCfrkWzfi+/+xqvYVZ2PUqtcR4mdqNDFYDg+gFMLw+gaX8K2MoeUSZQgt+w37PcgHI4irTYgxyoZa/oHWedNSo1qTBIklOw57TIS8nvhCkj2m1UrGZ+bu4I3wsH3UOB5FGBw63k8q+wTBShAAQpQgAIUoAAFKEABClCAAhSgwGMRSIdmMTdwGe//vB+xtJQJXJY1iQJuzE/NwKNtRNH2CjS3lqHIIYPeEnDZ1EPKyaVkXZ+hEz9Hl2SXzCYSSCfC8C1MY96VgitVjoMVsqaRBEgKpPShkrH0VB5JCW55e3HjzAKmpJSeft1mKFlnMcQ9slaRRwO9bZOtzcQktrWA0Wt9GJ2NI165QzJtylBVYN54mb37D60EQZJeCQJ9js7uaQxmarFr/w5sby1HsSUBjZQjXLdb9+9rve+VIOjShGQ6ydpVfi0cHXUoLcqFU9bWUktg0l4hJfhKulB0bQSz3bLu1vYyBGtzZB2mzR5bgodJjwRDh9FzdQxuRyNaGuvQVn1zbbUHuVyyElhNJCSwJBlL6QkpAxlxImOVsolV2yQQZFpZe0sja7ktBxawOOvB7OA5nPzYLEGgQzDtb0SVpDtqlG2TUpowKmu+ZfUS0NNKYGedrK0VQyXIo5USoLKenF6eynlPJCX7Ly39UuKiGzohsj6cthg1rTvQtq0FLVX5MClB4IykfnlnpIxlPi4uuhE1OmCu6sDe9jrU5ZtvZmemHDC0N+FG7xQuTrglG9MNd7AMyaxkm0kDMisZlUo75FqWjM4H+/1TsuY00i9lO8VjdRao7JMPClBgwwIMbm2Yim+kAAUoQAEKUIACFKAABShAAQpQgAIUeNEFlPWoIv5FjA8PS0ZVGkkpyZeV4EVKZ4FFAlpWUxqRxSUE8/XIM2lh0W1oJP5eVlnDK5OMSJm8ScyOzGIkLqX/5LV0SgbWjVbkSXTIkAghGgzBE5GyhJKR8lAl+e49+sa/W1lrTPFQIxvX3SqnuPbm2UwSyXAC8aQBSrziwR/Sd8kUS7i6caNzGrNhybI5uAftlbkolP5vLslJ2WdIAk89uH7hBrqnMtC0vYGX9tajpUyye7KeB2/mF7ZQyjbGEZoawsScF9OZXFS2VstaabaVNcJUKgn0FFRJcKsIdeZBDA0MY36+FUuxMuRL+UDl8WBXkBIAktJ5vnGMD4ziev8yrLt2SBm8CtTkGTawLtTqDkhQMp2ScpJy3iTnKjK/BH1ODfTb38LXD7dLwMiJQrusQSeZhv6ZXvSc+xQnPvoMPz9/ChfzcpFfWYZSi0OOqUSknvBDZZUAUg2a68tRqWRq3Q4Uqs0w23JRItl+hstx5JZKeci2WimVaITldsBNrYetQNbNc1hhTrmw4AogEE1AqiLCqJIsNYMROp0EJqXGZkpKbSqlQzf+EFMloJWS7VSSnaeXAKEstqV5WtmXG28430mBZ06Awa1n7pSwQRSgAAUoQAEKUIACFKAABShAAQpQgALPpoAKupLd2P4LrfiPr/z3ksMhg9uJqJRck8yOqV5cO3sOV7o/xh93zcH3z7+LNw+3osN5M6DwQP3R5MJUtB9f+zdtOCoZL0kJMChBtaBnBpP9nei+cB6ffvSXWHS5sZj8Jv7xgRLYlUyQB4uCPFCT1nyzpRzagnfwT/6HV3CwtWil5N3aTZAgYHAOi+f+DP/5gwn0Z9Z+15rHuPNiEjHfPOYvnMDVGQPi5S147dVmlCsZchsus3dnZ7eeyD79s5g58wHO9sbgzenAa98+hLZShwQQJcMmfjNR6P6tHuz7JDKpAOZHRrCwmEDGJBlUDUUokJKEK2UHJViiMhaiqLIUDfVmfHpuEPNzi5hxN6HRogQtH+xokuYkwZMo3L1X0TfkwSCa8OorHWiWYI59vTWuvvIQyvlSw9zyOvZ+7U38+jd2oNJugnkl+0j5mRn2sm3oOBCHRQKCvT/+HNMTw7gyuB2v1tgkU+srD/Do3yCBI5XOAYtJD6OyxtidI0ipQo0EFA0GqNTSB4MJDqtkeYnz3fdIaUIJXumU98l2d0+BvEOCkUaLFUbJulNlwivlEpXSjBtfSy4lwU7JhPNLSUJVPvT2PDilRKNee/fod5rKJxSgwJcKPI2/Wr60QfwhBShAAQpQgAIUoAAFKEABClCAAhSgAAWeVQGV1iiZUsqX0kIJbylZW4lCFBYWIscAyf44h/+fvTeNbSxLrwSPJErcd1FcJFL7voek2PeM3CqzspxZ6XJ57PZMT9uNgQfdnsFggEED82P+zAwaA3Sje9CGBw1X2wXYVXZ1ZZUrq3LPjD1CsWjf952UKFKiKFIUSYlzLhVSaA8pIrMy034vwQyKfO+++857fPe+7/vOOcO/eICWjhpYsm0oMdvI9jimHxRly1JkZIGZ+UruhswQMp/MmZkwm3WwWeQIzb2PruE+tN4uwtlKMwoNCugYIP+thsgZ6E/JoH9SJo/fbod1k/my5+RRlk/FoL5RRX8iHhuTRsdeIl74J/px4+NOzGvPIreyHCdcZD+xvePI7G3f71pwCnP07/rg173waZqQ19CIS+UWZKopnfeE6XMcTs72trfex1ewtjyNkb5peKYnmQxZxO0f/zuM8Xzp5cSC1xANubDsGYN71INQmDJ401MYnF7EBZeQ9+M5Pc5JjdPTbIm+bM3dGFpIhaK6ESeKM+HgxXn8/Amv2wwF5Ao1dOTlpdgcsObYkWMkS5Hn+mkylevxd6G2OGAvLkWZ+gEe+fxwT85jMZ5HTzj6canVMFiZ0JuixGB0FStkIx6MLT3KyAaLhChlGSFG6Wbo1HIohSfVUbEQoDFxmCrO4z7bpCS/F9+lJFmPuxtO/pJEE1snUrwR61OKMJM4GLVwrLkxM+aBd9GJcEJPjJJb7dhizx/REKJkfo4NLyGQ6oLSlgmrMg0Kwdzas7L0gYSAhMBhCEjJrcPQkb6TEJAQkBCQEJAQkBCQEJAQkBCQEJAQkBCQEJAQkBCQEPinjYCQZFsJMemwgnCqjkF2+g1RbnAjEM2AdCoZHmRxpCu0UNf4yS6aRt579zExNIHhcR+W661JP6jDEzCUKItT9mx5CUthtkk2idak3thOoC8C8WkZkGvMsKhk0GoSaLxxA5OPZjHdM4TxxZOwMiGjk6X9IzxXIgWyjsj8OKYG+3GzIwr5tUIUVeQjT09MnispINqMYGmqH0MtzbjZ7sFSaRCmpSlMttyEjycreb6iASToKTbiXcJyiP5q4y14fHsRfosNRqMVBZVOGJmgEomJ/RfKHq4GEfGOYmCM20XikCmjCI52oX93noa+VfFYGuRYhHdsCqPDHvgbbcgkg0wuzv+RlnXEQz4sDbegtduPBVkpCpuqUZSlYeJVeD0dqZEdK6XxWlQwuWXktstkfomE0f6HyySRgslLkwVWYpKxwt9LIIQwJfvWUuRQaHUwkxGX0U6POvrUBYjnOv23dqePkjunrCIzggguhLG8wuSlwQojmWLq5zyGHQf0wn+kQmbIht1mQZG+FyOD9EmbKYC3zAqt9lkYryNGlufC5Ah6ZyjTmWNGbl4WzDzHwq/uOU7PCx+N1ICEwLcZASm59VWcPaGBLG7cNBc89iKoyKk0FeRos3PAEXqsT1/ryfcbrYsKgz2vfXcsNH6FDixf+34vPty4je5pT+zjwG2e9cXTfm8dw9Z+nlRQ8O+dx/usNnd/z8kCNa4PP7bNbbgvDsapfCXp35sfS/9KCEgISAhICEgISAhICEgISAhICEgISAhICEgISAjsQiARXcTC1BAGhqcxJq9CXUk2Kp3afWIKDO7Ty0dnykKRIoGpWR8Cs4tYZIxIxzYPDcIlGOgmY8c72InOURnSsnJQeb4UFmYR5LsDMqkKpCkz6RlkhL53DqMBSvX5yYSxqJFQMLKze/1dx3PkP4XO2tG11o7c7PFXFP1YgX+sD4NdI2gNleCtslLUltjoWfUkCXXsRgUzaAEzvfTZuvsQI5R8jLS9j4nW9/HJnrYYc+I5TELh7sN//JxxpfQa5Ne9ij/9v34fTXYNbAewg7gTxJcXsDTWj35fDMvmYhRVVqPOoYJiN8tuLYDg7BjaP25mYmsCM130zHqrGiqulyHa39Ov/T5YRcg/jdH7t9E5R+m8uhKcb8pjQpS+WM91YXC/9IRSqJQwy2Jw85r2MtEXJB4K5lH3pFKT8UriJXKHIpYoXsluUhpQbWByiz5X6W4ElwOYW4xwPRVxFevtOhayFLHix/xcEP6oDLJckdzKSPrX7V5115Zf/Z/imFQ22PKdqChV4caNdiayyzFUU4Bc4f3GHuw5ns1eJVaxPDuOya4OdIZVMDlzUF5ih56aiOkHbrS5sfSvhICEwG4EDh1Xd68s/f0sBMSdex3LY9dxu+UR/ub+2LM22PO9zFYOY/1b+NMTdhSQLrxxw+agEPHB7yUleXQYIxPjpCcL7V0OvKwYsthssGfToNGWg3xnLnItRlg1Gdv0YLkbGhUi1E/t57v4+LNHGOZHHCb2Lqm8JOScIJHm7rDZkWl1obQgH7mZemRuVSXt3ezgT5joowHqkmcEQ2NjGJqYwMTsNOZAs1OtHXk2FwqLS1DsMMOuUxw+0TtoJ+thID6JOz/7Ne52DaJ73wPb3FggKoet+jLqT13G20W6Q6prNreR/pUQkBCQEJAQkBCQEJAQkBCQEJAQkBCQEJAQkBD4J4vA8iiGHnyB//oPHRgrZjJFpUauQ0uW1GaJ8DZkYpRci4ThizJUoVUhQ0tPHwatn3r2bFt3x1syVOYG0P3ej/GbQSdUdeehqSqETp+OjPTNBMHmBpT3W3/i2bOSDpmCbDJVGv2Bdq+3uf5x/xUFxDGsBJewGouCbkLHbeDLXX89ikRwCP0d/egcW4Hi7BsoL2ZMycBEAsM8G7Gz59mlDMqsYuQ2XMNrzlXERQJrdzNrESTCM+jpGsfMcjrWM4tQX2yCSZsLW64LWWTRURXxkE6EEfTPYKSdsochAyz1p3HpzWu45FJDyaTVjusiEcTSTC9cwQn8snMey2R79Y4vI7dQS0+oZzGCnnQ85IZ3tA/Xr48gZH8DxdWlqLFSQlNcQ88JVIrKCG2WHVVFaowtehGcniMWa9DryGDalaBbJyMr4nVjPLyGKGOJ2dlmGClfSPcrpOjIOswrRJ5yCGPuSfQNuBGoMCQlAXcy00gYiJDtNtqNgbllzCstyK3OY6xTkfwtPedh7D6zL/C3uOi0sBTSY+ySB409n8Ez0IXmRzmoclSRaUcm375gk2ywNIKRzk7cuu9BPP8sqmsrcDKfgo8HJkdfoJvSphIC/wQQkJJbX/pJFhUZHrgnenC3tevYrWfkp8FqDyEYW+OASu1ZJoYi/jF0dXegY3AQPVMzcM/Nwj3vhzewSuNBFQwmDqpCc5m0X7vFhYL8EpQxYVSVK7SeZZAnedQcnuNL8M0Mo6v1AdrZs33ljakbC5otmg18GU3Qk2LdnluDuqpqNFUWsgKBg3ayvaMcGk05A9OYHevCzUdt6BmbxPicF3MLXhKsdchQmWA1WZE9MIDKmhOoryhFPSeHolJhx+D+rF2xugmROYwP0bj1cRsek7l88CJaNqLCUAlX3ZNKkoNXlr6REJAQkBD4x4sAix6iC0MY6R1G98giwjkNOFHmQAmrDtOPfNSi2jEIT2c7hvuG0Rc46mOvuBcrkVVajYKyElTQL+DIQ8uR+7Z7RT4gBSYxOzGIG4/HscJx9mAW8+a2op8m5JSVo7iWD70aMquPNUBttiP+5fyAlbgr7l7cowxHnDIWTj5olpioPc8gxOELxzniPH7vPobGPRjjg+Seh+6tBjawtZaxkrS0GJXEdu9z1RriEUqB+NyYdnPOMjOHOVZErvCcqMwWmOmV4HBQZiNTQ7kdBksO6h6rDuMsvpl4+BAD0+sIKlnBfKEWOayo1PHh+cCF261FFza286RgSeXCiXNlsLHKUf1MLA5qlYhQxiXi6UFf/xyG52RwNNahyKZFJgMOh/TmoAaTnyeiy4jN96K5bRZza3o46huTmOqE1v+BiyjsoQTLPCuo3dTgd3sx615I4is3mGFyEF878bXoYBBeDgd1jtWqiXgIPjeN19mO2zPHiuwwYjINlAbO+ZLFTXZkmbQwHFqAJLBhBe+8B/Nsa4Lm5HPzlNWJExfKGtlYzOTIccCWZYSJWB12ZHsOmdXFS54J9F5/jIlIDEtyCxSWMpxpcsFOg3TlgY3xGgz7sTTyGI8G5jHpi9OjQYechlMo4fzVxSCe8J6I+4fpRTCMe11eqEpPobwwG+X0aTgIsj39S35AaZ6VJYQ4//QQQ6/Xi/kFzomDMaRrzdBz/mzJssLmsMFCM3o1JXQO7Hbyl7eO1YAXCz6eV9HevBe+QAThNVYUC5koC83gbVa+6NXBYrMvL8i4/9FJn0oISAhICEgI/JYQSOfYxCTH2pxIcLSgr9SOyuIsVGfKk+ytjbFpY8xd8kxjZpyScjEV1PYsjtkGaDnZ3cNw2dN14RslGDpkqnj7MT5ghqOnHjm1Fih1csZKNjfgvHYlgLB7GAOji/AhE+ocFjxTnk8lVtpab3P9g/9NxOJYIxMntMxE2VoiyYJKbk6voyjnrhMDkwgsLFNS7uDZ58Gtf1nfrHPuGERgqBW9gz5MrWah7vU6FOSYYFRQlee5d8MtUyi1l1eNqgyO3fR/SrKNdrUnWHsJXyvWxPxpVoVo8RmcfbkIhVmZMOgyka1Nh+qwOSznvYvuKXS3TiMgq4czj3P0MhaRW5hw4nY7TxfZdyog9WQZHk0PomtxCm0DXpyysUhbzXna3on9tt6KcxTHspsSlXw2a57QIPN3SlBampPcNpk82bb2sd7KeA1bnKg9VYT7N+gvNdKLB53FyKyjv5aWspCbD3MJJvLmeO139mE8pIaqnIX7ebw+yUoSykmpnCvpXGWoKbgDLzEZb+tEx0m2y2fQLM5nN5sRcoSh+Qn03X6IYS9/F+Zc1FU7OLeSHyMmeawjfI6V06Ew5yGn5gxefXkanwxQzvLRHXxk1eBChR1OE+fCW9cFk6b0XYuHZzF47yYetE9jKFGEE5fPoakqD7n6jefhndfCc3RJ2kRC4J8gAlJy6ys46cJYUJYuh1rJEWlzYRAxwSDFapyD8gY3l9xdVt9QC1kMMJtLujwjefNLfrS+itXgDMY7PsVvPr6N6z3UFmZGShg0yjPSoeTERc12Y2EPpoYnMdwvBjIVMvObUHPqFci0ZxiA0XDdp+1v7mfj3zSkpXH/GRuBjI21xGSMyTUfKfdzowz8peBhOyuU5sJYURrwZimTaAo+vB/U5NYOmDjiBMA73o4HN36Fv7neh4mlFSbjOCjJGCjj9CscYDBtqg+dHW3o9SxhNsrB2lgBK3nNym2YbDV50Js1BlMZtFhcjSKwJipReEwKJeS7sN3YXEx7LMjS65HFQfE4uzlo99LnEgISAhIC3zoEmARIrDFo3n8bt37+AX7yhRv+i3+G/4kVqPk2JreeeY/fPGJWEyT8mGz+NT7+yfv425E1mgQrWFnK8WXfNhhkpnFwdIVm0us21P/wv8cbxlyUZZJtfOiD2ub+XuRfBsoXhjH+4D38p3/3GXwxPghncMxNZwXkgc2KEEQJTr7zNt7My4dDzcrEQ9Y+sBnxRSJKj4ARTNz9O/zkZ6tIqbiAV7PFgwzlQfY81O5qidsm1ucw+Mnf4heftuATJoRUTIqkcRDb+zAvpnYmVL39z3DN4EJ5MuCyvT0R6F/AAotdBh49RFv/EHr7xzExOodAwgCDywVnCXX5S+vQ1FCKYlcmLOr0ffazcUzxFTdGb/wUP78exJCyCT9wFeCVIj78ph+CFK+9WGAQLb/4EX7Vrcac8xXoqwqgYyKNBcfPiTATfvEgvN2f4YtfDeDjkUy8bMmDXs95ER+Un69RztkiCwgPfYL3/6YNHTEatevKYGehz8HJrTXOyyg7QzmZwbbHaOvpR0/vKEb6aRyeIFvcmoOc0jKUVzWisaGcyRrKmWxKl2w/TfyNxpj8WfYMoO1BG7q7+zAwMs4k4iIiciZksnJRnF+AkhMnUVNZhKr8TGh4Le/53VEqe50P0mHfOIY729DZ1oW2wTGMj81S3iUDCVM2ihhgKa9vQHVdFauQs6Cj3v/2uen2bu15H/djcbQZn/3Hf4/PqSgwoa2AvvIdKOx6qFhZq2Rb+y+cEy+SzX/jx/jJr3pxqz+KdKULF//nLLyrMcCpE1XYCcTmOtF1/df493/ZDusP/w1+X65HaZYyGRzZv93tn4o5bRyry5TOmRjCaA+DJ91D9D3h8c94MeWLUKzASeP7fBaGFaOsvg6VpbkocLBojL8vMUfceW/g9UC5ougy73mUL+rr6UU3iwNGp/j7maUZeIxSO5ku5DoLUFRWgfKaKlQVM5hkVEHLYjNpzrn93EjvJQQkBCQEvn0IpGhssLpyUVuoQz8D8mMdTjQ7WbRSlQUN7/PpqRx36MsVW/GSodOB9u4JTKvz0VSSixKXKTnH2RgLWOCxGmbgfh5Lq5wvKTXQmfWUWhPjuJJJLCvyG6vgEH5Jvl7cudWKUk0lkGOEgbGSVI6P6yyiWXb3Y7LtAR6OriJocKCgthAuw4Zk23HQTaxGEBsbxPRkGSbmOZ8wyjnfFXMgJjAow9jdM4V5fwjrJg6rx2n4y1x3nX1cpvTi48cY4Dx4xVSOt07lI4fJg62kynPtT4z0TG7llCRfJQe1sTKHdfcKWj9pRf+yDisusnVO1qHWyfkOT+rO+cLuRpiIXJ4llpNo7+ccuMQJS44NTjLO9k828dlAbYazphqOO5PoGpnjPHAS3rpM5GequM3u9rf9LTyq1gPwDPaiv38Gw+mV+EF5ISpyef2xn4dtuq2V/d+mqqE2u1B2/hQK+26iZaYDNz9nAkfbgLVsI8xKPv9x/9EQY5OU22u+Pwh/upNF93mozjXyPPHZS8ytFAYobaU40ViE4Y8nOFd+gOsPCiGvzQZpWUzOspecv0WXxjDZ3YrPP+uBN14De0E5TpVYYFCl753v7t/jr/BT8UvgnH8ljNVoCuIqJ6ovncSo51Pc7r2Bn6+pIFs7hUQl54WUCU1eo2I+7p/guXmIz9//DA+m1Qi6LuG7J5z83aZiLRTCMmPI4tlUtnGj+Ar7LzUtIfCPCwEpufWln08ObBlkPYmKhrLNuhxOPngji5HFNDq/DH+YFdjixq5jlayJFF1W4GwOhmmWXOhY9ZCs+lidg3+iBb/6h0/RPOmDh5T2FMoGKoU+b24OSu1qKNZDmGMV+ujUNLV7Kc/HuuCF6SH0PTKiuaqcmroKmhIK8u8+CytUVKxYzc2zkNb7RPuZgwjiAcyIKm5/EGExfYkMo79Ti2jCiALrFdRkaWHePLR9mt2Y8qxjZaYFjx7ewo85GE2t0BSVvUiTc588Rge8CFNfd2JhhS1wfz3NeECugD0/F6+Rmi0YYkddEnEaULKC1h1bpdwhdanTdXCWNbCKxgC7iJLtWAQSSthLXcjmd3uCQDvWlf6QEJAQkBD4R4pAfBnrwX48+uQmHrUMwLOmOUIl6bOwoLh/qhklTRXI5cO3cb8MGdlH/lFKULQNYDBkhEZFxgkrEPehFj1rZy/4fSoU2RVwFubjhFNzyIOeGDNMcNXkwMKq0BcaM+KUF54eQPNH7QhkvoWa2iqcyiMDhw8w+47RBx1huhlKqxMnz+QlKxcVezYWHyiQVZWLHDLNduYMBdNuBYuDd/Hw04/wFz9tRzy3Fs6i83j1Eh80haH2dD/GBr/A3390HV3f+0O88uo5PnTZwcPfi1OqkgmJbBTXl8A29Bjtk8NoGfSigcmHfO1BCSXOiSKUt2FFaS8Zg76MHBgrCmkEns7kzLOCAweBws/XwqxgHkP3vQ6ML+mgbjiHs2WspGWQZycGh7Sx5ysGdjh/C3hZkBNmpbbsWSEdfp9Yhq/3Jh7+5hf4z58OYlGVi8zsIjS+WYdUspzmx0Yxce8XeO/mPXS9+n1c+c5L+MGZnGRRz44ZS8yH+eH7uPuTv8LPWtYQ1OWgsP41fO8q/Q4YtAjMjGLw4d/jvUd96Lj4Mr73+6/gbLYaWiaTdlwS65SF8Q/gwd/+CP9wewydSxpK4ZxCw5samGSsiPUSs+YP8WF7F+5VXsbv/um7OMvfhIO/yx3t7MFm/w8SSwuIDfdgdOYsSnMyYTUeIJ9DSenIshejvfRbWBRzwR1Hv3/jx/1UJIVjfkwR7w8/vI33bw9RHopz2KI8ZFexYpg6UrGlabhp5t763i3cet+K4mu/g0uvXcU7Z13QJH0Ptu2Uc+6QpxejN3+Jv/4HBhyHOU+WGeHgfLu0gAbtaQy8Lc1gqOtzfHrvC3xiKkLd9/8Qb16qwpkSBgtf6AayrR/SWwkBCQEJAQmBrwcBGa0bKhpx/h0/GeLvo+3Oz/FfR3sxfPU0qrNpF6FgQQnHtqneR3jYOowhzkcyL76Ly6crcCJXu+GrLnqeCGBh9AHu/ac/x6+GM5FRdxmv/ovv43y2AkahvEN2f/a538FLo0FEr1O67Jf/L/584jwaalnMkmuARhZFyD2I4Y4OPGzmvE3ZiNMnz+Ctq6VwsFBISKEdawyPLQGzN8jGUSfnU/EaG9SpIQRGusi+eYzHK3Is0NpBJEaO1e6XeZZW/RyDe3DvFp9b0k8g60QtTuaoYGRC5Wvr05GOT8wd1xGZpXcW2fOdCTVMTHbm5FApgXIQ+08NmITKYJLDWcr42z3k9HjR8bAX068WYcElzv8hx7y2ystrAH1t/eieikF19gIqiqzJpOeL50tY/KSzwVj3Bl6/NI/4Z234+KMf4T/PDaKRPlPlYh5K/7LR1rtoax9HtzsD2a9cw8nTlailJCJrH5+cKzKvVA6UXnsDZwO/ROBjJrD+AxUKzrNgiwymkiwFUiOzLPJ/hM7HLIYb0aHsnTM481IDalgQKZLAX/85J3lhbQXe3mYMjrPQz7/CAqggiydjSIuyeOvT/w//ZZoKGW9dw7tv1SNXKCP4WKh291P89V/+Azp5buKWAjgymLBt/hw+uRwaM1lpVaeSPmzJwsKv/yCPdIVLK0kIfBMQOHoG4ZvQ2298H8TdJ5VBpypUN3FCkC+STWJhtXhoFstDn+LHd1m9wIrelDRWYxScQVNdGV4rNG4FjFIUeqQbySxi4iUyP41pPnDf8yzCzYTYmtoBZfYpvH2pAQ35lPNjEkzGB/fQ0jwNFin5xyRXe8cklrWFsNWdwekcspPYzoH3RJkT9twGfPfdRji4kkhwJb25WBUT8I5QYqodd24/wDAZUcGAB76JPgx5T8KlU8GsPiwIwQRZYgmTfR3oHxgkFTlKCUQ5zAX1KKs8gSvVBchMWUSQOsI9XQ/xUTcZA6TmzrA6+aPHIyjTsf8aHbc4ysIgGXWgI0yUhZjkijA0J0tnpXr9JZwr5oCp291PcZBkhukouahnIuz5I15H6Zy0joSAhICEwDcQgSh9eSfhefQxblPjfGAhesCD1TG7TplcyApRdvIqzjS64Noj28ax0NeGljjl6NqpT950DuWVhWQWbTAkjrm3F1hdjAMyaHKrUHb2PL53wvIMRgUfooxkymjJyn6uMUM81MYRHO9ilW83Phymzv47pagoy0EWtdifzYTm5mR+gwmhAAtCQilmaIrO4PxrDShi9aZ63z4xeWcgA4eSh0+/phQGWSerM824+8VtfNzMIpPCa7h8rQkNTITlm1kJSjfO1YVSTPe3w/LxdXR03MQtzhS1xteYOFFBzwyXQO/pItjYamQWlsCVNQhj/zwG2sYwU25CiA+4mqcrbnu3RsliysMNdGN4kQ96+XYUU9bHSCm4A4nm27be/y3ZOQvT8HZ+jls9ZHGbnDhxuozSdtTk3z9qsH8zuz5NrPqw5B7A/Zt9lBdkQti5a4Udf/I8r1MWcaYN7Q8e4oMHXnocXMDpsycoNZKPQjMf1CnvE5odYRVqC27RJHyi/QEecN5XXJiFKlM6jEmWkxDLXMFczz08/vwGfnZ/FWlVl3C2sRbna+kzQNkbGf01IvwNnyiy4JNPevjwfxe/TKGE5B+cQbldC9NWYjmG8Cxl/R5+il/fYVBFVYry06fx2vlKOI0KysOQRRmYQaVdhY8/H0JX/wN88HkVbK+Vwphv3JgX7jjGZ/zBYqo0BlVkK8MYHJtDTaEd5Ub9vmmrBFlpwdlJdA5FEFkjY49MqdizdUKf0YHtX/Nc+Mcx3/kJfv7ru2iZTkBe9TLeqKHEaKED2Vl6Vr+zSjayiEXKKk4N9KLjQQtGem7iOueVqRnfxdUySpIaFOy/+A1TcnGsBR13vsBP3nuESRkrcS+VoLayBIWck2dq5UxQcq4eCWB2dABDDDh2dY+i75NfID0e5h3gNK6UmpIyOi9UNb39EKX3EgISAhICEgK/ZQSYODIxMVH/Ct75Fzrkd5GlPU2J3baP8dlDJrYSZJSkc3xVZUBTegFXsotR0XgGDQWUqSXj6ukcivLFUcHccmPOvQ65K8hYBuXwkuMgE1OcW2UYSlD38jvIyCpCTvsQpoKTmGgmW/g295NCFR+yo9PlWXCcLUVDRRPq68pRRVk3OQszjp3EkLGgRWNCengc7oc+/PQ+Y1pZTGKYyMZxnMAFaz+CnIMOxp8ewW8X+BiLcSYw2dGOxzNaqMj4qa/LYzIxLcmI+bp6dTQMhMpFkHODEUyN+rGSmo38PDvnIdoNNs8BjaSkUepSR0ZPno1z7Fm0TvRibOYcZgsYB7QKBvt+G5L1T8UBP2Ns3aMR+GS5OHuBRYdZOibEjpnw3K95fpaSxnmRKgfF51/HKyo7dC1kDwbGMHZvAMOCNJZOiXMFlTGKz+HqxWLUnWlENee5Bj4XPu0y36cxece4ad1Vqn6YWHjeNYWFyBAGbnejjTLXkGvoD8bfUQkL8C5Xcl5fiyoWCmmZ2Dr29X3AsbzYx0xuUfI7ONmGLhbWXR8I0KttjbLVfHZYDFCBKw7P0Aw8VFwIxMjcS/A5jMoZgXn6tk144Q2l8vc+glgL5b17xfMgi68K61CdVYsiPjNkqsXc8yliL9ZXaWsJgX/8CEjJrS/9HKfQssoJp3gVbDZO6UDe8P0pXfigc2Ljw1RK53GiUlDehIt11l0P/hsP0f4l3vT4wD0RoWYuJzqpqkwoaDZ44XQ9TjlZ8b51ryNlNzSPAKt3cg2DCOhZzV3diAZKS6kOMwdJY4Ink3RgBhiL+KSt3WqPN19ObEbo04GxbvinVhAMBxDlhEowzxYp18KIyObB7f2XcoqIz2FsaBRjk3MIMYiINDtyqUt88cpLeLvSyoBJhL4jNhTrVjE2sYBuygouBT3oftyHyeosVDA4Y9l/xN61P5HcYoIvSJmepMkpB1MZJwB5InDoQiWDkV/ewn2tLmJpgRq5E/PUo2ZFN2UDUjPMKCiww0IGnoLVG5GFCQzPBuBdZsUwJRLllNzKziKt3MhJCAMk6yvz8M3PYWjKl/Q9W0/lwK3OTLZh5AQtnZVTIvDc76GmNM89nWGTbeQxEJOlpOwSE6Vi/74QK4TFlcMKsuwcKxz8XpfGqiBSnWfmfRgjky/BAVFU15gziTUp3incdm6O54YJU+G5lkjjREdnSe6bRfNIWWGwyU8WoIdeLPSjSc3gBJkT+CIrB1tO0r9MNL+88yK1JCEgIXB0BHgPCnNsGaUvJIPrQ8vMmaQzKM5bTejojey/ZkoG7/VkauSVoKSKrx1mO6LoYQWee5RpIws5pMhDKSUtqinV4CLD57cb7BWDnbg3O2ClvEV1jWNDImP/o3rxT5OMaB9m6J3Z0zmFgYxK/GF5AcpYeSlYV1tD72F74sMSn5IQXIoinGqCkjr1ZfTCrMjSMLl12IbbvqM/ZTwyj5nWW3j4mMbUC2aU/96buHyV7BIXpXA2nxQTfJDmOG+HB3N/14eRxwp8mleJAs4tVHLlrgQUH5T58K20FcJpz4RLNoO7nf2YvloIf6mFEj37nFnq8C/7ZjDa3g/PKpnuWdkoyzdzWsFE2bbuHustNfkD7hF0f3EHPcFs2GooJVllg4Gyy0f3j+MlyuRfhPIigRC9xFaXEXT3Ybj1Dr54xHHVR0+EQ5NbQn46hIWBFnR3jqJr3oCSa6/h6ivVOCsexp/gm1hlQreQjHnOC396i/MFBmrujV1AjpL+W4JpL3y2VqYx0vqQ1diD6IyV4N2zl/DSxUo0OsiwfHK+EzEnykrsWF+cx6+uj+PhFzfRfLIQerUcBvNGdbVg4vvHKf986wEez+lQ8PJpXH79ZbxcYUwmWYSnVSKei0Irf5O+AHxfUC7nDllXtTYUOQ0bnh3HOREqPZQpMjLC6M/BKtYZbwEiRToKZu8OqNDvb2mOSgOT6Jlj0o9zNZMyBbT7+NIWkZj00/O1+Tcf4UYnzy0lu8+98TrePFOGPCZyhfTixsJ7IgNBS/TUyzfF8csP+tHb2YI7RQ1MFKqTczsVZ1uJyAwZp0wMX2/BZ8MZOPn2ef52zuBqXT4VdLb70TKJX1OBisJM+k98iJ/+ugtjnTlozytCE4vZhBfd8ydxvzR4pIYkBCQEJAQkBJ4LATJq5EZoOR43vmKBtWgIRX1kY/RTSccbxlKMcn4aC+NAecgvKkFRASWEXWTcMyazs5iJfqs6JjgaLuKk1YD0knxkkzHNmqeNhWMpK55hrzgNbRaLKfL70Euf8v7hGUzzOX0loYTRTm/LfHqiFxbRb51Fy4Yn7O2jzgu3HX8KWUJpTvrgFqqQkxHD3MwyUpl80No5NhbZUJFhwUqUc8OgASanFnrh85ncDzucZoCtrBa10Vwm/pikoHel/Gll1ba9bL5lciJdBZWtApUNeihidpTRd0rDIqfds4XNLTiKJxOHKfJMOE9cRPbJGjSxwEcUMG1OX5+u+xW943w3hWyjgtqTOO1QYpVzOyNZckcLqDKYp6QfZ34NLimycKbSibzMDYnlA09X8hqwIKeqAY0hJRYH0uFgvEme3OCQxEeCEnlkh5kLa1GTkYeTdcKHjZLxh56T42DGc055QlNhA+q19CvNyaW8+QAGhj2Y8dMrjLExV1ExCkr5LFhciAK7LinNvDl/3doT42QpCguyeY3r7UwYF/djULQzymcE/pYSWvabUufFJfQLqyhBLgv6xHW3OXvbaufAN1yTSlWmgioWdmViNcw2OP9T7/gh8nepMkHrqkPjmVysuwqRT0lOIRe/taSwHfbTXkym4AXKQtKfWsT10omncNCTa42MqWYhK6Cg/Qyv1CxHctNK0dP0UpRRzUQkFkW/U+UG6B0lqD4XQRGT2fEd5m4aGM1MJpPhtSFXv60PW52R3kgISAgchMDR7sUHbS19/hUiQK3aKDVZw8usCBCDF2+GNDBN14mEFRMgIiDBgWtjjOINUE0TbNKNv5N7mgkVfs7qm8250fE7ydu0iu1lF+J0nQU3lzwA5Xhia/QY8C9jaYWVFGAQ86BFUKGXpzE+Ra3feaGlyNrtjCpKtpThVJn1iUGpElorPQnqTuHsB48Q8C+hO0RJob5+uOfr4I0yWcRAx7MXDgpMbgUDfqwyubVO5kBKqjapeZ2RxkkQA4JJ+JKDD1sT/26+f3bju9ZIILrAipSHH+D//stPMRykznWGk8mfS/jXf/YOrjGQlrNKOvWjH+MvPmjFx73zTB6pYD3/J/jhyxfxR6edrGKnCbm3A603PsC//esvMMtTG1FQPqDwJfyrf/02zuaoofcPYfLOj/Bv3+9F69Qy0rQMwJ77E/wPr53Aq84VJIbfx49+9Clu9k8zYaoFNBfxwz/4Ln73VWo+a2KUQ/o1PVmu4y9ujVEFmEGm2rdx4cp38W++U4JUzwPc/uhj/Pl795L7jinrUFb3crL/9fp1pM92ovfW3+L/4L5HOTmRW0q573+J//WNSlzMp07zLkSkPyUEJAS+TQiIsYT3oDkRsH+Iv//Qg/QzVXByRFkdXyDz9QUWcV8Vcrt8iTv3nrt3suhhEt237qCtkx495vM4e6oEZQygbzykHWHfouKNPpMbtpXiXn5A5V5yHbGuuOWzP3zq3dOfI+zuS1uFx54IjaCvhYGJkQi0TZdQXWxDrpGeQkfdCfXrE5TeTfp20pszw8C5ACtzdzyfPast+mmuBifQefMRKz8pa+yqx6vXKpnYkCc1+Lc25ziqzsxDxUvXUP9gFG4mau5/3oFXGiywkO1j3v7AJzZisU6KwYmcXBvKbEzUdHZhZuoU3MF8OHdUaT7Zw5ow1GZSo3kcocQVlNucKGYSQcaDOTIeW53deJOgJ8TcaB9ufjKE1fIryCObpsbBwpBjRTw4ZwiygnpyHG1Dbix5Binx3IL2xz0c76mpn5DDtWu/O//kHITzpImuHkxP8NekPYEz5ytQTKNzzbZ+pMhN0DGgc+5KPZNatzE4O44HfV5ccyqRq+PcijKIcY7F3e0jaJ+SQXvyGppq81FGjLZDn5KuRRp9SuvP1mNs2ofHnzzC3dYrKLIZUUrGntilSMjMDA7g4b1prNh+QA+oSpwu3Uxsid4TcxmDUDn19NvqgoeVpI/bhjHnbYR/ZQ22w3zTdh78xl8ae5LhWKiYxeMpJrfmWBC0nk0v2e33BHEfitMDbBazE5TrXrOzzxF6yJKtxuTW814DO7vDc7lIf73Oh/jZL/vp6fYOLp2i1CDnUQVMuu9MLjHgoDDB4CQz7t1UBD1/j9RHfvZ9DkthF8LxBEU+KTUz24LHd1pxq5USinlv48rLTDiSoZq95xpPYWAzG3n1F6A3yDHX+dfojYcQXqCXbTRBLBKU5Xn+a33ncUp/SQhICEgISAh8LQik0ouU9/rcGvHieHDcTqToYMxj4e//wtdh26aqoGFBdJF4nQW+e9i6L/BdClkyMsaRTn3vFKWoHSyY3T0aV+C/rXln7x5SKEmuLEXTH/K199sDPhEJBSYDzvxz/PMzB6yy5+MMaHObUCte39/z5W/nA1qPpNgu4K1/xdex9siQK1UXCq78EV/A7x15WzF50sJx6l16i+GI+2RRF5NC2Zf/GH98+cg7er4VeW1qbSXJV8m552tCzPpSMrSMC2pRbi1B+XO3s9/+OadOsaH8zT/hC/ij/VZhxFSRVYG8lyvwv7287wpsg8855nqcfle8dq9jQt7VP+YL+MPdX+33t50JwTfEa78vpc8kBCQEXgQBKbn1Iuh9ZduKyYQMClbA6g1mBjPcvO2Tuu6bxNK9n+M91Vm4y1j5a6dOr55sHQXp8UmGFh/QmfgSg8SLLwwMkhe/Ro2YjdwaBx4GCTMYTBMG9octIgC37p/BOI1J3SKGkcHJX14ODJl6ZG4PXqVRQlBlYSUSJ3eLjGjMkUu0NgN/kOywEKvUd1T9H7RH4YexiuVgEHHq24qSiPXUVSxO3MPtqSB+w8DJ8EyIg1YOrKTSFdA0vbqQ5t5aZbKC4qBW9/+c1bZGmpaWncb3m3rxs85pdPioNbx0F5+1V7LqOAylYgy377Bq3R1AQmaCTFeHKycqKUWQmaxcZigW8qwyFFd48cOmHvykbwHjTAQG5pvxq0c1MK2r4QoM4vMb/fAthLGeQammzCa8QXmlSpp0atTUwS66jGv1owiR7fbJBIMs4cdoGcinp4cOpdWraKG+cv/gLHHgZFNBqndZDa7SL0YrBmY76dxVs/je6CB+2reI+dVRzHoY5L5XD2NNHBmU0rlzbwhLrFpPyHNpst6I719k1VkmGVz7gyJ9KiEgIfBtQWCdbNLoFHrv3cW9h1OYcV3D7540ITLUjQdji895FLzp8sErq+oiTq0XQEPWTF0BK9i2ZNFEs2QvB70I9n2Gu91eTChyUHLpDKrJ0M08cmaLwXCaFk88+gh/9fkilJUX0Xj1El4uUCeNmDc6LwacEDxtn6GNfkbvtenR+O4bOH2mgpJvz+cftNHui/yfSRFKEftabqFtgpWwulJc5QNUrpnJKSYEj7zE40yQieA4saTcjYHVuQoxHh+5Aa5I5leU84j+0SX6XOVCW1RI2YsDfK7IGE7heFdQkAXnKBMQw0OYnjvDJJQRJjK3d/ZcXAMc351O5JZbIOsaxcgMmUfuMjSxAnHnYZIZ7pvG7NQUHs9zuxOlyC5ywKU6ZqJu67jFOY9icaQLgz2juBcuQmU9z3eJDXrOVbiHYyxk3CyOYOjR5/jrv3/Mmp4QmXJLZK6ziEbs5lmLSEBSLjC0SPZXmKO9isxoGl6nc96zc+F3MurqWylLSV9UDffjdi8gyKIeOogiLUaPr6lhTAUiCGotKKsvgE3PCuedQLJJ0S6TXw7OS6ycS62RLd8/BU9jIYIJE0z8Ok6GnId+YYNRDX+jxXBlZ8K0J7Hy5Ddc/TquZZ5EaSyLVeA2WA+Ttd55QE//IqtQz2u70BFH14NxeMc8GF8sRSYlF59OHQkmvUb87mlMTvix5jqBnHw31axn0J7CgqgXXjauiSU32XaTsxijy2vR+QbUkWGVzfvNntOxub9UsubUhah56w9gv8AzkVMAl1XHexkT6iF6KAz3YcJH+WtLAS68TUlVpwnmwzwfWHGvzm7E1T814wxN4VUOBps4rxUJ191XxGYXpH8lBCQEJAQkBCQEJAQkBCQEJAQkBCQEJASOh4CU3DoeXr/FtYUvFKuk7XkoVJHqHqXWP30BVt1trMANYX68E+1m0lo1GnpHmWEymGDRG6mLnIlMPf0WqMEsHuCP/wAtgg70KVj2YJaV1Z3DS1gOU06KXlZpZESZ2a5yiy+/HxyslmVyS/hp+MmkCrK5FAbg0q1maLWs7tgeaaJWdFo6TVYZPFBrWFkxx+RUghX9oRDZYWKfRxETim+YvZP5FYsK2asgdYYH0fbQQxPKRfg9XkzPR5iUssA0MoDsQWLpOUsqOPV/KRGg3RPk2e+YNj9joIwyBAZWlZw504g+fxSzC5OYY2X0UFsLHqVMIdXowY1RL9zLKVAZcpBTew4ni7JRSOryxo+NrDgFZbtyynDhXCOTYw+Irw+LSxPoefAAD9cUmIwN4yYDzf6oghTtfBTXncQZ6hTn0M8hXUZMdAWoqa3D5Lwffe5ueGJzmB7sRgv1re6TNXdrcAqD/jhkckolVJ5EfVkRaihJmKROq6wMIlXgbFMd2jzNiM0FKQ81Shmie3hA/FI8fbg/Sc3vmAImSouV11BjO8/EINeLMAE38ZP+lRCQEPj6EFijJB0ZM313KUk3jv6ADoVXr/L+MI8p3xCa2TEREj7+IgLjGko+VKPKQGm6NSUybZSfeBrJZm5rmZ4C4+i9cQ/9s9SPz6dk3OmipETG0f2QmHigR8/iZCda6GWkSS+EvTG+weLa6rQ4gjhWfBOY7m3BvTuZ0J05izImhL62ZS1ImdlxysK1YiJsgqKgEucpvWsRnpnH6FSCLOT1SBgk02AtNUHuNMfJqT70DS5gbnaBCYwI5OZMymJYYbFSi99uZuHLhqzFxm6YVFoJIuxl0mmBAXqbCflOG7LoOSTfU53LLRjoByVobDS7thinEZ8Z51j6pPBkjyyxmGkooGOyxlHgRLZsCN5xJsQmfFiuYoCf324k4TbOz7KHfg7TNImOGuEozoUrh35m2wtfNjp8tP9TahFRJlA6e5JYBHOaUFHhQpHwnDhaC9vW4hivsSIrvxqnz6uTCS2mNZKeTMviTHOQAABAAElEQVQTbXjczwTjtrX3vBXJJ8EmZLFRKuc9Yga28d+eNbkatfUV9Bogyz6DTMPlOM8vKYm8yunBsQz/5CT8AV63lKMupoShnrLA+ydlKD1ssMJsMcGlXkP/2Ax8c0tYZDbOmLGe9PKY9y1hHnpUOOkLpSOTkUb3s/QCCC5TRnmNwoSUBtJoyHhXOih/xPOhoIeHSAwefwKZvBdoKffJnzjMd9xk6E1hyB1GrV73lJnH46URGGYpWz0+swZDSRGyydxajc0+x5x1L7b8hfDDEPzTU3BP0t81ldI/xS7kURZGzWt9+zR0x9YsAILMiKwiDczsYjoTj+KnkULW1golqd0DI/D6OYfTu1BX74LVoAR/PgcvqZyzqa3IO2Hiz4myRXLOeQ9eW/pGQkBCQEJAQkBCQEJAQkBCQEJAQkBCQELgORA4TmzlOZqXNnl+BBhwMthhy63ABVcrouuzGFii6Xbci8l+8dpsOQUKows2JsFKnXnIzy+m/F8+3zNIwcpuJZlc+wdEuD19LyL06pqZHIMgfiV9O0TQYT2CwFwPJXFa8UU3DSn5EdIsyGDgw8WKXD0DZgcvDKBRJjC8HGBf4wzTiFgPGV86BnFoLLkz2ER/DbKL1Pwug+wzUX0NUPYwwmrlVbHlUZYYk1r0uJhbRlQYT7JqOhpawoPH9L9iMEFO9kC6KoGVwBQ9qCYwMtiGFnqIBbiqWq9BNSVjMkQER1RcMzEUDIY3ZJ/223UKfUUY7FCRRp9XfxENfdS8nprDHKUXlwbpI7OixJw5jMeL1BpOyWLArpSyQydRaTMgcweLQQ610Ymipqs42THFYMkStwlisesO7q+QGp2+xLZ4KBlZKC+owJmzlA40qmBInkiGRqgdbC9tRM0MrwmalX82t5IMcg7SR+fnS2s0WfXDu0YfFnMBGs42olYYp2/J5jBhllWA0obzON02wkTiKv1J6EvR+gVurtADI+pH9yqdwcgYqyirQlMTJZXoJXE8aaf9wJM+kxCQEPg6EUjE6aPnG0PPF1/g8eg6lswN+J3vNqEs/S6WDxwkjtJjEQFX0A/AyRcocbh3SdDnyT9FVuj1HsxThq6osBLnKph8IYvheeLne/dw3E9EioJj1SqTRcEAFhbo+XNAE0kZW/oQiPFEQZbG8RbuI+TFwmQP7tyZxrKjGoW1Vai1Ea9jZQ4Ek5rjaUQkI3ifXg0g7O5F5z0aFM+MoH9gEr1k4qqcLlgKSqgFX4OTJzlu5FIfngH4DWshkRykt6WXUnFRMr6M9EewG+jdSSbLvgfFY6U8oT6LCTOzjHJ7bia3lhCglyQsTHztOXEsyDHZYXXlo0L7CR5MTGFyhBJ/sQLkELeN/BmTDpRGnJ8YxfQkPY4yXLhUQN16C4sv2Ic9Te7br+0fEpd4GDFfH3o6RjE0mwbrqbOooGl7tu4oxTHb2xLvOV/IqkH1VfHa/C6OVd8wpj/9D/h/lsewNfXa/HrHv2S00YNAb6Oss30Bxhg591vm8DtWTMprrrEQSORdU9LpkcV5kFwkxcjdisWC8E666SUqg9JiQZ5NTa+z/c9SslUFGfyZRpqLpyFtxIMAvbMWImvIy6Bfq38OAcEkI7vSrKICwOIkRuZnMTw6CbfHj8AqzaxVZmRRGjK3IA+5uXbYM+gXcqzrc/uxZUClZzFOsQ65mgF4yNLrG/VhpViDDM5Hk8kdcS1zPjbFa2BsQQXXd3LhyBjD/NT2dl7kPa+zdbITOUeac0ewrqym76mBBWBkZh3arPg2jXPdXSmoRDRZGDBNU/BAkH53lmwU02tFfehcWOxISKKmQql9nmvx0I5KX0oISAhICEgISAhICEgISAhICEgISAhICDxB4JCnZQmjrx0BVk2bXSfx9n8TRRp9klJae9Hu2y3ZksAqpVymmdjwjrehuVlOzdoqFFZewg+/ewE1WZSL2s/QXRxctBsD7aP4P//3v9sVWCL7ilJ/qwykLTPwQosApOiyoMwtR5mV5pSUDzpsSXqiiCpk6hmKvNjha29vSazNivJYHFEGhI60iKDDagi+2TCTW6Jal0sqjSZ1hSgsoEm9nRXI4Wn09IxgnNXtgbUIwqNf4O5jNVWUbMg776KBOwMuNF0Xflqff/QQA95F7BXoYrBDVoK6xlqcOVUAh7YcDQ21mCVD7c6nvUzoTWJiJhXu2XX2fw2p2RXIYQLqjSozvcP2Mb4kYy3NWI3zZ2oxyWRc2/0xeoeNYnCMdd4pDEAx4JiWfQJF5bW4WkLTWkYnnwZluI46D0WltXjl4jAe/qYby0tkyi34cfNxAhGRGCSDQldyES9VZ6PIotx5DmjyqWIA79rFOoxEVtHX4ab55SC6hxh3FEk++m+kuU6jspwMgwL9E9P5DWil/0sISAh8GxGgrNriOGa77+C9D0fgy7mG8ssX8HIhjWu9Qq7v6d3lyz864fFF1g9Zs5+PcSy5VobCOvoGUPLsyIqEX3qnRHIrhuWJTvTdWccv56ihz0/2okBk0pjUym9EZVEOqhjQ3rvOYZ3jPtzDGGtrw90FG/IvlaGhzgUTEwe7wueHNZL8bj3OpMcyE0JrYcwOPcaMewjjOjJkipxwFlH+tiQC/3APxts/wK/u38Lt5tfx1vev4bXLFShQi/FjDasry5TAnSf7iywrrQ5WFk2I8Xn/YxKfyqAhK1zLxItszcdEBRlBYfpK8Zt9+6+mt5Q9FyfKdTSEZiJgZBzDvlMwU/pQIUyOBMsq7sEU2cVTk3Gkmuj3RdaW1bhfsix52M/4HyUfQ37MUvKxfSIOHyUfr7xUAZeJyaD9D+oZ7b3o15TeSyMbreE1XNa7kbdMpjvlnRNRzk12zJuE5DOLUqYnMBuMYUVpQUUuk4gsAJKBzPdVJmamlrCyYkG6kqx8QzrVnQ85ICYhlTodzDQ3lw37EFpmsYxIQuoEC58FOzxniZgMsfEb+Kx5CLM9/RhiEU6M87Q18VPgnCktjV4WBadRcfYafvjuJZRlkr190NzxGTClqA1Q0my+OjsV/sVZDPWxiOdKDq+BNJ4XcuFYSLQ4PoAJ7zJm0624nE9m/ZICC89o98hfE3NEmcj1EYcVXvuUyzTxWtc+5/EwC87EcADzHvpmpedCbs+CTcdCpBcqCjjy0UgrSghICEgISAhICEgISAhICEgISAhICEgIHIKAlNw6BJyv/SvK9qVTksZC99CrNKHMKWPyY5pygQs+eH1zmPVScs8bYKCKQS/xomWVCFMFVzsQosTcWoYasUtVOCskbfaLiyQoA7MSwSxZQgcvDO4xYFRefQovXalDCavAj1JxLsR1RMzk+AsTYiIptmH09ezNE5SYEZI62YXIilIicFmJFU0FXrtGOcBCO/L1TCzFFtGUdwfNLa34uG0Mywx6eIUXV+8UZk8x4JKeBjW9aNbILpjs60D7GCvUd++Z5wJyemM4C1FP2aEEq7MzC2pRM+/FK/1jaKZfmG9VVFyLIJ0TNUxKna0vRT79Nva1DkthQFmmg62sCQ1uH0bH3bjvJeNLZBKFO1eaA4319ThVkQ8nJQH3xLVSldDZi1BSfw7X+ty4MTyL0SC9x8LcnMaZeU4y/s6zct+sJeNrV3pRXFdKM7Krz+LUJAOWnnk0c9/Mc3HRQcHE4MnTjWgozoGdlcm7thYrSYuEgITAtwYB3lOilC7tZfHDFy3oSZSgkrKmFxpz6XfFxP5zMzSOAoBIg/B+OzaAke4JeKJ5OFdM5mg+PQiZHdlvWDpKq1/OOutYmerBED0Pg90HMTrIpKHJsfVlB7SZWah0HKfPPPZVjiX9fZTJnUTEeRoFZWQ1ZasPYEoddlSCubXGAo4IomtM6KSTPWKtwflXzuFEWQ7yyXxSydYoOdiEqf42dLV14PbgTdy+pUWaVo8/OJ/D3MpGG2vCu0uMm2SUyCidJ5hp+y/ic7EexwCuK6Te4mSNrVE678Allf3Q21Fanw/9dACe+TG0jwZQqTGwiIRjKBM6695hDE/6MZ3QwtJUg3wW4Jh3FG8c2PreLzi2h7xDePh5B9xrBTBWVuNMqR4mjplfz7hFPDk26/OqUW7i2E3mFrOI9OPc5VFGmc4I2eRdzd2Y8ZO9bilCI4tY9Op0Ih5JFpnEWSSzvs75F/GXkfZ24GlKorIhgyhL+j9xu63zxGuG3qexKCWtw/PouEVmWza9tE6/hWpbJgzEKYMeV8ITbn6sB71MRo7f/hg/JRPsd5mErs1nYc1z3B9S0pgM1bCwpsKOzuYwBvqHMOI7AUO6jAw0SomuLWF2dBy+ENn71iKUOXUwjG08jhx0Ne49+Yd9wt8eE1KrYRZLRXi9MjkorvUN9uBh2x3wHaW612MRJg3jnGvTe5VSkkK28fBzckBb0scSAhICEgISAhIC3xQEhB+3oQL1r8uhqqAVhb0adbmGwyV3vyl9l/ohISAhICEgISAhsA0BKbm1DYxv3ls+PKeReaR1oaTWCldhDU7MkaVFSZkZzzSm3DMYnZlnZWoYIXpphCgvNz1PD6UVSkBNd1EGKRvleVkodtLPYqce4JNDZZIjPQNKNSVoWIstvLKiZGtRnY7BFRbzyrX0cnCipPQCrpw9jdfqcmFjkEYUYB+2iGBYhlzJh/8Ns/uESFYx2RZnUE5wq55WfIsEGANm/E4EYzY4XuxPUv7p6VqH7YsZJ1YsZyO/6QrO2cZgDWkQ1NThe5dPoNKuhzHZTBwlZnqUUOqnv3MMQ6zqDfnpPTPhhpveXlmURFTz+IUsYcjvpX+JG1O7d5rCpJWSVcChGHssAGDVrsmJHBqOn3ao0RNg1fgqj4EeC8jIQ3F+PmoKskB7iwMWtsEEl5ISgfk5TtRZVWj1s4KbldRII6tMUYiqknyU5bASfl+86WNGo3mzswyNOQYMzvqZ3Hoi5ZhOWSF7AU5W5JA1xorvPdvzupJRXtFWgpIcByrJ7HrA5FZySdNBrinACSbVimz6DanKA45A+lhCQELgm44Ab+Rkt4Y8DFy3deFeVxDp5S+jur6cD69kZfLewDzHV7cwKIzVWUwNjWJgcBErxpMozGPRAe934tb4Ve762QdF9pScDB+dCZkm3rf37QyD7+n039EpoRJek4Rz//V2740rrscQ9vRjsG8CHRMy2F86gbLibHonPp9Emdj1GjnWGqUaWS4Xsk6/hje/d57sGD3Mm4yU9SosldhRQMMgz/DH6O/uxkN7GV475YCMQ9hXv8ghV2fCWV0G6+07mFiYRmevGwuFKlg1TPyskE0z1IURD1lLKrKPG+m7xoKZPRZeR+ooEzeBGcyRrXa3bRnrZXkorytHqZmyeF9b1oEXEcd1BWX5xMuy73FQ5nBhCp7+Vtx+NI3FtDpklzCw5KScIQ2c9r0M923nWR+KK4bJSM67BFOK7+jrZUB16WlcuNyAhiIHMplMk6eSwbU8B3f/fVz/5Qf4orkXtz+6h/JCExxWPbSao87FtvWHEs5pcl4H5QXI6hpC38wweqeCKNBlIEsWwRr9tiYG3AjEOUcqKEIhWWIa95d57KIvnF9y7nnUOqltvd/7VkAp2hOeaMn3e1eRPpEQkBCQEJAQkBD41iEgklsaFwqbxOtb13upwxICEgISAhICEgJbCEjJrS0ovsFvxAM6gwUKrZVyeHwVPunrpj/Wwiw8410Y7PoCP/6kHb2eRYSj9BmY7GUSjJXcwTUUbQa/th9mCj0DdBYUFNugZfVuxOeGd2YSk+F1xBjxlBko2Xfyv8O/fKMG5/Loj3IkCRZWg6dT8siURSk9Brq4vxUGBFaDIRpyxyi4w9zPVh8ogUd/r2Xhc8XvhAQSaHqeqdGw8vrpWlur7/cmVQutpQJN3+FLJMooZxiNJSAXxt1bFccMCNry4Mp2olYBzJCpFooEEVuaxxwTQhHtk2iFiEsxKJYqDOF374ufiTLdHVXuZEDJMuidoqEUUFpwY4s0HgMlHPU6yn0pjhAUYtJMJAI1anq+pC5ttEH/jRSDDSYt2Vn7nbetvjHwyiSVRs1EIiuitxYNTdN19JcgNWI3aWtrHRFCS6UHmoKBRSX3J4KBImojVyGN5vQWLX3B9tDFnm4tvZMQkBD4NiAgCgeC8LTcxKOWSbSuFOGNNy+ggYlvm7i3iDHkq1zIKE4sjGFsyM1xicHrKnrfZBs3Eh1f5X6f2ba4w8thOfsDvP69N/BnFx287x8xb/XMtsUKgnUTwlznQ3QNLGAgrRI/oI9TWa75gGKFZzXKOUCanN5INhQ58qEwVMPx6hlU2XQ7peMEoze7GEWnz+PcR3fhH5nHAiUAZ8he0XM4EukD8d9xlqex/KNsx6ILJeXxiquRbyBLcMqLgdZRuC9nw5XFYhd6fI61tWDax3mCw4XGMhv0ZDcfYaTc1WXRK3pdTg1i6DElH/25OF1ehTMNuTCJcXrX2t+cP9nvxDL8Q23o+OQjfDAAmF+uQM1FMr2YREoOuUnAX/Bi3LZ5EgvKFspZDFP3e3+A716pxIV83TYvViXk+hzkNb2Mi5QQjM5/iEef3UH/0AmUluQin/MLMT043kJGqIxJ2MJSZFtGoRgaQfugF6dztEiwSCjGe0Jftx9BbRHsVfnIZtEUbeC+xIUd5vwmg8zzjCfap0+v4+fYDQu1UpgdVnBOlS7YeNIiISAhICEgISAhICEgISAhICEgISAhICHwjUFgW0T8G9MnqSNbCMQQpZ+Et78L02TTKDMdqGKF+dajtYg4kCmk1tmQU5iAThfDEGX3wr5F9MZE0JJJoyjl5oRj+d50DUDvgOyCc/i9f3YGTvo8pXp7MNp1E//lw1ZMBClZGKR5fHcXxk7mothuZHLraCGoFCZ80sw5KKCM3wADFoP00FqjDOAiTc598WxomCRLHgMTWzFK5UyO0+NqQXiJaRhdtMGoVkMnNKuOvIiwBZNa9ERYIhMrEFci2yTktra1wcTNOpNszHsli+9FdbXwUpEzmpTMgcnMUFjP43f/x3xcDUewV6mRB5KWCavNghx2Po37i8z1YZBSXz9vo9/ZskjOcYmHgMWHeNyTjyyrBbn1tmSCb2/cRnRkDSsz7ejs6cKHPT6EV594hkX9WPffwa32Epj1WtjLMpNtbJ335I6YgKSs0ezAfbzfOoUh77YeBym1NWLHB62Uamyww6EWPh7bFwZKY2Hu+xEedfXh+uBCEpvkGqserMzex8ePy2BggtBCWSKRoJQWCQEJgW8fAuu8v0ZmHuCzT/vpr2dB4cuv4Eq5BU69kD/7qhfhKxRGYLQXY37e+7UmlDUUI9uo4Z3+q9/7V310h7ZP6ds1fxce3OaYGiaz6swpNLjoccVx7fmOnEkjDQseKt/AW6bzWJFpkZGpSxY/7GkvjcUO6iw4ybzRz4Qpe+fGpC+GvAwZjEoN9JmZ9ApyJz01l0KrG+wW9mpPO8mRkj5dYUrocVxNsJDEJmRuOZ7sHc+2oZHOZIiZUsblDsooT1AOsxsT7lqyc6LQ+qfQ/XAKC2sV0GeTmeygDA4lCY+9MCmbCI5guKsH9zn+pp14CyXlLhSbhX/cN3Sh31givgR36yf4/MOb+PBRBKrGN3DpYgMulZmSia0kEix4kZE1b87WQTm8zkKlZSyFWbij5JEdWGBE1v3KCoKLMaynMYGq0UKvEQzBBJQsFlKoDCzAMcGeZeDn8o05zw6YuGcWO5kdZKMX2aH4YhCzPj88iytIOHk+d6x7xD+EnKLZCYdFi5zUabS3DWOq2gSfYgGRkT70hFRYd1pR7OIcg5KBT3jnR2z8GauxEh2UE9WZNTAoea1MTtKTNIyl1QSLfp7jaDjPlilZeGUj05PqCGEPmW5LcVh0MqkI6BmnQvpaQkBCQEJAQkBCQEJAQkBCQEJAQkBC4KtGYGfM+6vem9T+EREQiQ/6J/nGMTHYgZu3H2BcVQpzfjVWa0pRkKlhUIuBA5Hc4kO8YA+lJpRYo7ye+CxF5HpEOCJFSRNyytIdRN9hsEpFQ/qConIU0Y9DaVdRxm4VgwOTiI3MYSRMnwZPKx73lsNhNlA6hwmgjZYPPw4ZE3CUCsyjl4ZDl47BAANovn6MTZSiezoHVvoryFOYuFt0wzPShRY3Az5hhjZ4HCk6+sAYyNwSrCchaUWvmKHeQQyMzGCee2VoAtacXJTXFMLOoFjG+hKC/hkM9PRieJ7+UXEt1vTleP1kIVw0EN/wcF/H6qIX8wusGmcOivENgIwlGdlNenrOCLUpkSRMU1pRUMnX4Ue30a+1AKYHO9HV2YVOH70YmCxLo6FDWgo9GWJujPV2oNVkQ0OBGUVqGbS7g1KUCkvE/BjraqFs0yD6mdyLsg1Z2jqrpJn0i0xhoL0VbZkmlGcb2EYa5YO2BWXWg/BND6Lr0UN0uBfhZWW+kINMT6MfS9yHuYk+PL7fSslCLeTc3rqdAUavtWjYw0Qotx0cw0iAATEG1NLThBdLCNHgGAOQj9Bu0dHLRZvs//ZdPwse6XsJAQmBbwICKwjR82j01qdMto9jJB6B1tiC+7+eQi/ve8lbkmAFBwbQ1TWOhdVlRIdv48EH04j2ZjPxT6brhTLkOvT07dt27znyobGogUme2eERzPkYYNY4UE3TKrOWUrvP09yR9/t1r0jZuaVZzPc0o2WQPorGHNScqkCekSzb5z5wFmHQW1JudCHXyHMmpggc4/e9L3McSSV7WqOTc+ynHF2MY21cFHcIVhWZzvQOy0yPk7W8jHl/KMmmFkPg3lMiimIoabm4iOUlDpyyTNhMTKgJVvXelZ+CTsYM5Da4il1w9rix/qAPA5PzKDWlwOaZQNtYBPHsHDiKcpGrpYTfsY2QeC2tryAw1on+vhmOnUaUvlSD4jxL0kPuaUe+Qe/WVhD2T1KK8BGuf3oDzQMhLNkacfm1SzhXm498IxNOW90lky1dJLcsUKkX4V5dpM8qk1dC43j7OL61Pt+wqCYcCGJ+nrLJegs0BiYhyVpK4VWiUGsgpzwxZz6I0McrviaunN2L+ERG4raaxVJkb6dQnno1yhfZ9fxGvPZus7uNXX8npY4okZyTxblgP2739mPG7cJk+iLWyOSaXbfAbnGg2KHhHCyVpVhf4iKSW5RYNliMMJmJ2+gY3PSn9QVjKFBtKxDbd5csgqK33Rov/xTOE2ljxrkVk1v0IbM6TVAPhOFbnMEIzWoLyXQ3bWfN72mPv1XKYEfDTBJSAjwtg/OsYwO5p1HpAwkBCQEJAQkBCQEJAQkBCQEJAQkBCQEJgW0ISMmtbWB8c94ylEDD8YXJTrTf/xA/udGNucQAsorIfopEcYWSUvmsoNazEjsZ3FpnEGJhArNDfRgK8MFbEIAYYEpTOmDSsWo8aWghwhOHLZQh1NphyTuBVxpa4Q6tYGbYz4rtHjxsaYON1d5VLgOcIhn0rIdzBgKgsMOVb0X2uAayxQA9FnoxMODCbYsJzvQ8GFKCCI53oONhM5p9IbhjlCkiS0lVRJkas5Ba4k5Ecis8jPYbP8dPfnUbHez+Gmpx6sp38EeF+cmAa0Y8gEWyn26+91f4YHwBo6ku6AuuUhYxHXH6jTkUItm3Au8APWcY4OhljG6FYaR0A43SHdZkJb1y3wjhQVgxWMFAVTw4jO7OTrT0jmORkoUyVRZxXocmdRnTXgauaM4+QBmg67VVMBTpoaLPigggbiwMNNL/a3VxAI9bOtDFxF0wld+r2R/1KtLibGN+BQsDrei22nCvtAhWtpFO7DcCYOuMZU1hbLgbdx72wLMSRVzB41GRsaYKYmo+hOU5JkZb7uB2bQlMlBUyW5nMS+6c+2awLOjtw73mdvRTNmqZ0obpahvs3Da+GsKsn0Gy7gdoz82GM88JJ/ctZ9J0Y9+bxyD9KyEgIfCNRiARRtA3jf7mTsxTHjC0NIbQ3TH8zd2dvU5w/IhRFjYSZSC771PcHJXhvjyb48cF/InDAm2WSG7t3OZIf7FAIxbxYYrFEoEF+hpanajMM0BHn59nDSFHav/AlUTygx6SDOJ/Lcs6cfeOo/9uM/qDZlhqynC+LptMWBYvPHeHeN/mOYxH6K8Z4gDPQhC5VpVMDO25LwtW01oc0VUmFxMcVzLoF8akSLL4gswtlZljsxrwLi3CM+PHUjyXAXwWT+w+KWQWkx4Fv8eLhQU6TapyODaT+aV61lFwpEvRci6RB7urD4q7QxgcmcIIC2cSvjF0BFTQn89FQZmD/kspxw/2szBknezmiY5W9E+skBFYhdebClBgJZtt9zE8N95f0oZJ6ego2fQTGO+8h/u/eQ+/bFvBavZp/P/tvfdzW1mW5/kFDQhPWMIRIOi9FeV9Kr2tqqzsqurq7pqZndiNmNidnYnoHyc2dv+C3Y2e6XUzO9G9Ud3R5W16paSUF0XRe+8t6GFosd9HJSUaUEkqU9VZpfOqkCIf3rvv3s8DgYv7Ped7ql75Ft6lJaGfBVF3zkGYda7UefN6YTLMcq4xib6RBYTSkhFjoIwS07R72wizhigz9oeDDHLJdMFsp7hFVYazOtYkZe1MWh4mrk9hmJbVs4vLWHdp4iSB8TW2xtqoFMA2WNstiZn6yRSdlMvFueTuLsT5na9MZsQ7OI/IzDYh+VftGB3MQydtUpM6R7GsOwm724OAg4FFCWtPeY04l93cpfxV0Bra7UKah6Lw+gAGBlhLdSID5Q7aMXPOF39MVLToKLAwxuzCxRUsW71wWw0wKoFjKWa4svl3XMs6eotDaG6fwBGzBy7+PeybfMg57DqDBqY49wypOYezUtBje2pe/9Ca7n5Dlf1CQAgIASEgBISAEBACQkAICIHnnMCXrVI853j++YYfYzH6SIi2gHOzCHGhbm11guLVFXwwfh/XHdm0cvGjIN1BEQgsBs4MqCGKLS1d6J+nsMJ6WYm09jOUVyDgS4N/M33pC8u7Jw6Jdb0YXV985kVUjyxiZGQGjRFa5/XdRUuzDZezA3gvx8QaBo9lmvjNMUpYZUFWUSlyBsdhbXuAGcbljrd9isvjjWi5lwMvJhkRPoGusSnMhbhYBRMs5nRUnypiZhrtZJSVh4OsTar17HMq0nkCS3cwC2EQi52/xH/5+148yPOjiIs4yRFaIdU3o61/BItc0tiADj5/OkrKsuBNToTi9nPwjZlRtPqaaLiMG939qJlZZfKcBtbKt/BabhLK1pvwH39xD6NL46x31oxff1qHQnMVrRZtMD9ahWSdr7kRjN7/EJ/1jaN5YR1JFLbsJ3+A9zJmoJ9uwN/+sgZLsSF09zXhwxs5qHAdgUatY70WLr5w0TjYeRd1bc34dIKR9esJMBaeRnVpAf61pxX/6ef3UNsX5CJoGz65XkcLMh2yHBlwbIp4awhN9aKv7io+Ggyie2kDaloHOU7+JX7k7cJsdx3rtjXz2n1o7miE1uHHMf8ReHjPD8fp4ETlSCEgBJ4FAQYiMDPXXvoizvnWMbcS7w2VYv0Sszc7etFMe9KwqxzFBW7kuN3M+glQMNBz4f0p+0aRfnWeGQ4tQcws+pCSz4VdCxfbn2nqAsfI98dlZkqE5iimKMlH8Yb9lEM60GmhUUz2tOPK1T5EAmcQYLZ1WRoX1L/SajYzwGYGMVp/C9dvziOWWYyCNy+g0pwI3e52Ka6thiYx1D2D+Qjvo8nKGooUrygkqZJM0KRloDjLiO6uCQRbutG9UIYUfjgpFr07tvUoYuF+9LSPYJA1stTZ+fDz9WDlfGLXkTtOeyiFJEDHOpfpfB0V4z7aaU1YH12iZfAQpjd8KKJwk8WMQCUh8Mlt7Wpa+ZXZgGtTLbh/uxODK+mwnziOKj/FtKe2fIxzja9pV4wMN+a7UPfRr/HppzX4uDEC97l3cOnFM3jlNHmaHgotOy/HYBl+1lsCucw+b2O2+whqavvwSrYOGXYNtDsOVl7ctEge7cXQyDjaVljnqpB2006KyJuf94kwUFR22y3wrA9hpG8U48EAopzHGXaoZEo7K1iam8bMxAyWmVXlslrhtDylJeFmH5U7q4GZ10/PTmcttBoM99UD4yswNc9CleOC3WuDnYpk4o6+bJ78Ff+jvGmlwOLPQUZWO7PxW9B9swZ1TjtKs80IKIJUvBcehf5YqA9tn/0MV+8MoVZ3Dn/xlxdxghmn7pRUuIoq+J44iOaeHlz/5eeo9rwIh1XLIKp9/iZWWf+Wc95b//D3uD3rharwPH74FxeRQ0eD1N1/b19xxHK6EBACQkAICAEhIASEgBAQAkLgeSUg4tY38s5zEYqWKo5ABY6cWcWi+i5ut3CRibYq8zOsv8CsqjAXukZ6KexQZ9pYWcTS4jymgwuIxmhNZ8mGJ/c4Ll0sQ4XPwmwiDvJAC3wJtDPiYmZaCSrLe1hzgeLH/QEsL09gqKsZN675UWw9jiIHI2KfaFOlXJCR+t5ylFfM453JObzfMoxJ1sSam6KFX2geExS71laimI8qohtt+zwFyC07gdeK0+A1MpL3oPclgSKeNYCKM+fRFLmD2Y5hjESCmBpswIOFPgwaaBfIOhdTU7OYD7HmRRL77j+JI6XluJBLixlaNh5m7Ta2HMTcWBsXLhvQNUQBiaJckj4XR0tLcbxYj+xQEs7Xso5V/wwGuLA71UwLonIKV0Y9qrkwpdyIWGQc4/0t+PhyIwYmFxBRsTaKhUXeq8pQnRGCemgdF+4zK2tqGVPBPoy03MaNCj8M+S7kG2gzFepBbU0T6luHMb/OaG41a5fklOLc0RIU2Cw4VU+Bj1ZS9YzMn+u6g8bONGT5HHiREcyIDNHqsgVXr7dilPU0lhOdtAYqwYvHylCZZsVcUhg9XPBUrr043omBtvu40puNl1gvJmOzhsdBb4wcJwSEwD8rAdrSGhgIkX9RDyeLDa6w5uDeje9HU3fxObMVhvuXseavQunZUrzAxVwt31vTKECkPvG9fm+LW3tiFDOiwTH0UWSaYwCCi5myLu0ue9Wtgw/1r6JYMbOZ729jU4scF7NCKPBsvo9vrGFjbhDDA+ObWT3rccd8qIsd4uCHAsHcQButdPtQO01r3jcKUJzHOpLMotnUGg7R2p5DV5ewPt2KxhYKRBNRTFM88p6kcMHPy8dZV8wSmuT4G++jZoA1mKxuZBQHGODC4ASlA6yrpDb5UFidj/tTw6gfqMMnd6thrvbA5NRty6JapbXiOKYeXENdL+cWugwU0Foxw8J6mAd6PfB+GF1wpHspJqhZe6sWLUHW/9LQIth5Cl5vGtItX1K7aw8AZQeDfmZHKfLdQf0go1n8WTh6LBdugxra3SJf3PP/UDvXqcGNYKq3Cfc+/Qy3O2YxlpiHo++V4fjxIyhjfTC/WQsN78lejUURIWkp7SpEXu59dA104tObV9FYYaHYpEeBVf34HP7dxlYn0V5Th9aOOYSM+ThZ4qMIaeC9VFpmZpyNImNWAFUZzfik9R5acuzISTfjWDqz6pWXhIKEwVQbS33oa+tGU8ciNpxl8DF4ystrPb7Y07CjKGpxwebzo8x8Fd09tHJmMI55JgXmdBdczAo1xGXwNNfafQ4z9K20py4qx2vnGvHT7ma01pjwkduAlyuzkG7WsF7W1uyPWWsUTUNTfei6/T6u3HyA+2NarFZZodU8fG2pkpgB5qlAeVUnRiZq8FMGa924TovtxBjO0E3Bxve25Ed/5DG6FUxhous+Gq9/zBqmPRhXLBh1Jlphs19bl93dZfldCAgBISAEhMA3ncDyDFZnODd5vxbdI1wXOehcO8HMKhC5OPv2EeRnOZDGz8O9cyAOnus2YZbmaLx6A61jBsTS8nCa56Rz0UvPiUvcc+Ixo4V1bHkSzdduoKUrgjFV5mY72S46BDHCRUU/oIXum2hoasP15knaEXMeH++rUpy2E7NOobiE6yflaZzLzWP8QQ3aOBer5frJZqn7L21HGYUBruIqFBytZhkJujFwTWrP2Bh0g5UJtN++g+bWGfREMnD6rSPICzAzfj9+HNc6nXgWx+niMzhAZ+Zh1refxNKGHil2ugRlZCAQyEKGl8FvqZxv7rnowwErAVqxyAyG+riexgz0geExjM5GsJJshkFxgeDcLiObc0ynBQ6uEcWf2ihuEkqA3ghGBgfR30cng4ERzEYYbK5hIBYDoHyBADIDHnjTLHSlIoN9+hPnNsguISAEhMAOAiJu7cDxTfmF7+pcWLR4i1BqtMBi4BdiI2s49Q4xI2gJiyE+FscpjND2iV1OYJSvRqOH0ZnJRR4ugAQqWZPqFN6mIOLjwheXgA6+qXi0hnW4CstRPTuBmq5R9FBMmxvvRvsDiiylARhTkmn7p/kSAYqGOCZG/hdG8NoqbV4S6tHJLK0p9n8hFMQCo2oTk1PhSKPlizENGSWncbT6CI6z/kLqfjXC4o6C2WZGRoFXX8KZOc5J1Fz8G+dEa4FZb8FZtI/zQzWBixh61l/wmGGxeJFdeQnnywpRTqu+x4sRcRvftZMLhzP9GOyoxdUmimgLy7RyTGeE9XEcZ32RogxaRbI2yYWyTAzQ0mZ0cA6rE3W438CFIosF2WYvUhNXaRnYhe72RlxuHsfMBrMrrLR7yjyCc7nk7lRqZ83h5YoM9N0ZxOwUJyMjDbhRW75Zn8TmDGO97w7uNveiY2wJKmWCkV7JBcQcVGemw8CaKkcLmTk2wQWvpiksB1vR0ZaNu650lNsDUI3QnrGdQmU7241xoTktE76sclzKS4NPr4ONWYAXSmhXyGuHuTgXpHXk5bsVyNQUcPGGQuk3agFx1+2RX4WAENhGgO+NJic8RXxs27vjR8XCbnQag7UN0CWN0EXMj/TcYgYleKHb/uWCohGWpzHUT2E+uIqwzo3cbDvsqRpw+TvOpizuLvHL6QSGWbcn6uQitscGK7+U7mvhFaeV+LuUb4xhzA4z46yR72/56s2ACC1rBm5E5hDsaEEX+zka3qAtX/wWnsneGD+NV6cw1NaK9q5pjNur8HpxJvLTUze/OG7HefjrM0gjmWKl1QhNygKCQ824d9kOv+YoitL5pZJWj4n8MruyNIERChiNnzegfcUJS3UhKqoCcPKbK78Dc+N8gLUlM44wSKVnAUO13bj98WdIj5VjjRl7TgNrC7Fu5EqIn9W9jWj66DbaQ0Zo+Zo4cywTnh1C2peMQs25i8uLwlLWjvpkAEOjtAemzZu+LA9ejwVpm3bJX9LG7qe54DE32oemm3Xoj2UhM7MAJwodMLFw5oEDYna3+bX+zhccXwcRLsr0t95H7c3r+OR3NRgyFiCtPAeVx8qR52b2FReGJgZnHl+ZddJUiZzzsZ6qTrHAS6Twx/qj2WX8WxyaQt2nd9F4y8O/SWYj5juRygWeRGZarSxOYGG0CddudKJvXg9X6XEcYxCMl8LNFg8Vs/E9uYU4fqwVzR93YKDWgisM+tHyflqZwaTUP10LM7uy5w5u3e9nDTMjAsePIi+D9U2f5h49HhV/osjJrPVUtx8VmSnoHRrG8IyW7gIuHPcxsIbjVd4/Dva3QSGeVpkr81MIjg6h3xraP+NLqbnFTCtrqhX2bAYyvcngsF/UonWkHtffZ5+CZcjPTGN2GmuM8Q1pY2UJS9PDGGMQ1/0rN1A/kYwNTyGOHc+nbaKBtfKUxRaKisZM5B45ilML82ifrKX18w1cXabAPlWILP4dmlmPLiWBi0psb3aoE50PmEV/txG9MQ98uQUoK/bByXu3o37qDl7yixAQAkJACAiBbzaBGEsrrHF94c77v8C11klM0UXHyjqvyprKHmFCsVBYC9OJaAmhNRdgeQW26lx4MijOxOIJGaxbOz+CsZbr+PSX/4TrPenQla7D91IFbPws1ivrEAeaNLDGKOc2oYG7uPXhL/HJvRWMaM7Cys91Bx2CWL2C7dDNhvOCps8/wo/f76PrkRl6LQNaFAFtzzX4vSYaQpTfbWYW16E/r0eYa0DnyuxIYR306U5+3v/mF/jH7jWW/DRAy/qeD+fdu+8lHYAirJM6y8D0NbobvMXA56xSlLm1DJZhl3ZcVxGpGLg0UIuaT3+DD65NoTl6CsaKbKR5Lcx8j8eP7S9NYoZzkIY799HSP4r+Ec6bxsgipofabIa1x402BpWXVZehtDCAbIeOc39F7NvalBIWrGmvlLhorUct6zL3D9OVYobORRS3ljlf1RisSLNy7aioGqUVxahkkI+DFkpKsOHjdtiXEO3PJ5gRX8dSGz1DnAeybxPjFLcYV8VawlpzGixpfga4cy2rnO1ks24sx3W49bmtfsu/QkAIPO8ERNz6Jr8CVBpoUgPIOZkBf/E5vD7Wy0WzVjR0tqGJEbadrCEQZJH4FFpPeX20PqJtUFFRCYUOP3Jc/IDmB0z8KIonDVr5SEqCwVuI/OIg3sm5g/+vi4LUwhjrt9Tg93cq4TMbkGV1Md7ky7YUGF0lKLL68T9mlqG+qRE1zawj1tWGvpibUR8BlGSx32XHcbTAj3y3aZflzpe1//B5FYuvJ9qqcOltL4orO9DcdB936+twr3sYnbQNjGndSM8p5MJCOY6UVOJo7sNFPCVq+uCbsmi1hMn+NjSwTlg961wtxNSwpqUj7/wZlDH6xa3VcFKSgeozJ3Grbw4tgx2YZJ2Ltlt3aC9kR2GeA1WGBYy01zNKiI9Np8gUuHxZyD95lLUgdLCzCHwsLQcnL57Gx50LGJwawczSCOovX0eBi/dlZQ2xK5+gfpq1bDaSoKHgFDh5AiUU17IMzMwiwcKKKnSPTeJK0zgz5OYw0ELuXGg8VmlAAhdbGtppdcTXjWIZ5MvJR0F1BSrMyZyEsW4XX0fHTh3F+03TCC4w2216ADXvf0bbJwvctDoq0h+G2cHpypFCQAh8gwnwi+nGxC18+H/9BD+5MouBzB/gf/4PL+LFKi/S4r6PbrDeFqMG+UVomgpTQiprCNlNUN4+thbdv9po17HUThE+qsLPbBs4nmWGN2UJy1M9uPlRPQYng0jw8Atj9x/w/WqNEY6so9ha14mW0XUYz15ASTZtgU2J277oPe2o+V5P+1jvue/iDdoNrn5Yg49+343/c7gHJ6pyUJphgpHZbBOdtahn5nBtR4TixQ/w5vmTeP2Ia1uGEOcEagZhFF7EubPTWAn+Hn/z/t/g7wbOoq6yFCcphBpV/OLexUyrugZ8UjcDx7kf4ZVzZ/FGKRfv40WV7jskHYx2N7IoZulvTGJtMsYvvakIUOTxOlK/sM3b9+S4T8T4WTjRw8zpz5lRXvUmLR/zUELLR6WG0TdjY70q1pSaqP0Vfv+zy/iny/1YUDmQ4WMmPmtazjRdwfWmOD1NtlAEysU51uDK8jKSVRFnaO3sqzyDY8thZlD/Z1z+zd+hp/EBms9Xo5Lt6de4WNHbgrrLV9AwSfvREyfx8vdpKe03w7HDS9RIgacCVW9F0Nv3/+DD+g/wm/Z29PefYzaXCTbVHANoWily3kT7rBOawgv4/g/PoIJ/U7YdixRx+n2QXbTC1FHULDrqpY1yFyJLXIyxFCDbz5qoNmXOdJBGlGMobjGKeL77PhoSJhHr1u/7d6VKMQJOBgwdCaDIn4usV/4KP2Rd11/99nP8+rf/Nxp+Z0c666HmMoMuz5aM6HQP+ls60NbMbPt1G7IufQcX334NP3w1GzZFkN/sI+dMKgYAFZ3BcS0dAzgf/M+/uoUb967i6k89yD5RsSlkO5K58DPdzUWldgyMUeg0BFD27vfx1uvHcLHcA8Nhos4PikaOEwJCQAgIASHwz0BAxXrtJn8xzle6YdaytuyuD/XYGlWMpR7c52dix0QKom4bDPovsu3jff6zXvDcQAtar36CK11TGAk5kf8046JFuZL91UVR6Abdj1qDvO6+kX5KAFkq0kpOMlCZAdeWlM31s8dDUSLl1hEebaOTUTs+bwnBzO81FiOznvjMoykog2CQ4EQm5xc5uS44vyjjsWOYrGU7O9CNntv30bZgho5ByWa6DySyfvuO4zbHzNqfC7R3v/YBbjV2oX6SVtFGpS9P2DjuxcE6NH/0S/zHHzdgwVEMf1kVLrzo47w7hNBgK7rpfvDxR1fR0Psu5zqv40cvZMHIFeGHGf9K2/wON8dA7Nsf4O/+939E7UourMVlOHn+PM6ZGIy1NMRgoCbc+eSfUHOTQeUX30D4X9Bym5bnFq5jPeLGvoRGGtH+6c/wNz9moFdKNpwl1Xj1nZdh1qzSjaIPoy21uPzJ56ip60behWUY/tUF5FpoaU3r5kftPGG48pQQEAJCYDsBEbe203hmPys1sGhNVPbn+O/T3sD3l5ahYgH3RFsm/DamaD/xug8/6pJ1rE2QrkWFhdG8xWfx0kssLB9h6jPP3crcMukYYWowwqhjZDA/aXe0yw9N6PNR9fKP+MHyBmtP8WOaYobZ4kAWn9pTT0mVClvGKVz8l17khxnZssYFStaWUltoecOFqZ11H540AI4ziR/c3lJUGZVI5It4nZlnYUaQJzES3cg+G420vjI8nCDsaEmZJBiKcfodLjac/DNmeynLG2yLkSJeLhhuRu88OoHjTbGwCDuvY/Ijm3VmXg/TApG54TH226BXrsMMOCULjtG1h18M431QGeEseBEv20qQ//YK1ljbTK1j5lSah1lVisUSP4jVrEmW/gK++1elTLsPgXeaq7mMrE9jnzmZS2ZKvu/It/FuxlkcXVDuHqN4TQ5GbDtZP40TAuV/jKzXZr6B/+bfHMO3Q1HeY/6ZJrFmhpL5oOOk5t3/gP/pRU5eaDWWSPsifRpTwhmB/HDRmDZEaUdx5vUAfFXf4/U5RUkwwsAI5oxUG1Tn/gIZpW/i0pKS80erKoubi852Lt48fL2oDH44ir+Df/fXZ7GwvIpV5R6w//4MFmbX7J12PcIvPwgBIfBcEFC+VnGZWfnPEzZ+MVqhfS7tclcZtJmYnAy1ml8eecZXfxdRWkiByZUKi20ZCzd+jJ9/ws+mVAc8ORnIuPAq0kdvY+gBLd16v5YLPmGcW0+tYoW1GMfv30DTYIz2cIV49UIe35dpZfZ1fTujzaRK7UPJ638OdaAcBY0d6BmbQZC1G393hV8gYwZY3bT0yLuIN87noOxYFYqzWddIyTrZ6qbyrzIX4Hu6u+JlvGD0wVzUhO7RKYz138BHNfOb7ejtVlizLuG7Z3JRVlWOolwfrYhZC2pHQ9sbjfczLelMNliyixkU8QDBRB3WDbk4XuKFi7WclODbg2+KFeUyprub0NE6SAtiZqSVF1A8dEDPuc6hmjr4RZ/iSPYzxjqY08yoom1miFlcGzG+LtprsDhMW7z9stL1AST69Mg6mg2fsviyOSCOS++lCPMS/uyv05DTyMWQwVGMNX2I31wNYZVBPVqTHe7K7+JbeRUoLClkBK6VCwa7xVR+tmvsXHw6gVf/VRIcD9rQ3DmA0baP8FnNClYTGDnLvx1HxbfwVk4RcouLcYR1qRz6bQsUT0Hi8SkMnOH81cfAq7QbUzDYWWutrAh+Zu1bNy11nvhG8rgZ5Q2H9jzhfi7aTLZjkOPcb0swuZBc7UVGjpuLYpyTqZmteOY9fMdZgsITbWjrYpZWkNmJTf34PbPtldepyVyMim+9gkBhMQqL8pCX5d0UtvZED9Pa0+AuRfHb/wb/XYCLNu096OwbweQcs0hvR1C3xnpebM9W8AJeeCWb7gWFKCnOQ4DZiqZDicP7jU72CwEhIASEgBD4ZhBIsHgofJzFxdcLkU43h8c22Ur/6ASwyIyfO6Po0qXBzGDe8vdOopCZzsqccsc61eaXClpXjzWhlW4SH98Yx/L6BhKfKsiG30GCPRhksPMvPhzC1GyU6yVPmitSlEvhPKX8LE4dzaVFINdUOA97PLdkNPLqGNo+mcJijx5JvmM4XV2CEwXM2lL6tzWN4TwdSVnIrbyAC+fzkcsseaWNx+2QyHQd6jaCaL9ugOPEOZQeLUEVM/qVurg7DqTAtDY7wHr1d/HbT/sxPBnerMeqzIbjb8ociTXdB27h9pXP8aurU1gv+zZevchsc1oxZ9qYnaXYFYZZAqO6HLkfvI/Pe+tQ84EKqY7v48Us1q9PVdayFBeKMVo0X8eNywygWj2CY++9hRMni1EVYDkPRXRiwGO4guU4Chz4h581o7uzDr//KBvZP6iAWnFk2pzgxzbr47beu41ffNSDoOclnLtwEi+cKUI+M+LVCVyfW6lEqLoS2a6f4oPacfQ2XMNva/PxHoVSI63SD/edIz4V2SsEhMDzRUDErT/I/ebiAv361dZclFif5oL8IEliFpfy0NNm5WmaUD4xaWHnYK0FR/oBYmAoamiMTngL+Hiq622dxL4ncGFTx34rj63dB/lXWYRLtsLFD1OWF/nSTZVAGy698qCHMDPfv/4tGToL0+P58O3XeAInBlyQysrjI+4xai7uZG4+4j/PkyhYJRr9KCj2x20BXNB6EscELYvB+5VHnNPdeWAwPfLiPKXsUiUboLEYUGrJ3OcI2S0EhMCfDAFFeNH7kHnkAt5U5WM+NwcFrNez5wsFbdJUxiwUnXkF36I1atDGekA8TrevcENLCROzuoou4p33SrDhU/zhWZ/waxEi2GeGV1gycpFPS40q7QwmFxIR09FGLYs2gEUZMGUbke3kG2C2HoXFXnhYc+rhxkAT2ti6is7iO3/uRXJBEYq8DzNAlFafflM+oxmgYctH6TnWuNL6UVlop/XeQ0Hv6dvddqaSzZPISNGMEpQwICLNm4mcgSEMDbI21kyUNrMG2KmMuPwZSPcxkISWLyZa3O310udI+fmuc2QiQ88AF0c6sgZoOcIF+pGRmc12jG4v3IEAFE/+AOuuWWhXyO+zh9w479HaYPQfxcV3ovCM8SuzMw8ncmlJuK83/5MuQXHNlI50Rta+lJxCi79svlb1h7NdflLz+z6XgEQNhYnc8zj/OsWRRC9yvVqY4vrNcM6SoIU56xiqX3QgqSD8ZA1465oaJxLsfnhY+2C7GKpijVA971OOyQqDKxOZ/f0YGBxG/8QSVtS0+rQxsCaD9ylbqXmgCFLJO9dGttpXApMYXe0vP71pg+zN7sNAP2uz8XUTTeDfsc0Lv3K/M1n7gFHVdrbDkRx8Y41Yg7sI1d/9AW2ri+Ao8SCVf+ub6xuUtJP4OjDnX8D5N2lDFKRISyvkfBcXQB690SRC5ylF0ekU/MC6ygAuZtubOJbN1xwtri1ZyKKd9Pf+MgOrMdrlfEnPVMxoT8pz055REVEp9nHByejKQQ5tdJzpAWQVjWB4ZIT2zbSHnF+hTQ/rgqVRSExn8FYW74ON9tiMQI/LgBaSSrCZJWBGhdEGb1YecofYltJeMESbIf7Nmd3weDlP9LO2WoYH7lTaE4mw9SV3TZ4WAkJACAiBPzYCKloSqunm4/EHmPHEdSp+9m9tSr2r2f5eNPVNIZTkRFpuBS4eVwJyH9Yc3Tpu818Gr8RWWa+8jg4zrQNoX2YWkClMW7vdATs7ztr7C+2LqQphvLMBTbWNuL/EGqS6MCyJSVh53LVd51Fo4xqSnnWknOmsR5WpfA/aOpgizBoznvo7sLRAe+01K3xHT6OiIAO59oeBWioGOz/cOE9PYBC1nXbQGZkIMB3qMQ7au28sYXiYgU+sQTur5hz2aAVKClk7V/muwAnHViub0YNrc5jqaUHTnVrUzqqxrtYy0z4J02wm7qYEU3Hcw401aG4YRPeiHWVvnKa9chEqsziH3JqDxPjdhEFGppUxjE3fxd2uBly+foTzzAJYDXR9UvE+LNL6uYPlSIbCWM59HeWsFXucpU4yjFtzTM7D7Hqk26JovdeNCZbZ6G/oxdjrBfDamNlODCoKmyGWNOnvHqCbhRqOt46h6tgRHC1iht+joLs0rDvoGrTUie6BqxTJelHbPo7z2Rbkpmkpxj0mEnfMcp5aXwAAHxhJREFUslMICAEhsIuAiFu7gMivQkAICAEhIASeDwIUZcy0bH1ZeTxhxFwcV9kqcPq7fDzhsMdPMSvUWUSBqQj/9uLjvV/PT8qXHS1SvcwIuvgu/qw8dTNycmfbDD+ouoSTO3fyNy6U2/KQeTIP/37vk3uOPvgOLnjr3XAd/x6+d/zgZz3VkRRP9LYAozD5qHiqFh6exPqaaj0zdnKUB79wfoWm9j01yYwURyVe+G/52PeggzyhyAwpsOSdx2nlcZBTvrZjKKrp02Cv+jN8r+rLGuVCRiItMplp7uXr6+0vO/wAz6sSWZ+UEc/eAuVxDCcOcE7cQxLYN7bjyVceR5++nXiNJzGrPPsUXv5rPuI8r2L9q2TfObzxV3zseV75e06CMfscTimPb+8+gNnoznKUKY8Xdz93mN9Z39TggE158A+n8jCn7jn2YZ+1NlqGK4+SPQfIDiEgBISAEBACf5oEGHysSqIYlMoAqVU6BmlZK5QqjvLJ+HhjvaXZIUy238en14cxy7pSxZXlOOrXb1pcPxZ9lDMolqzM09K3Bfc/r0XzaBTrrFOZFQphbUwJUHnc6pN/oq/EBuvRz3aj9T6zkhpHsZRbhqJwPQxTSRjcczKDsJS6TwYGcVk3YGBA2M6aUUrXWJc0EmSN2huoa5tEryodZ85XIc/HDG2l5pUSbkMeSRo9dEo9qyX+SyeeR7E7X1xTsVXeCPejreYBGluDWHSeRmVZNvJ95k1BUJnlPtyUDCy6Qcz3orOhHrfv9WLWV4ZAlDW/gjEEZ/eBsRHBRnQEHQ9a0Du8BpWTNoLH8pHDevN6KmePzlKlcC5Ey/TqEyit7UIfa6HevlaPPlqYZ3ppI53EesWhRYTX6dzjCKCA9uZFmXZ4KMA9aoM/JaQYkOLJQ5bbDE/7LMYYLLQQYb00Oj3FkmO8Z2u0oaY4CdY29ZXg+IkiFChBd1si2+ZgFTtIA9Iys1iDtQ6G1mmMTs5jMUp3JL4m2Mq2a27xkX+FgBAQAvsTEHFrfzbyjBAQAkJACAgBISAEhIAQEAJCQAgIASEgBISAEHiuCWzWOrcW4sTbifCtWqHxsbQCrYITH6lQFGhiC5jsZY3463XoCKUjP78IxypocU2hZbfwo9hOh6eYmf7Zr3GtbR0hTyEunM2G9ZMW1g6PKUZ5B9woRIWnMHz7E9Zen0J3LBuX3jkN29VBdE1FMMRubRdoaIcAvaccFeetSKSlTVqhkjVOp4ptR2F5FtGJZty80oLuGQdMBdW4UOqAW6nLtanQKS0aYcs/gap3aKe36EAe7Qo3bZcfXYyCUZh1zJtZW6p1jOWAWRLk0mnWBLXAxRqpO4W+NWZgzWOs5hru1w6hMZyJk7RyTGuYx0hwDAk7xrANyyrFrdlB9A3MYSLG+qnZOchwMBBQQ2HrUT++OJ4uQyqW8PBlsD6YdQi32rswPnkKwfAGvBbaLrpP46Uf0Z5xaQ2LGjcCdsUicHcjigi3ghXWgl9lVpzKYoSerwG1cnMp9ikBafaKd/B6+kUcm12FNj0dVqWEx65mYko2/iotsteUMiJqlkuhm4AiDu68C9sGKj8KASEgBPYnIOLW/mzkGSEgBISAEBACQkAICAEhIASEgBAQAkJACAgBIfB8E2CpjUQTs3qO2pGxnszscloTqxVx6wssMdaLmulFX3sH7rYzIyv7BWQVZKLQTbs/6h6Ps5SU41mbaW4Aw22s2/RBO2bMp5DDDK8zBRqMX6etMY9gifEDbMxsWprAbF8tPrvcjL4VDxyVR3Cp3IvpOg0GVJHHtbE2W1M6mwiNPRsBCjjmHMoxzEQzKRlKW+OgrBaeGcYIrf4e9K9g3ZWBoupi5Fg1MD6y1uPBtD5O9bJWp4E26GtqGO2sx06R51Ez60sIzQyg+fMa9IzT5tudj9PHM+Gx6KBR/AgfbRR6wkGERutw/VoTOheY5VZ5FOfL/YgM6TD1uGOPznj4A89bDiE6SavyBQqFvB9uCld2ZqIpNpGP+rF1liI+JZlgcdrhcDJDq34QEzPzmFmkJaGF1oOs6Wp2cYysebYSS0IKx7pTlNpgltgilie6MTC5gBmWPTFke2lpnQLdo+tRxKSFs43W5mbHOmJqNa0Xt2WQKX1hVtz6ygImaI0+MUuBi3XPcv12mNnOXgF0q/PyrxAQAkJgfwIibu3PRp4RAkJACAgBISAEhIAQEAJCQAgIASEgBISAEBACzzcBpb64xsrar/EKyTMDZyOKhYFWdHcNo21GB+ebFcjJ8cDLGlQ7hBalPtZGCMHeJrTWNeNqdwrS32UmVVUBCuwTmFcs7Hac8ATsG2EsjnWj5/5t3GhfRaw0F1WnKlHuTkRtyn51u2hVbmANTeURr+n1RcyN9qP9XhN6I1Z4Arm0EvTBzswi9SO1R+mgGtpU++bDsacdCk+RacyNdOHuvT5Mq47CnV2M46w/a6ad46NmlPNoLRhiBlvfvc9xuy2MkLcU5eeqUe5LQrdue/2u3RehQBhlzc/JEUwuUzNymOByWaBPpjgYl58iqGlgsFpZH0yPxNgAJmcpUi0uYyOm3xQfVYm0mkyMUVxk5lyYNoW0Cowq2VW8Z6vLi1ic6MVE0220BJOx4c5EaVUALmMKmIi27R7TvjCJY0zicjOFrGgogsUIbSMpVsbWmfUVmcXCRB+ab3dgMKSDKYvZfXmsCcZ2HmcB7h6r/C4EhIAQ2J+AiFv7s5FnhIAQEAJCQAgIASEgBISAEBACQkAICAEhIASEgBDYlwCFpY15DDc3oLdvHgvaHLyl1H7ymrdl9XxxMgWPWHQQHXfv4M69QQx5L+E7p0pxrJDHzk1uE0n2vdijJ2LL4xhqfYBr79egW3sBL1UdwQvVXpiSpzYFnrgaz6Oz4/8Qi45joq8LNbeHsKh/C/6cHJQFjFBvr2EV/9Rte2NYCQ5joqsVn/euYONMDjIrc5FHoU/HVLft/YqtTmK8pwGf/fIqOmIXUFVejVdP+GHTTmFghwq2rfnNH9exshzG3NQEwiuJ0OmMcFn1X/Rz+xW2zlP28fpGM0xmI1JUiwjOPRS3mGO1aQn48EglZW4FC8OdGBqj3eMc64athTBDoa6nuRl3rrcgXPgus9BewF9eZN0sWjomx+snM/mwPofpgX4M9o9jhnW5VsOT/L0dXY0NuNm8CvOxN3D69dfwWpEVFkWMjNftre7Lv0JACAiBfQiIuLUPGNktBISAEBACQkAIfFMI8AubpwL5b/41/peKFSRZ3Ywa1cf/IvVN6bL0QwgIASEgBISAEBACQkAIPA8EVpewPtOB5jrWf5rXISWvDMUZqXAYdmcerWI1NImx2x/hdkMQA4k5ePHbFygeOeBIoe0dWR1M32D2VyyKiYabeHC/B3dnfSh7+xSOlGYgXctrHrid7TdHEXU2EB7uQn/fIOrCOthO5yMz0wnXFxZ9B+sbRxGbx9RgN7ob+ijqBFAZyEBxlg0pFIEe60DKcVFMt9xDw51mXBn1Iuft4zhalQM/bRLjCkbbu7v5807vRtVTqUM726AixZajmO26jrvXH+Cj1lmsr68x4yqE0GIEs8sGWiuaYWedLsVe8ZEt5Z6+sZ3VaQzVXMXV92+hNsw6XWvLWI7QrlFpB354TWakmZixRShP1/c9F5UdQkAIPIcERNx6Dm+6DFkICAEhIASEwB8XAfq36+2w8HEi8MfVc+mtEBACQkAICAEhIASEgBD40yVAe7zwHBYHmtE6yBpO6ny4CvMQsGhhUu+st7QRncHCSCtuf/YAXQsWaHOP4KWT2ciw65jRtIilA0KKKWLaQjcabtehaWAZK4FjOMFMsUK/hXWx1nbV2Tpgo5uizhKmersx2DeNqZgbJ/P88HvM0FPEUQSzA21KxlJkAqMUyNq65hCxnoDP70bAoWM22eOsrdhaBBuL3WipaUB95wKW/MdReaQQpZk2Zp6xRtluzelAF/86DlJGmgydIwBf3ioqUhaxscF6assRRJeWMD89i8jqCMbbmnDLasT5ynQ4aSmo1PnaubGdRAMs3kxklYexHl3H+gYFLmabhUOLmJ5aQcLSILrr63DXbkClL5UWh6zRtbuZnY3Kb0JACAiBPQRE3NqDRHYIASEgBISAEBACQkAICAEhIASEgBAQAkJACAgBIfBkAqtYXpjGRCtrVC2w1lSGE7mFXtg1ybS+26ZU0I5wOdiP0Za7+PjuNELFR1F1+ihOZhhgOJR4RIFkaQoL7Z/j5v1hDMaykffKedazciCdFnkJmyLVk3sc99nYCpOWpjDU1YeRwQhUOrpG+B1wUaTbo9vEbeCLnRRw1mcGMDwwio5JilQlFPs8NjgN2233KPREKPR13cK92n50LNqQ/cYlHC30IMOSwuuxL18qbinZTsycSlSy41SsixWjeKTkvj15i1F8i20ojSvnJjJraqcASUWKz+nhOfZtPoDXlY4o925pFrOjFP5ab+L3P/kMddem0D6VBIcrFZoU3mvNrhpnKi43q/0oeEl5vLfZqdhqGJHFaQRpcdh68wO8f7kR9343jJFEFwwv58Ost1JI3PaaefJQ5FkhIASEwCYBEbfkhSAEhIAQEAJCQAgIASEgBISAEBACQkAICAEhIASEwCEJhLA0O4buum4sLTqQZvGhOGCBRp24TRSiQLI2ieHWetz69AF6DVU4W12FC1WeTWErSdEzvlTM+aJb6xRZhlpx86cfon25ANaq43jrbCactLfbtPI7aDu7R7kaQWy2F709U+gPa5GUV4gMlwk23XZRavdJu3+nteL6MuYGuzA4NYtxjRmZ5VlIt5tgVKz3tg5fn8fiZCdu/foTtM67oSs8ie9czIHPqt0UBB8dt3V83H8ToNboYU5zQqcexjwzq+aXlrFGkSs+AmUv63RFKDCFl7EKExysvWU1aihzPemKfE6VDLXeBnuA2XguLxKX5oDLnfikmXaDXRVISzXA7tIw6+pJ7bCZJA00qS64tEaY7Rqsh38K1YcduPX+PXTm2ZCRbkZA4R13vLJTCAgBIRCfgIhb8bnIXiEgBISAEBACQkAICAEhIASEgBAQAkJACAgBISAE9iOwPIeFqXG0t80ipC1DlseDAIUL9aMMHIoqzPwJDTSgpakBV5qGEFyJoelKCJG+a/h0y7owRntBZmQNtk5hYG4Jq90f4+f/2yCup5jgzy9F7rFjOOKlgDLZhb7mGvyubhSDUWB2I4LfRppwg2JaEp3wVLE19nSRtZ660DMdwWLsFj7++xm02mzweDKRffYFVKUbmEmVvEN8W6ddXnSkB/2zEczpXHAXZ8KVqoWBytvBxZY1ilsLmOwbQHCK9ogaHwpznbCzneRHws86olN9GG6+g4/qhtAzs4DEcBQf/L9duMPaXupNEUype7WE0QZmw03Osk5VDa79ZAF911n/y+HdHENFhgXeZNo52t2sVwZMhJcwObWAyJoL6xS49gpNiri1gtD8PBZmo1hXOWBLNcFMDsr9WV0IIjhJ0W01CYnuDLhY90uXvDV2/puQhKQUAx8pyMj2w93Yj432YXSPzGA6z40NJy0FKZ6FghMIBlmzK6qGO8cFk04NzdbYmWmWkMjsOm0CktUB+Jnl57O3Y7m1BxNTcwiyLpdf+1AUPTjz/V6Ysl8ICIHnhYCIW8/LnZZxCgEhIASEgBAQAkJACAgBISAEhIAQEAJCQAgIga+JwPpSEHMT42gbXcFygRupbjuFkcTNLKqHAgUziWLriEyPY3aRokeyCfaEecz11eN+37ZO0C5vY30FkdlFhFZC1FtCqL86jJQECzKXkrERKENxGgWWuSDmZ5gVlWSHXhPF2nQ76q+1P26Iwg7TxBCZm0M4so5lRNF+dwL9aguc2bNYyj6OLLsWaYqo82hbx2p0AcG+bowv0lbQZEUg2w2Ldpe14qPj9/lhYxnry0GM9oxiJkihSu9FjjcVqfpkWghunRPD6iIFwWlaOaosSEnhOfNdaLzWtXUAxSZlDBTBFuZZn2oVaxtRdD2YxhAzwWyefCwEjsDnMCHdzEwvuw8+sxq90wuY6h/HdDgAm0FN/hT6HrfINimYUXibGZ/E5GQUG8YspNlMsBq4LLzOOlhjzWis6cNAmILXaQdO+/XQJiVt67fSmNJiEjR6PTRaPheLYIFZYNHV9c17DNUSpjtr0dg8i85FJ04zMyzHQ4aPRLKtDrGdRGZx6TUw6Jk3Fl1ENMrXD0XPzbSzHR3fOkf+FQJCQAjEJyDiVnwuslcICAEhIASEgBAQAkJACAgBISAEhIAQEAJCQAgIgbgENrA6M46pqTG0rKuQ6LLCRMHExLJNO+pUKbWhTD5klZzAa8ZiKCWflBpRO7coa3dNMDvpJmtVabFmz0TFpTK4UzRwZeUjgwJOCmtzQe+kSFWFV97MYo0pRTjb3c4qG19E/81b6OoNYVSVjuIzZfA7LHC50uGmsGVkltdO/YTCSngWQ53dWJyPQWdOhT/NCG3y7uN29njPb+sRrC+Nob8jiKm5VCS50+A0a6BL2Wn8l6C1w+ovxwuv+hFZoai3ZwwUojiGofv30N0xjZ6oG/nHyxBId8BtZfaWi7Z+Kexbih6J9gDyAma0js+jvbkL/TMVcJl1tHvk89sHubGKWHgIQ93D6B1ZhSqzAF7Wy3IYEhBbXsB8x2Vc+agFdxczUO48gQJbMpwUKZV6Xo83hTVFt1AI0cgqNlQ6WIxajo/iHY0OEZvBwM0Pce3jMdxZPYrUE8WwWSmgMaVuRzOKgsVMveVQBOEFCmMqM3RaDbSa3Yrc4yvLT0JACAiB/QiIuLUfGdkvBISAEBACQkAICAEhIASEgBAQAkJACAgBISAEhMAuAhv8fQWLM1OYZX2pKGs4ZTltcFr1UFPqeCyJKMJGMgy+CpRY8uCrpG2gom3sag2xBYQm2nFnoBkzYQui7nKceO1NFBrVSDOZoDPpWVuK4oczD5l6F1Lz1zaFrT3tIMLGJ3Fvuh/LwSBmY4UoO/cyjtIe0GdkxhGziSy0vtshtmyEsbwYxEh3kJlSHuh1DngdtFZU0p8OscWiISxPj2AwtIwZowkGvwtpvJZ2h9KXCI0tE+kVVryWs/pQoNtzjRWOYQL10QmsT65jcDYPRSdexMkKPwJGHbRmK8w6CkoJ7J/ag5yqIgRG6tHaUYPPbpXDllIIW5YFWlpDPrwPtB0MTWH8zjXUdU1jWO1C2XmKZWmpMCclInFDB6svhzaMPVD3DaPu49vo9JxhLS0PnJrHrGLM8NqIDqO9oR29/ctIMOagwG+HMzUFCQlUNMHsuCwP7N5hRFsacPP+CbgptHkK7NA96gsFybUIoqPN6OgYRNN0ItSlBXB7LHCw3paC6vFrZw8Y2SEEhIAQ2ENAxK09SGSHEBACQkAICAEhIASEgBAQAkJACAgBISAEhIAQEALxCSiy0jKWZmewEAwxnycVadZUWJnJk7RDOVLOZo0lI2s8GQFb/MYo5sxiQTOPPmMKRSwdQIHJFchCwJQMu1KXa0vx0JmRqjzS9mkoFmZbKRi26GBMCSNpg6KJNwO+TDcCu0WtrSbWWG+LVoGjQyGEYyak0pYwLTUZycwUe3TdrWP3/TdGS0LWEZuewHh0FcsmA9zMZEtllpiiyW11X/kpUWuCUXk49mtsGdhIwSSBmZi5lpBkgc3t5xgyKewlbcuKo3iVaEJa0RGUDMygb6IV3bc+wdXYNKLTPJbZZymqNdogTiI4SPvGKzVoXdRDn1eBS8cDSLfpaPvIOlhK7a70UhQX92CAotPVxsu4/hktHefyUOyzMdONA6CwFZkbRbC/HtfujmB03YEc1kEry7DCaVTqlykjNCItvwz5/RPIG21l3bPPcJ0WlLG5HAqfJmbeURBdWUI4OIL+umu42baAaWM2jl4sQ066BeZDion70ZP9QkAIPF8ERNx6vu63jFYICAEhIASEgBAQAkJACAgBISAEhIAQEAJCQAh8BQIUKlhzKTS7wOytZUo2dlrU6WBSMorY6mMx5ytc4g90amwlgpXFBYwFWatLZ4Q6lbZ/FMKY1HSIbQNry7TZm53G7NoGYnodzBSndEkqin2HaOZQh7LhhGTo/UdQcXwBq7NT+K+fXsPdhWEMduWgKtcBnWoZkck+ZqV14F5XGMayYzhx9ixeKbbBRtEqURGlkjS0NyxB5alx2jPOo//nNXjw8SJrh+Wgt8QPp471tVbnMDfWj74H9ehZ9CDtSBXOv30a5empsCvZXZv9VsOcewwVc0tYGh/Hz2tuoGZ+GEM9+TiS76JIRgvC0DTmRnpQX9ONSU0BPNXn8O6rJShwUnRj2tYzQ3UornKwEBACf0wERNz6Y7pb0lchIASEgBAQAkJACAgBISAEhIAQEAJCQAgIASHwz0pAEbeiCC+GEZpnPaeYGuqkJApClCf+2BSKlShWIkuYXothOZGZUcnM2mKyEv9/iI3i1moUoYV5rFLcSiALtToJiuzzbHGwdWZv2QvO4JQ5HdbCerR0dKOj8wGu3hnBXCwVOqcHntxTeOVsGcrL8lGQTXGKdcA2ha3NESqpZVqY887ghIl1yQqP4EFDB9o6O9Hwm88RjMSQYHLC7PTBX/5tvF1SgaKiHBRm22HTbs8kYzNqWjqWX8LLzkz4jjxAU2sn2rpr8GnNNCLMRlNb7LD7M+C9dAKXSktQXEhrQzeFLQptO9wbD0FeDhUCQuD5JiDi1vN9/2X0QkAICAEhIASEgBAQAkJACAgBISAEhIAQEAJC4BAEuJyoMiP92Bt4yVyFwKIZeZU+ZNBG8KlECoormtRsFH/rXyPptBZrlgzk0YJPz7Sng1sDsvus7wVmkWVdfA9vZoVxJJaOch/tEhW1ah+VSaVlbayii3j337twUZMJZ042nDw+mRfe55Q4nGg/aAnAVf1d/JWeNchSM+HOcTBbiXWkDtHKw4YVtjZknHwLr6adRl7EjfJcikIUpOKzSESyzgaLT4tSHS0VMwtRUD6J8dEZRGJaqM02WN0u1rXywu1IhcWQwrHtHkICkrQWWLwp0BstSPUUIL9iApOTs1hciVH7SoXezD7Y0+D2uuCwmmBhlt6ee03+aoMDjgzWXtPQsjCrGEXjrPc1uYiVDYp9ehNMdgfsaW7aNto321FsD+OPa3cf5XchIASEwF4CIm7tZSJ7hIAQEAJCQAgIASEgBISAEBACQkAICAEhIASEgBCIS4CefRS3PBUX+ADOxD3mMDs1UBt9yHmRj8OctudYilsqC3zHX+Fjz5Pxd2idsOc68XruifjPH2hvAu0MfXCW+/Dt8gOd8ISDFLap8FRe5AM4+4QjHz2lSkSi2ohUt/LIodD46JlD/MBsLrUBWrsBOfYs5PC+PtWmYjaXmuKXT3kUovCpGpGThIAQEAIHI3C4LNuDtSlHCQEhIASEgBAQAkJACAgBISAEhIAQEAJCQAgIASEgBISAEBACQkAICIFnQkDErWeCVRoVAkJACAgBISAEhIAQEAJCQAgIASEgBISAEBACQkAICAEhIASEgBB4FgRE3HoWVKVNISAEhIAQEAJCQAgIASEgBISAEBACQkAICAEhIASEgBAQAkJACAiBZ0JAxK1nglUaFQJCQAgIASEgBISAEBACQkAICAEhIASEgBAQAkJACAgBISAEhIAQeBYERNx6FlSlTSEgBISAEBACQkAICAEhIASEgBAQAkJACAgBISAEhIAQEAJCQAgIgWdCQMStZ4JVGhUCQkAICAEhIASEgBAQAkJACAgBISAEhIAQEAJCQAgIASEgBISAEHgWBETcehZUpU0hIASEgBAQAkJACAgBISAEhIAQEAJCQAgIASEgBISAEBACQkAICIFnQkDErWeCVRoVAkJACAgBISAEhIAQEAJCQAgIASEgBISAEBACQkAICAEhIASEgBB4FgSSnrbR6PIy/tf/+rewpJqftgk5TwgIASHwR09geiaIGP/3f/ynv8XPfvJTQPVHPyQZgBAQAkJACAgBISAEhMCfOIG2llZEo1H8u//h30Kl4gRW5rB/4ndchicEhIAQEAJCQAgIgT8NAsNDw4hGIohtbEAV43bYYTU2NOIf/+HHhz1NjhcCQkAICAEhIASEgBAQAkJACAgBISAEhIAQEAJCQAgIASEgBISAEBACT0XAbLbgh3/xw6cTt57qinKSEBACQkAICAEhIASEgBAQAkJACAgBISAEhIAQEAJCQAgIASEgBISAEPiKBKTm1lcEKKcLASEgBISAEBACQkAICAEhIASEgBAQAkJACAgBISAEhIAQEAJCQAj84QiIuPWHYy1XEgJCQAgIASEgBISAEBACQkAICAEhIASEgBAQAkJACAgBISAEhIAQ+IoERNz6igDldCEgBISAEBACQkAICAEhIASEgBAQAkJACAgBISAEhIAQEAJCQAgIgT8cARG3/nCs5UpCQAgIASEgBISAEBACQkAICAEhIASEgBAQAkJACAgBISAEhIAQEAJfkYCIW18RoJwuBISAEBACQkAICAEhIASEgBAQAkJACAgBISAEhIAQEAJCQAgIASHwhyMg4tYfjrVcSQgIASEgBISAEBACQkAICAEhIASEgBAQAkJACAgBISAEhIAQEAJC4CsS+P8BmxAHlCkjDVoAAAAASUVORK5CYII=;" vertex="1" parent="1">
          <mxGeometry x="60" y="70" width="500" height="45.96" as="geometry" />
        </mxCell>
        <mxCell id="1gPnykWYMlendHl-3gnx-284" value="" style="rounded=0;whiteSpace=wrap;html=1;fontFamily=Helvetica;fontSize=11;fontColor=default;labelBackgroundColor=default;" vertex="1" parent="1">
          <mxGeometry x="850" y="530" width="110" height="120" as="geometry" />
        </mxCell>
        <mxCell id="1gPnykWYMlendHl-3gnx-286" value="&lt;font style=&quot;font-size: 13px;&quot;&gt;F2 - 50 mA&lt;/font&gt;&lt;div style=&quot;font-size: 13px;&quot;&gt;&lt;font style=&quot;font-size: 13px;&quot;&gt;C4 - 10 nF&lt;/font&gt;&lt;/div&gt;&lt;div style=&quot;font-size: 13px;&quot;&gt;&lt;font style=&quot;font-size: 13px;&quot;&gt;C5 - 1 nF&lt;/font&gt;&lt;/div&gt;&lt;div style=&quot;font-size: 13px;&quot;&gt;&lt;font style=&quot;font-size: 13px;&quot;&gt;C50 - 10 nF&lt;/font&gt;&lt;/div&gt;&lt;div style=&quot;font-size: 13px;&quot;&gt;&lt;font style=&quot;font-size: 13px;&quot;&gt;C51 - 100 nF&lt;/font&gt;&lt;/div&gt;&lt;div style=&quot;font-size: 13px;&quot;&gt;&lt;font style=&quot;font-size: 13px;&quot;&gt;R6 - 10 k&lt;span style=&quot;caret-color: rgb(31, 31, 31); color: rgb(31, 31, 31); font-family: &amp;quot;Google Sans&amp;quot;, Arial, sans-serif; background-color: rgb(251, 251, 251);&quot;&gt;Î©&lt;/span&gt;&lt;/font&gt;&lt;/div&gt;&lt;div style=&quot;font-size: 13px;&quot;&gt;&lt;font style=&quot;font-size: 13px;&quot;&gt;R30 - 150&amp;nbsp;&lt;span style=&quot;caret-color: rgb(31, 31, 31); color: rgb(31, 31, 31); font-family: &amp;quot;Google Sans&amp;quot;, Arial, sans-serif; background-color: rgb(251, 251, 251);&quot;&gt;Î©&lt;/span&gt;&lt;/font&gt;&lt;/div&gt;" style="text;html=1;align=left;verticalAlign=middle;whiteSpace=wrap;rounded=0;fontFamily=Helvetica;fontSize=11;fontColor=default;labelBackgroundColor=default;" vertex="1" parent="1">
          <mxGeometry x="871.0799999999999" y="523" width="220" height="137" as="geometry" />
        </mxCell>
      </root>
    </mxGraphModel>
  </diagram>
  <diagram id="WC5sI2L1avJrEEndU-Ah" name="PÃ¡gina-2">
    <mxGraphModel grid="1" page="1" gridSize="10" guides="1" tooltips="1" connect="1" arrows="1" fold="1" pageScale="1" pageWidth="1169" pageHeight="827" math="0" shadow="0">
      <root>
        <mxCell id="0" />
        <mxCell id="1" parent="0" />
      </root>
    </mxGraphModel>
  </diagram>
</mxfile>
